<svg width="48" height="49" viewBox="0 0 48 49" fill="none" xmlns="http://www.w3.org/2000/svg">
<g id="icon home">
<path id="Subtract" fill-rule="evenodd" clip-rule="evenodd" d="M44.5347 40.6809L44.5339 40.6825H44.5514L44.5347 40.6809ZM27.312 39.7818C25.2994 39.6863 23.2321 39.5896 21.1811 39.4948V34.3617C21.1811 34.0867 21.2885 33.823 21.4798 33.6285C21.671 33.4341 21.9303 33.3248 22.2007 33.3248H26.2792C26.5496 33.3248 26.809 33.4341 27.0002 33.6285C27.1914 33.823 27.2988 34.0867 27.2988 34.3617V39.5462C27.2988 39.6253 27.3033 39.7039 27.312 39.7818ZM36.3641 40.2219C40.6497 40.4372 43.7887 40.6088 44.5347 40.6809C46.8449 35.8244 48 30.3084 48 24.151C48 17.2048 45.9868 11.5783 41.9431 7.27126C37.8993 2.9826 32.7352 0.819946 26.4332 0.819946C18.5558 0.838274 12.1838 3.91731 7.31728 10.0571C2.43326 16.1968 0 23.6745 0 32.4717C0 34.671 0.19256 36.7054 0.560175 38.6115C1.19507 38.6115 5.89289 38.8067 12.0046 39.0783V27.5636C12.0045 27.2766 12.0631 26.9927 12.1765 26.7299C12.2899 26.4671 12.4557 26.2311 12.6635 26.0368L22.8597 16.2538L22.8737 16.2395C23.2491 15.8923 23.7383 15.6999 24.2457 15.6999C24.7531 15.6999 25.2423 15.8923 25.6177 16.2395C25.6221 16.2446 25.6268 16.2494 25.6318 16.2538L35.8279 26.0368C36.0336 26.2321 36.1973 26.4686 36.3087 26.7313C36.4201 26.9941 36.4769 27.2775 36.4754 27.5636V39.5462C36.4754 39.7783 36.4371 40.0065 36.3641 40.2219ZM40.7877 46.7489C29.4442 47.2071 17.1028 47.8852 5.4442 48.8199C4.04376 47.2804 2.8884 45.521 2.03063 43.5233C23.9125 42.3686 37.5667 43.0651 43.0109 43.4866C42.3457 44.6046 41.593 45.7043 40.7877 46.7489Z" fill="#58616B"/>
</g>
</svg>
