<svg width="36" height="37" viewBox="0 0 36 37" fill="none" xmlns="http://www.w3.org/2000/svg">
<g id="icon pin">
<path id="Subtract" fill-rule="evenodd" clip-rule="evenodd" d="M33.401 30.7156L33.4004 30.7169H33.4136L33.401 30.7156ZM16.4507 29.8522C8.72095 29.4938 1.13514 29.1636 0.420131 29.1636C0.14442 27.734 0 26.2083 0 24.5588C0 17.9608 1.82494 12.3526 5.48796 7.74778C9.13785 3.14297 13.9168 0.833692 19.8249 0.819946C24.5514 0.819946 28.4245 2.44194 31.4573 5.65843C34.4901 8.88867 36 13.1086 36 18.3182C36 22.9363 35.1337 27.0733 33.401 30.7156C32.4571 30.6245 26.4061 30.3208 19.7351 30.0059C21.9493 28.0713 26.664 23.251 26.664 17.29C26.6614 14.9278 25.7668 12.663 24.1763 10.9926C22.5858 9.32223 20.4293 8.38263 18.18 8.37995C15.9307 8.38263 13.7742 9.32223 12.1837 10.9926C10.5932 12.663 9.69855 14.9278 9.696 17.29C9.696 23.099 14.1732 27.8246 16.4507 29.8522ZM30.5908 35.2667C22.0831 35.6103 12.8271 36.1189 4.08315 36.8199C3.03282 35.6653 2.1663 34.3457 1.52298 32.8474C17.9343 31.9815 28.175 32.5038 32.2582 32.8199C31.7593 33.6584 31.1947 34.4832 30.5908 35.2667ZM19.894 14.596C19.3866 14.24 18.7902 14.05 18.18 14.05C17.3618 14.05 16.5771 14.3914 15.9985 14.999C15.4199 15.6066 15.0949 16.4307 15.0949 17.29C15.0949 17.9309 15.2758 18.5573 15.6148 19.0901C15.9538 19.6229 16.4357 20.0382 16.9994 20.2834C17.5631 20.5287 18.1834 20.5928 18.7819 20.4678C19.3803 20.3428 19.93 20.0342 20.3615 19.5811C20.7929 19.128 21.0868 18.5506 21.2058 17.9221C21.3248 17.2936 21.2637 16.6422 21.0302 16.0501C20.7967 15.4581 20.4013 14.9521 19.894 14.596Z" fill="#58616B"/>
</g>
</svg>
