<svg width="36" height="37" viewBox="0 0 36 37" fill="none" xmlns="http://www.w3.org/2000/svg">
<g id="icon heart">
<path id="Subtract" fill-rule="evenodd" clip-rule="evenodd" d="M33.401 30.7156L33.4004 30.7169H33.4136L33.401 30.7156ZM15.5943 29.8126C8.16945 29.4698 1.10871 29.1636 0.420131 29.1636C0.14442 27.734 0 26.2083 0 24.5588C0 17.9608 1.82494 12.3526 5.48796 7.74778C9.13785 3.14297 13.9168 0.833692 19.8249 0.819946C24.5514 0.819946 28.4245 2.44194 31.4573 5.65843C34.4901 8.88867 36 13.1086 36 18.3182C36 22.9363 35.1337 27.0733 33.401 30.7156C32.4767 30.6264 26.6548 30.3333 20.1492 30.0255C23.0418 27.7715 28.3954 22.8164 28.3954 17.0403C28.3937 15.2215 27.7873 13.4777 26.7091 12.1916C25.631 10.9054 24.1693 10.182 22.6446 10.1799C20.7292 10.1799 19.0522 11.1625 18.0068 12.8234C16.9615 11.1625 15.2845 10.1799 13.3691 10.1799C11.8444 10.182 10.3827 10.9054 9.30455 12.1916C8.22644 13.4777 7.62 15.2215 7.61828 17.0403C7.61828 22.6409 12.6515 27.4697 15.5943 29.8126ZM30.5908 35.2667C22.0831 35.6103 12.8271 36.1189 4.08315 36.8199C3.03282 35.6653 2.1663 34.3457 1.52298 32.8474C17.9343 31.9815 28.175 32.5038 32.2582 32.8199C31.7593 33.6584 31.1947 34.4832 30.5908 35.2667Z" fill="#58616B"/>
</g>
</svg>
