<svg width="36" height="37" viewBox="0 0 36 37" fill="none" xmlns="http://www.w3.org/2000/svg">
<g id="icon cross">
<path id="Subtract" fill-rule="evenodd" clip-rule="evenodd" d="M33.401 30.7156L33.4004 30.7169H33.4136L33.401 30.7156ZM15.0319 29.7867C7.8165 29.4545 1.0913 29.1636 0.420131 29.1636C0.14442 27.734 0 26.2083 0 24.5588C0 17.9608 1.82494 12.3526 5.48796 7.74778C9.13785 3.14297 13.9168 0.833692 19.8249 0.819946C24.5514 0.819946 28.4245 2.44194 31.4573 5.65843C34.4901 8.88867 36 13.1086 36 18.3182C36 22.9363 35.1337 27.0733 33.401 30.7156C32.5163 30.6302 27.1448 30.358 20.9814 30.0649C20.9816 30.0538 20.9818 30.0426 20.9818 30.0314V19.9771H25.6566C26.1075 19.9771 26.5399 19.7929 26.8587 19.4649C27.1775 19.137 27.3566 18.6923 27.3566 18.2285V15.6057C27.3566 15.1419 27.1775 14.6972 26.8587 14.3692C26.5399 14.0413 26.1075 13.8571 25.6566 13.8571H20.9818V9.04852C20.9818 8.58477 20.8027 8.14001 20.4839 7.81209C20.1651 7.48417 19.7327 7.29995 19.2818 7.29995H16.7319C16.281 7.29995 15.8486 7.48417 15.5298 7.81209C15.211 8.14001 15.0319 8.58477 15.0319 9.04852V13.8571H10.3571C9.90623 13.8571 9.47384 14.0413 9.15504 14.3692C8.83624 14.6972 8.65714 15.1419 8.65714 15.6057V18.2285C8.65714 18.6923 8.83624 19.137 9.15504 19.4649C9.47384 19.7929 9.90623 19.9771 10.3571 19.9771H15.0319V29.7867ZM30.5908 35.2667C22.0831 35.6103 12.8271 36.1189 4.08315 36.8199C3.03282 35.6653 2.1663 34.3457 1.52298 32.8474C17.9343 31.9815 28.175 32.5038 32.2582 32.8199C31.7593 33.6584 31.1947 34.4832 30.5908 35.2667Z" fill="#58616B"/>
</g>
</svg>
