<svg width="16" height="17" viewBox="0 0 16 17" fill="none" xmlns="http://www.w3.org/2000/svg">
<path d="M4.66667 7.4729H6V8.80623H4.66667V7.4729ZM4.66667 10.1396H6V11.4729H4.66667V10.1396ZM7.33333 7.4729H8.66667V8.80623H7.33333V7.4729ZM7.33333 10.1396H8.66667V11.4729H7.33333V10.1396ZM10 7.4729H11.3333V8.80623H10V7.4729ZM10 10.1396H11.3333V11.4729H10V10.1396Z" fill="#6BDE46"/>
<path d="M3.33333 14.8062H12.6667C13.402 14.8062 14 14.2082 14 13.4729V4.13957C14 3.40423 13.402 2.80623 12.6667 2.80623H11.3333V1.4729H10V2.80623H6V1.4729H4.66667V2.80623H3.33333C2.598 2.80623 2 3.40423 2 4.13957V13.4729C2 14.2082 2.598 14.8062 3.33333 14.8062ZM12.6667 5.4729L12.6673 13.4729H3.33333V5.4729H12.6667Z" fill="#6BDE46"/>
</svg>
