<svg width="236" height="249" viewBox="0 0 236 249" fill="none" xmlns="http://www.w3.org/2000/svg">
<path d="M0 238.55L53.7246 169.884L32.6101 172.763C32.1409 172.81 31.7186 172.857 31.2963 172.857C28.2465 172.857 25.6189 171.347 24.3989 168.752C23.0382 165.779 23.6482 162.003 26.0881 158.888L77.1382 93.6674L61.8419 95.7439C61.3727 95.7911 60.9504 95.8383 60.5281 95.8383C57.4782 95.8383 54.8976 94.3281 53.6776 91.7325C52.3169 88.7593 52.9269 84.9367 55.3668 81.8691L115.52 4.99146C117.772 2.11268 121.197 0.319336 124.528 0.319336C127.86 0.319336 130.581 2.11268 131.613 4.99146L160.329 81.9163C161.502 84.9838 160.564 88.8065 157.983 91.7797C155.402 94.7056 151.555 96.263 148.177 95.7911L133.725 93.7618L158.03 158.936C159.156 162.003 158.265 165.826 155.684 168.752C153.103 171.725 149.303 173.235 145.877 172.763L125.889 169.884L152.493 241.335C152.728 241.948 152.822 242.609 152.916 243.27V245.016L0 238.55ZM217.76 147.845L227.473 149.214C229.725 149.544 232.353 148.506 234.089 146.524C235.825 144.542 236.435 141.946 235.684 139.917L216.4 88.1458C215.696 86.2109 213.866 85.031 211.614 85.031C209.362 85.031 207.062 86.2109 205.561 88.1458L172.247 130.714L181.537 155.632C183.883 161.956 182.335 169.318 177.455 174.887C172.951 180.078 165.913 182.862 159.485 181.966L154.886 181.305L176.001 238.078C176.658 239.73 177.033 244.497 177.033 244.497C177.033 244.497 177.033 244.591 177.033 244.638V246.054L230.617 248.319C230.57 247.942 230.523 247.517 230.382 247.14L212.505 199.097L225.925 201.032C228.224 201.362 230.758 200.324 232.494 198.342C234.23 196.36 234.84 193.811 234.089 191.735L217.76 147.892V147.845Z" fill="#6BDE46"/>
</svg>
