<svg width="256" height="267" viewBox="0 0 256 267" fill="none" xmlns="http://www.w3.org/2000/svg">
<path d="M0 256.531L58.2744 182.591L35.3718 185.691C34.8628 185.741 34.4048 185.792 33.9467 185.792C30.6386 185.792 27.7885 184.166 26.4652 181.371C24.9893 178.169 25.6509 174.104 28.2974 170.75L83.6708 100.519L67.0791 102.755C66.5702 102.806 66.1121 102.856 65.6541 102.856C62.3459 102.856 59.5467 101.23 58.2235 98.4353C56.7475 95.2337 57.4091 91.1174 60.0557 87.8142L125.303 5.03102C127.746 1.9311 131.461 0 135.074 0C138.688 0 141.64 1.9311 142.759 5.03102L173.907 87.8651C175.179 91.1683 174.161 95.2845 171.362 98.4861C168.563 101.637 164.39 103.314 160.725 102.806L145.05 100.62L171.413 170.801C172.635 174.104 171.668 178.22 168.868 181.371C166.069 184.573 161.947 186.199 158.231 185.691L136.55 182.591L165.408 259.53C165.662 260.19 165.764 260.902 165.866 261.613V263.494L0 256.531ZM236.202 158.858L246.737 160.332C249.18 160.688 252.03 159.57 253.913 157.435C255.796 155.301 256.458 152.506 255.644 150.321L234.726 94.5731C233.963 92.4895 231.978 91.2191 229.535 91.2191C227.092 91.2191 224.598 92.4895 222.969 94.5731L186.834 140.411L196.911 167.243C199.456 174.053 197.777 181.981 192.484 187.977C187.598 193.567 179.963 196.566 172.991 195.6L168.003 194.889L190.906 256.023C191.618 257.802 192.025 262.935 192.025 262.935C192.025 262.935 192.025 263.036 192.025 263.087V264.612L250.147 267.051C250.096 266.644 250.045 266.187 249.893 265.78L230.502 214.047L245.058 216.131C247.551 216.486 250.3 215.368 252.183 213.234C254.066 211.1 254.728 208.356 253.913 206.12L236.202 158.909V158.858Z" fill="white"/>
</svg>
