<svg width="2026" height="283" viewBox="0 0 2026 283" fill="none" xmlns="http://www.w3.org/2000/svg">
<path fill-rule="evenodd" clip-rule="evenodd" d="M1778.32 248.623C1787.83 249.663 1797.16 250.711 1806.31 251.767L1785 194.889L1789.99 195.6C1796.96 196.566 1804.6 193.567 1809.48 187.977C1814.78 181.981 1816.46 174.053 1813.91 167.243L1803.83 140.411L1839.97 94.5731C1841.6 92.4896 1844.09 91.2191 1846.53 91.2191C1848.98 91.2191 1850.96 92.4896 1851.73 94.5731L1872.64 150.321C1873.46 152.506 1872.8 155.301 1870.91 157.435C1869.03 159.57 1866.18 160.688 1863.74 160.332L1853.2 158.858V158.909L1870.91 206.12C1871.73 208.356 1871.07 211.1 1869.18 213.234C1867.3 215.368 1864.55 216.487 1862.06 216.131L1847.5 214.047L1864.29 258.831C1928.51 267.086 1982.25 275.462 2025.5 282.947H0.5C729.949 196.907 1274.37 205.766 1634.02 234.935L1675.27 182.591L1652.37 185.691C1652.07 185.721 1651.78 185.751 1651.5 185.771C1651.32 185.784 1651.13 185.792 1650.95 185.792C1647.64 185.792 1644.79 184.166 1643.47 181.371C1641.99 178.169 1642.65 174.104 1645.3 170.75L1700.67 100.519L1684.08 102.755L1683.94 102.769C1683.49 102.815 1683.07 102.857 1682.65 102.857C1679.35 102.857 1676.55 101.23 1675.22 98.4353C1673.75 95.2337 1674.41 91.1174 1677.06 87.8143L1742.3 5.03101C1744.75 1.93115 1748.46 0 1752.07 0C1755.69 0 1758.64 1.93115 1759.76 5.03101L1790.91 87.8651C1792.18 91.1683 1791.16 95.2845 1788.36 98.4861C1785.56 101.637 1781.39 103.314 1777.73 102.806L1762.05 100.62L1788.41 170.801C1789.63 174.104 1788.67 178.22 1785.87 181.371C1783.07 184.573 1778.95 186.199 1775.23 185.691L1753.55 182.591L1778.32 248.623Z" fill="white"/>
</svg>
