<svg width="20" height="21" viewBox="0 0 20 21" fill="none" xmlns="http://www.w3.org/2000/svg">
<path d="M4.96818 4.12424C6.1399 3.19564 7.54617 2.61014 9.03068 2.43283C9.07457 2.42786 9.11902 2.43225 9.16109 2.44572C9.20316 2.45918 9.2419 2.48141 9.27475 2.51094C9.3076 2.54047 9.33382 2.57663 9.35168 2.61703C9.36953 2.65743 9.37862 2.70116 9.37834 2.74533V9.87502H7.47599C7.32069 7.86267 6.42034 5.98062 4.95099 4.59689C4.91812 4.56634 4.89222 4.52907 4.87504 4.48761C4.85786 4.44615 4.84981 4.40148 4.85144 4.35663C4.85307 4.31179 4.86434 4.26782 4.88449 4.22771C4.90463 4.18761 4.93318 4.15232 4.96818 4.12424ZM3.59318 5.50549C2.6819 6.66848 2.10665 8.05891 1.9299 9.5258C1.92469 9.56981 1.9289 9.61443 1.94226 9.65669C1.95561 9.69895 1.97781 9.73789 2.00736 9.77092C2.03691 9.80394 2.07316 9.83031 2.11368 9.84825C2.1542 9.8662 2.19808 9.87533 2.2424 9.87502H6.22053C6.06636 8.18901 5.29452 6.61945 4.05334 5.46799C4.02154 5.43838 3.98393 5.41573 3.94289 5.40148C3.90185 5.38722 3.85829 5.38169 3.81499 5.38521C3.77169 5.38874 3.7296 5.40126 3.69141 5.42197C3.65321 5.44268 3.61976 5.47112 3.59318 5.50549ZM15.0307 4.12424C13.859 3.19564 12.4527 2.61014 10.9682 2.43283C10.9243 2.42786 10.8798 2.43225 10.8378 2.44572C10.7957 2.45918 10.757 2.48141 10.7241 2.51094C10.6913 2.54047 10.665 2.57663 10.6472 2.61703C10.6293 2.65743 10.6202 2.70116 10.6205 2.74533V9.87502H12.519C12.6743 7.86267 13.5746 5.98062 15.044 4.59689C15.0771 4.56662 15.1033 4.52957 15.1208 4.48826C15.1383 4.44696 15.1467 4.40237 15.1454 4.35753C15.1442 4.31269 15.1333 4.26864 15.1135 4.22838C15.0937 4.18813 15.0654 4.15261 15.0307 4.12424ZM18.0666 9.5258C17.8906 8.05915 17.3161 6.66874 16.4057 5.50549C16.3791 5.47149 16.3458 5.44336 16.3078 5.42288C16.2698 5.4024 16.228 5.39001 16.185 5.38649C16.142 5.38296 16.0987 5.38839 16.0579 5.40241C16.0171 5.41644 15.9796 5.43877 15.9479 5.46799C14.7058 6.61908 13.9331 8.18868 13.7783 9.87502H17.7557C17.7999 9.8751 17.8436 9.86582 17.8839 9.84777C17.9242 9.82972 17.9603 9.80333 17.9897 9.77033C18.0191 9.73733 18.0411 9.69847 18.0544 9.65632C18.0676 9.61417 18.0718 9.56968 18.0666 9.5258ZM1.93224 11.4742C2.10831 12.9409 2.68274 14.3313 3.59318 15.4945C3.61976 15.5285 3.65309 15.5567 3.69107 15.5772C3.72905 15.5976 3.77087 15.61 3.81388 15.6136C3.85689 15.6171 3.90016 15.6117 3.94097 15.5976C3.98178 15.5836 4.01924 15.5613 4.05099 15.5321C5.29304 14.381 6.06573 12.8114 6.22053 11.125H2.24318C2.19899 11.1249 2.15529 11.1342 2.11496 11.1523C2.07462 11.1703 2.03857 11.1967 2.00919 11.2297C1.9798 11.2627 1.95775 11.3016 1.94449 11.3437C1.93122 11.3859 1.92705 11.4304 1.93224 11.4742ZM16.4057 15.4945C17.317 14.3316 17.8922 12.9411 18.069 11.4742C18.0742 11.4302 18.07 11.3856 18.0566 11.3433C18.0432 11.3011 18.0211 11.2622 17.9915 11.2291C17.9619 11.1961 17.9257 11.1697 17.8852 11.1518C17.8447 11.1338 17.8008 11.1247 17.7565 11.125H13.7783C13.9325 12.811 14.7043 14.3806 15.9455 15.5321C15.9773 15.5617 16.0149 15.5843 16.056 15.5986C16.097 15.6128 16.1406 15.6184 16.1839 15.6148C16.2272 15.6113 16.2693 15.5988 16.3075 15.5781C16.3456 15.5574 16.3791 15.5289 16.4057 15.4945ZM4.96818 16.8758C6.1399 17.8044 7.54617 18.3899 9.03068 18.5672C9.07457 18.5722 9.11902 18.5678 9.16109 18.5543C9.20316 18.5409 9.2419 18.5186 9.27475 18.4891C9.3076 18.4596 9.33382 18.4234 9.35168 18.383C9.36953 18.3426 9.37862 18.2989 9.37834 18.2547V11.125H7.47599C7.32069 13.1374 6.42034 15.0194 4.95099 16.4031C4.91812 16.4337 4.89222 16.471 4.87504 16.5124C4.85786 16.5539 4.84981 16.5986 4.85144 16.6434C4.85307 16.6883 4.86434 16.7322 4.88449 16.7723C4.90463 16.8124 4.93318 16.8477 4.96818 16.8758ZM12.5229 11.125H10.6244V18.2563C10.6242 18.3004 10.6332 18.3442 10.6511 18.3846C10.669 18.425 10.6952 18.4611 10.728 18.4907C10.7609 18.5202 10.7996 18.5424 10.8417 18.5559C10.8837 18.5693 10.9282 18.5737 10.9721 18.5688C12.4566 18.3915 13.8629 17.806 15.0346 16.8774C15.0696 16.8493 15.0981 16.814 15.1183 16.7739C15.1384 16.7338 15.1497 16.6898 15.1513 16.645C15.153 16.6001 15.1449 16.5554 15.1277 16.514C15.1106 16.4725 15.0846 16.4353 15.0518 16.4047C13.5806 15.0212 12.6788 13.1385 12.5229 11.125Z" fill="#58616B"/>
</svg>
