<svg width="20" height="21" viewBox="0 0 20 21" fill="none" xmlns="http://www.w3.org/2000/svg">
<path d="M15.625 2.375H15C14.6685 2.375 14.3505 2.5067 14.1161 2.74112C13.8817 2.97554 13.75 3.29348 13.75 3.625V4.875H11.5625V3.625C11.5625 3.29348 11.4308 2.97554 11.1964 2.74112C10.962 2.5067 10.644 2.375 10.3125 2.375H9.68751C9.35599 2.375 9.03804 2.5067 8.80362 2.74112C8.5692 2.97554 8.43751 3.29348 8.43751 3.625V4.875H6.25001V3.625C6.25001 3.29348 6.11831 2.97554 5.88389 2.74112C5.64947 2.5067 5.33153 2.375 5.00001 2.375H4.37501C4.04349 2.375 3.72554 2.5067 3.49112 2.74112C3.2567 2.97554 3.12501 3.29348 3.12501 3.625V7.11641C3.12448 7.28062 3.1566 7.4433 3.21951 7.59499C3.28241 7.74668 3.37483 7.88435 3.49141 8L4.37501 8.88359V17.375C4.37501 17.7065 4.5067 18.0245 4.74112 18.2589C4.97554 18.4933 5.29349 18.625 5.62501 18.625H14.375C14.7065 18.625 15.0245 18.4933 15.2589 18.2589C15.4933 18.0245 15.625 17.7065 15.625 17.375V8.88359L16.5086 8C16.6252 7.88435 16.7176 7.74668 16.7805 7.59499C16.8434 7.4433 16.8755 7.28062 16.875 7.11641V3.625C16.875 3.29348 16.7433 2.97554 16.5089 2.74112C16.2745 2.5067 15.9565 2.375 15.625 2.375ZM11.875 17.375H8.12501V12.375C8.12501 11.8777 8.32255 11.4008 8.67418 11.0492C9.02581 10.6975 9.50273 10.5 10 10.5C10.4973 10.5 10.9742 10.6975 11.3258 11.0492C11.6775 11.4008 11.875 11.8777 11.875 12.375V17.375Z" fill="#58616B"/>
</svg>
