<svg width="40" height="40" viewBox="0 0 40 40" fill="none" xmlns="http://www.w3.org/2000/svg">
<path d="M9.50078 30.4832C9.81217 30.7952 10.2349 30.9706 10.6758 30.9706C11.1166 30.9706 11.5394 30.7952 11.8508 30.4832L20.0008 22.3498L28.1508 30.4998C28.4622 30.8119 28.8849 30.9873 29.3258 30.9873C29.7666 30.9873 30.1894 30.8119 30.5008 30.4998C31.1508 29.8498 31.1508 28.7998 30.5008 28.1498L22.3508 19.9998L30.5008 11.8498C31.1508 11.1998 31.1508 10.1498 30.5008 9.49983C29.8508 8.84983 28.8008 8.84983 28.1508 9.49983L20.0008 17.6498L11.8508 9.49983C11.2008 8.84983 10.1508 8.84983 9.50078 9.49983C8.85078 10.1498 8.85078 11.1998 9.50078 11.8498L17.6508 19.9998L9.50078 28.1498C8.86745 28.7832 8.86745 29.8498 9.50078 30.4832Z" fill="#FFC340"/>
</svg>
