<svg width="28" height="29" viewBox="0 0 28 29" fill="none" xmlns="http://www.w3.org/2000/svg">
<path fill-rule="evenodd" clip-rule="evenodd" d="M4.66665 4.81494H23.3333C24.6166 4.81494 25.6666 5.86494 25.6666 7.14827V21.1483C25.6666 22.4316 24.6166 23.4816 23.3333 23.4816H4.66665C3.38331 23.4816 2.33331 22.4316 2.33331 21.1483L2.34498 7.14827C2.34498 5.86494 3.38331 4.81494 4.66665 4.81494ZM14.6183 14.9299L22.8666 9.77328C23.1583 9.58661 23.3333 9.27161 23.3333 8.93328C23.3333 8.15161 22.4816 7.68494 21.8166 8.09328L14 12.9816L6.18331 8.09328C5.51831 7.68494 4.66665 8.15161 4.66665 8.93328C4.66665 9.27161 4.84165 9.58661 5.13331 9.77328L13.3816 14.9299C13.755 15.1633 14.245 15.1633 14.6183 14.9299Z" fill="white"/>
</svg>
