<svg width="20" height="21" viewBox="0 0 20 21" fill="none" xmlns="http://www.w3.org/2000/svg">
<path d="M17.1344 3.68362C17.0253 3.63408 16.9042 3.61694 16.7857 3.63426C16.6671 3.65157 16.556 3.7026 16.4656 3.78127C14.2781 5.67346 12.425 4.75627 10.2773 3.69299C8.05234 2.59065 5.52969 1.34299 2.71562 3.78127C2.64839 3.83955 2.59437 3.91152 2.55718 3.99236C2.52 4.0732 2.5005 4.16104 2.5 4.25002V17.375C2.5 17.5408 2.56585 17.6998 2.68306 17.817C2.80027 17.9342 2.95924 18 3.125 18C3.29076 18 3.44973 17.9342 3.56694 17.817C3.68415 17.6998 3.75 17.5408 3.75 17.375V13.9196C5.84297 12.2664 7.64609 13.1578 9.72266 14.186C11.0039 14.8196 12.3836 15.5024 13.8633 15.5024C14.9516 15.5024 16.093 15.1313 17.2867 14.0961C17.354 14.0378 17.408 13.9659 17.4452 13.885C17.4823 13.8042 17.5018 13.7163 17.5023 13.6274V4.25002C17.5017 4.13028 17.4667 4.01325 17.4015 3.91283C17.3362 3.81242 17.2435 3.73286 17.1344 3.68362ZM3.75 12.4094V8.7719C5.06641 7.89065 6.3 7.86643 7.5 8.19846V11.9281C6.31797 11.6305 5.06797 11.6492 3.75 12.4094ZM16.25 13.3321C14.932 14.3727 13.7289 14.4039 12.5 14.0281V10.3039C10.8109 9.83518 9.18906 8.6633 7.5 8.19846V3.84924C8.22266 4.07034 8.95391 4.43127 9.72266 4.81174C10.6023 5.2469 11.5281 5.70471 12.5 5.94924V10.3039C13.6992 10.636 14.9328 10.6117 16.25 9.72971V13.3321Z" fill="#58616B"/>
</svg>
