<svg width="20" height="21" viewBox="0 0 20 21" fill="none" xmlns="http://www.w3.org/2000/svg">
<path d="M10 2.375C8.39303 2.375 6.82214 2.85152 5.486 3.74431C4.14985 4.6371 3.10844 5.90605 2.49348 7.3907C1.87852 8.87535 1.71762 10.509 2.03112 12.0851C2.34463 13.6612 3.11846 15.1089 4.25476 16.2452C5.39106 17.3815 6.8388 18.1554 8.4149 18.4689C9.99099 18.7824 11.6247 18.6215 13.1093 18.0065C14.594 17.3916 15.8629 16.3502 16.7557 15.014C17.6485 13.6779 18.125 12.107 18.125 10.5C18.1227 8.34581 17.266 6.28051 15.7427 4.75727C14.2195 3.23403 12.1542 2.37727 10 2.375ZM10.625 5.45156L12.5617 4.11953C13.6706 4.5662 14.6445 5.29302 15.3883 6.22891L14.7633 8.33359C14.7477 8.33359 14.7313 8.34141 14.7156 8.34688L12.9328 8.92578C12.9061 8.93433 12.88 8.94478 12.8547 8.95703L10.625 7.42344V5.5V5.45156ZM7.44063 4.11953L9.375 5.45156V7.42344L7.14375 8.96016C7.11848 8.9479 7.09238 8.93746 7.06563 8.92891L5.28282 8.35C5.26719 8.34453 5.25079 8.34062 5.23516 8.33672L4.61016 6.23203C5.35463 5.29446 6.33 4.5665 7.44063 4.11953ZM6.425 14.2047H4.21094C3.56284 13.197 3.19129 12.0366 3.1336 10.8398L4.85235 9.52109C4.86713 9.52763 4.88226 9.53337 4.89766 9.53828L6.68125 10.118C6.7051 10.1252 6.72936 10.1309 6.75391 10.1352L7.59688 12.5898C7.58516 12.6039 7.57344 12.618 7.5625 12.6328L6.46094 14.1492C6.44797 14.167 6.43597 14.1856 6.425 14.2047ZM11.7727 17.1406C10.6111 17.45 9.38887 17.45 8.22735 17.1406L7.44141 14.9219C7.45157 14.9094 7.4625 14.8977 7.47188 14.8844L8.57422 13.3672C8.58719 13.3496 8.59919 13.3314 8.61016 13.3125H11.3898C11.4008 13.3314 11.4128 13.3496 11.4258 13.3672L12.5281 14.8844C12.5375 14.8977 12.5484 14.9094 12.5586 14.9219L11.7727 17.1406ZM13.575 14.2023C13.564 14.1832 13.552 14.1647 13.5391 14.1469L12.4367 12.6328C12.4258 12.618 12.4141 12.6039 12.4023 12.5898L13.2453 10.1352C13.2699 10.1309 13.2941 10.1252 13.318 10.118L15.1016 9.53828C15.117 9.53337 15.1321 9.52763 15.1469 9.52109L16.8656 10.8398C16.8079 12.0366 16.4364 13.197 15.7883 14.2047L13.575 14.2023Z" fill="#58616B"/>
</svg>
