<svg width="236" height="248" viewBox="0 0 236 248" fill="none" xmlns="http://www.w3.org/2000/svg">
<path d="M0 238.231L53.7246 169.565L32.6101 172.444C32.1409 172.491 31.7186 172.538 31.2963 172.538C28.2465 172.538 25.6189 171.028 24.3989 168.432C23.0382 165.459 23.6482 161.684 26.0881 158.569L77.1382 93.3481L61.8419 95.4245C61.3727 95.4717 60.9504 95.5189 60.5281 95.5189C57.4782 95.5189 54.8976 94.0088 53.6776 91.4131C52.3169 88.44 52.9269 84.6173 55.3668 81.5498L115.52 4.67212C117.772 1.79334 121.197 0 124.528 0C127.86 0 130.581 1.79334 131.613 4.67212L160.329 81.597C161.502 84.6645 160.564 88.4872 157.983 91.4603C155.402 94.3863 151.555 95.9437 148.177 95.4717L133.725 93.4424L158.03 158.616C159.156 161.684 158.265 165.506 155.684 168.432C153.103 171.406 149.303 172.916 145.877 172.444L125.889 169.565L152.493 241.015C152.728 241.629 152.822 242.29 152.916 242.95V244.696L0 238.231ZM217.76 147.526L227.473 148.894C229.725 149.225 232.353 148.186 234.089 146.204C235.825 144.222 236.435 141.627 235.684 139.597L216.4 87.8265C215.696 85.8915 213.866 84.7117 211.614 84.7117C209.362 84.7117 207.062 85.8915 205.561 87.8265L172.247 130.395L181.537 155.313C183.883 161.637 182.335 168.999 177.455 174.567C172.951 179.759 165.913 182.543 159.485 181.646L154.886 180.986L176.001 237.759C176.658 239.411 177.033 244.177 177.033 244.177C177.033 244.177 177.033 244.272 177.033 244.319V245.735L230.617 248C230.57 247.622 230.523 247.198 230.382 246.82L212.505 198.778L225.925 200.712C228.224 201.043 230.758 200.005 232.494 198.022C234.23 196.04 234.84 193.492 234.089 191.415L217.76 147.573V147.526Z" fill="#FFC340"/>
</svg>
