<svg width="20" height="21" viewBox="0 0 20 21" fill="none" xmlns="http://www.w3.org/2000/svg">
<path d="M19.0568 10.3672C18.9094 8.67295 18.2899 7.05399 17.2688 5.69406C16.2477 4.33413 14.8657 3.2877 13.2799 2.67355C11.694 2.0594 9.96775 1.90212 8.29702 2.21958C6.62628 2.53704 5.078 3.31651 3.82792 4.46952C2.15741 6.00225 1.12539 8.10786 0.937296 10.3672C0.918862 10.5832 0.945608 10.8008 1.01583 11.006C1.08606 11.2112 1.19823 11.3995 1.3452 11.5589C1.49217 11.7184 1.67073 11.8455 1.86951 11.9322C2.06829 12.0189 2.28294 12.0633 2.4998 12.0625H9.0623V16.125C9.0623 16.8709 9.35861 17.5863 9.88606 18.1137C10.4135 18.6412 11.1289 18.9375 11.8748 18.9375C12.6207 18.9375 13.3361 18.6412 13.8635 18.1137C14.391 17.5863 14.6873 16.8709 14.6873 16.125C14.6873 15.8763 14.5885 15.6379 14.4127 15.4621C14.2369 15.2863 13.9984 15.1875 13.7498 15.1875C13.5012 15.1875 13.2627 15.2863 13.0869 15.4621C12.9111 15.6379 12.8123 15.8763 12.8123 16.125C12.8123 16.3736 12.7135 16.6121 12.5377 16.7879C12.3619 16.9637 12.1234 17.0625 11.8748 17.0625C11.6262 17.0625 11.3877 16.9637 11.2119 16.7879C11.0361 16.6121 10.9373 16.3736 10.9373 16.125V12.0625H17.4998C17.7167 12.0633 17.9313 12.0189 18.1301 11.9322C18.3289 11.8455 18.5074 11.7184 18.6544 11.5589C18.8014 11.3995 18.9135 11.2112 18.9838 11.006C19.054 10.8008 19.0807 10.5832 19.0623 10.3672H19.0568ZM7.84433 10.1875C8.05292 7.11483 9.25683 5.22577 9.9998 4.33827C10.7435 5.22811 11.9467 7.11639 12.1553 10.1875H7.84433ZM5.10214 5.84842C5.85852 5.14999 6.75611 4.62219 7.73417 4.30077C6.9373 5.59764 6.12402 7.53748 5.96542 10.1875H2.84667C3.06539 8.52107 3.86391 6.98489 5.10214 5.84842ZM14.0342 10.1875C13.8779 7.53748 13.0623 5.59764 12.2646 4.30077C13.5502 4.72363 14.6906 5.50013 15.5552 6.54129C16.4197 7.58244 16.9735 8.84611 17.1529 10.1875H14.0342Z" fill="#58616B"/>
</svg>
