<svg width="20" height="21" viewBox="0 0 20 21" fill="none" xmlns="http://www.w3.org/2000/svg">
<path d="M10.625 7.6875H17.8125C17.8954 7.6875 17.9749 7.65458 18.0335 7.59597C18.0921 7.53737 18.125 7.45788 18.125 7.375V4.875C18.125 4.70924 18.0592 4.55027 17.9419 4.43306C17.8247 4.31585 17.6658 4.25 17.5 4.25H10.9375C10.8546 4.25 10.7751 4.28292 10.7165 4.34153C10.6579 4.40013 10.625 4.47962 10.625 4.5625V7.6875ZM14.375 12.375H17.8125C17.8954 12.375 17.9749 12.3421 18.0335 12.2835C18.0921 12.2249 18.125 12.1454 18.125 12.0625V9.25C18.125 9.16712 18.0921 9.08763 18.0335 9.02903C17.9749 8.97042 17.8954 8.9375 17.8125 8.9375H14.375V12.375ZM6.875 8.9375H13.125V12.375H6.875V8.9375ZM5.625 8.9375H2.1875C2.10462 8.9375 2.02513 8.97042 1.96653 9.02903C1.90792 9.08763 1.875 9.16712 1.875 9.25V12.0625C1.875 12.1454 1.90792 12.2249 1.96653 12.2835C2.02513 12.3421 2.10462 12.375 2.1875 12.375H5.625V8.9375ZM10.625 13.625V16.4375C10.625 16.5204 10.6579 16.5999 10.7165 16.6585C10.7751 16.7171 10.8546 16.75 10.9375 16.75H17.5C17.6658 16.75 17.8247 16.6842 17.9419 16.5669C18.0592 16.4497 18.125 16.2908 18.125 16.125V13.9375C18.125 13.8546 18.0921 13.7751 18.0335 13.7165C17.9749 13.6579 17.8954 13.625 17.8125 13.625H10.625ZM9.375 7.6875V4.5625C9.375 4.47962 9.34208 4.40013 9.28347 4.34153C9.22487 4.28292 9.14538 4.25 9.0625 4.25H2.5C2.33424 4.25 2.17527 4.31585 2.05806 4.43306C1.94085 4.55027 1.875 4.70924 1.875 4.875V7.375C1.875 7.45788 1.90792 7.53737 1.96653 7.59597C2.02513 7.65458 2.10462 7.6875 2.1875 7.6875H9.375ZM9.375 13.625H2.1875C2.10462 13.625 2.02513 13.6579 1.96653 13.7165C1.90792 13.7751 1.875 13.8546 1.875 13.9375V16.125C1.875 16.2908 1.94085 16.4497 2.05806 16.5669C2.17527 16.6842 2.33424 16.75 2.5 16.75H9.0625C9.14538 16.75 9.22487 16.7171 9.28347 16.6585C9.34208 16.5999 9.375 16.5204 9.375 16.4375V13.625Z" fill="#58616B"/>
</svg>
