<svg width="232" height="50" viewBox="0 0 232 50" fill="none" xmlns="http://www.w3.org/2000/svg">
<g clip-path="url(#clip0_2078_4456)">
<path d="M25.1295 20.6202L29.0695 15.6202L27.5195 15.8302C27.5195 15.8302 27.4495 15.8302 27.4195 15.8302C27.1995 15.8302 27.0095 15.7202 26.9195 15.5302C26.8195 15.3102 26.8695 15.0402 27.0395 14.8102L30.7795 10.0602L29.6595 10.2102C29.6595 10.2102 29.5995 10.2102 29.5595 10.2102C29.3395 10.2102 29.1495 10.1002 29.0595 9.91021C28.9595 9.69021 29.0095 9.42021 29.1795 9.19021L33.5895 3.59021C33.7495 3.38021 34.0095 3.25021 34.2495 3.25021C34.4895 3.25021 34.6895 3.38021 34.7695 3.59021L36.8695 9.19021C36.9595 9.41021 36.8895 9.69021 36.6995 9.91021C36.5095 10.1202 36.2295 10.2402 35.9795 10.2002L34.9195 10.0502L36.6995 14.8002C36.7795 15.0202 36.7195 15.3002 36.5295 15.5202C36.3395 15.7402 36.0595 15.8502 35.8095 15.8102L34.3495 15.6002L36.2995 20.8002C36.2995 20.8002 36.3195 20.8902 36.3295 20.9402C36.9195 20.9702 37.5095 21.0002 38.1095 21.0402C38.1095 20.8802 38.0895 20.7102 38.0295 20.5602L36.4795 16.4202L36.8195 16.4702C37.2895 16.5402 37.8095 16.3302 38.1395 15.9602C38.4995 15.5602 38.6095 15.0202 38.4395 14.5602L37.7595 12.7402L40.1995 9.64021C40.3095 9.50021 40.4795 9.41021 40.6395 9.41021C40.7995 9.41021 40.9395 9.50021 40.9895 9.64021L42.3995 13.4102C42.4595 13.5602 42.4095 13.7502 42.2795 13.8902C42.1495 14.0302 41.9595 14.1102 41.7995 14.0902L41.0895 13.9902L42.2895 17.1802C42.3495 17.3302 42.2995 17.5202 42.1695 17.6602C42.0395 17.8102 41.8495 17.8802 41.6895 17.8602L40.7095 17.7202L42.0195 21.2202C42.0195 21.2202 42.0295 21.2802 42.0395 21.3102C43.5795 21.4302 45.1295 21.5602 46.7095 21.7202C48.0295 19.0702 48.6895 16.0602 48.6895 12.7002C48.6895 8.91021 47.5395 5.84021 45.2295 3.49021C42.9195 1.15021 39.9695 -0.0297852 36.3695 -0.0297852C31.8795 -0.0297852 28.2395 1.65022 25.4495 5.00022C22.6595 8.35021 21.2695 12.4302 21.2695 17.2302C21.2695 18.4302 21.3795 19.5402 21.5895 20.5802C22.6895 20.5802 23.8795 20.5802 25.1495 20.5902L25.1295 20.6202Z" fill="white"/>
<path d="M170.98 42.75L169.87 43.02C169.76 42.04 169.48 41.35 169.04 40.97C168.6 40.59 168.09 40.39 167.5 40.39C166.82 40.39 166.24 40.62 165.75 41.09C165.26 41.55 164.87 42.25 164.57 43.17C164.27 44.09 164.12 44.95 164.12 45.75C164.12 46.76 164.34 47.54 164.79 48.08C165.23 48.63 165.82 48.9 166.55 48.9C167.71 48.9 168.62 48.11 169.29 46.52L170.31 46.91C169.55 48.92 168.29 49.93 166.52 49.93C165.34 49.93 164.43 49.51 163.79 48.68C163.15 47.85 162.83 46.79 162.83 45.5C162.83 43.96 163.26 42.56 164.12 41.28C164.98 40 166.1 39.37 167.46 39.37C168.34 39.37 169.11 39.64 169.77 40.17C170.43 40.7 170.83 41.56 170.97 42.74L170.98 42.75Z" fill="white"/>
<path d="M177.261 46.79H173.561L172.111 49.76H170.961L175.931 39.63H177.321L179.081 49.76H177.781L177.251 46.79H177.261ZM177.121 45.77L176.341 41.12L174.061 45.77H177.121Z" fill="white"/>
<path d="M191.051 49.76H189.821L191.381 40.46L186.521 49.76H185.591L183.781 40.61L182.241 49.76H181.211L182.911 39.63H184.781L186.441 47.93L190.761 39.63H192.761L191.061 49.76H191.051Z" fill="white"/>
<path d="M196.119 45.66L195.439 49.76H194.199L195.889 39.63H198.669C199.489 39.63 200.129 39.7 200.599 39.85C201.059 40 201.459 40.32 201.779 40.81C202.109 41.3 202.269 41.84 202.269 42.43C202.269 43.21 201.989 43.94 201.419 44.63C200.849 45.32 199.769 45.66 198.159 45.66H196.119ZM196.289 44.66H197.679C198.539 44.66 199.159 44.62 199.549 44.53C199.939 44.44 200.269 44.21 200.549 43.83C200.829 43.45 200.979 42.99 200.979 42.46C200.979 42.05 200.889 41.69 200.719 41.4C200.549 41.1 200.329 40.9 200.049 40.79C199.779 40.68 199.309 40.62 198.639 40.62L196.959 40.64L196.289 44.67V44.66Z" fill="white"/>
<path d="M210.889 41.75L209.809 42.16C209.619 41.6 209.299 41.15 208.829 40.82C208.369 40.49 207.829 40.32 207.229 40.32C206.489 40.32 205.939 40.5 205.579 40.85C205.219 41.2 205.039 41.62 205.039 42.1C205.039 42.42 205.119 42.69 205.279 42.91C205.439 43.14 205.649 43.3 205.909 43.41C206.169 43.52 206.649 43.66 207.339 43.83C208.249 44.06 208.899 44.27 209.279 44.46C209.659 44.65 209.989 44.94 210.259 45.35C210.529 45.76 210.669 46.24 210.669 46.8C210.669 47.75 210.319 48.52 209.619 49.1C208.919 49.68 207.989 49.97 206.829 49.97C204.649 49.97 203.269 49.03 202.689 47.15L203.799 46.75C204.259 48.21 205.269 48.95 206.829 48.95C207.669 48.95 208.309 48.75 208.759 48.34C209.199 47.93 209.419 47.46 209.419 46.93C209.419 46.6 209.339 46.32 209.179 46.07C209.019 45.83 208.809 45.64 208.559 45.53C208.309 45.41 207.899 45.29 207.329 45.15C206.459 44.94 205.789 44.73 205.319 44.51C204.849 44.29 204.479 43.99 204.209 43.6C203.939 43.21 203.799 42.75 203.799 42.22C203.799 41.41 204.109 40.73 204.719 40.19C205.329 39.64 206.139 39.37 207.149 39.37C209.009 39.37 210.259 40.17 210.899 41.76L210.889 41.75Z" fill="white"/>
<path d="M10.08 18.54H19.26L20.31 12.29H11.14L11.99 7.25H23.82L24.91 0.809999H4.72L0 29.04C2.85 28.6 5.69 28.2 8.52 27.84L10.08 18.54Z" fill="white"/>
<path d="M57.3494 18.56H60.7394L62.1594 24.7C64.9594 24.7 67.7394 24.72 70.5194 24.76L68.6294 17.44C72.6394 15.99 74.6494 13.21 74.6494 9.11C74.6494 6.55 73.8294 4.53 72.1894 3.04C70.5494 1.55 68.0394 0.809999 64.6394 0.809999H52.1294L48.1094 24.89C50.8494 24.82 53.5794 24.77 56.3094 24.74L57.3494 18.57V18.56ZM59.3194 6.81H62.3194C64.9194 6.81 66.2194 7.69 66.2194 9.45C66.2194 11.55 64.6694 12.6 61.5794 12.6H58.3594L59.3294 6.81H59.3194Z" fill="white"/>
<path d="M121.381 7.3H127.511L124.181 27.14C126.931 27.31 129.681 27.48 132.421 27.64L135.831 7.3H142.151L143.241 0.709999H122.501L121.471 6.83C121.521 6.96 121.581 7.09 121.621 7.22L121.391 7.29L121.381 7.3Z" fill="white"/>
<path d="M161.529 21.39L158.629 20.3C156.739 24.79 154.149 27.04 150.889 27.04C148.829 27.04 147.169 26.27 145.909 24.72C144.649 23.17 144.029 20.97 144.029 18.12C144.029 15.85 144.449 13.42 145.289 10.82C146.129 8.22 147.239 6.26 148.619 4.94C149.999 3.63 151.649 2.97 153.569 2.97C155.219 2.97 156.669 3.51 157.919 4.6C159.169 5.68 159.949 7.62 160.269 10.4L163.399 9.62C162.989 6.29 161.859 3.87 159.999 2.36C158.139 0.85 155.959 0.0900002 153.469 0.0900002C149.609 0.0900002 146.459 1.89 144.019 5.49C141.579 9.09 140.359 13.07 140.359 17.42C140.359 21.06 141.269 24.05 143.079 26.4C143.699 27.21 144.419 27.87 145.219 28.39C148.639 28.58 152.039 28.76 155.429 28.92C158.079 27.64 160.119 25.13 161.529 21.38V21.39Z" fill="white"/>
<path d="M179.869 29.45L180.369 26.41H166.149L170.429 0.809999H166.939L162.189 29.23C164.289 29.31 166.389 29.39 168.489 29.45H179.869Z" fill="white"/>
<path d="M189.87 0.809999H186.36L181.58 29.45H185.09L189.87 0.809999Z" fill="white"/>
<path d="M193.299 29.45L195.549 15.98H207.629L208.109 13.15H196.019L197.599 3.7H211.609L212.089 0.809999H194.569L189.789 29.45H193.299Z" fill="white"/>
<path d="M214.899 15.98H226.979L227.459 13.15H215.369L216.949 3.71H230.959L231.439 0.809999H213.919L209.199 29.06C210.389 28.99 211.569 28.91 212.749 28.82L214.889 15.99L214.899 15.98Z" fill="white"/>
<path d="M120.531 19.89C120.531 18.79 120.311 17.75 119.861 16.78C119.411 15.81 118.681 14.91 117.651 14.1C116.631 13.28 115.521 12.66 114.331 12.24L109.781 10.62C108.551 10.18 107.801 9.82 107.541 9.53C107.271 9.24 107.141 8.89 107.141 8.48C107.141 7.22 108.081 6.59 109.971 6.59C110.981 6.59 111.901 6.83 112.741 7.32C113.571 7.81 114.101 8.47 114.311 9.32L121.371 7.31L121.451 6.85C120.691 4.94 119.351 3.41 117.401 2.26C115.251 0.99 112.661 0.35 109.641 0.35C105.681 0.35 102.741 1.26 100.821 3.07C98.9009 4.88 97.9309 7.09 97.9309 9.71C97.9309 11.22 98.2809 12.53 98.9909 13.65C99.7009 14.77 100.581 15.61 101.641 16.18C102.701 16.75 104.541 17.51 107.171 18.48C109.111 19.2 110.201 19.61 110.431 19.73C110.661 19.85 110.881 20.04 111.081 20.31C111.281 20.58 111.381 20.88 111.381 21.23C111.381 21.78 111.121 22.26 110.591 22.69C110.071 23.12 109.221 23.33 108.041 23.33C105.231 23.33 103.471 22.32 102.761 20.3L95.6609 22.87H82.8609L83.7009 17.79H94.0009L95.0509 11.58H84.7309L85.4709 7.09H97.7609L98.8109 0.82H78.2209L74.2109 24.85C88.8509 25.15 103.271 25.92 117.461 26.77C119.501 24.93 120.531 22.65 120.531 19.91V19.89Z" fill="white"/>
<path d="M121.611 7.24C121.561 7.11 121.511 6.98 121.461 6.85L121.381 7.31L121.611 7.24Z" fill="white"/>
<path d="M24.3699 26.1799C31.0299 25.6699 38.0799 25.2999 44.5599 25.0499C45.0199 24.4799 45.4499 23.8799 45.8299 23.2699C42.7199 23.0399 34.9199 22.6599 22.4199 23.2899C22.9099 24.3799 23.5699 25.3399 24.3699 26.1799Z" fill="white"/>
</g>
<defs>
<clipPath id="clip0_2078_4456">
<rect width="231.45" height="49.97" fill="white"/>
</clipPath>
</defs>
</svg>
