<?xml version="1.0" encoding="UTF-8"?>
<svg id="Layer_1" data-name="Layer 1" xmlns="http://www.w3.org/2000/svg" version="1.1" viewBox="0 0 1920 281">
  <defs>
    <style>
      .cls-1 {
        fill: #fff;
        stroke-width: 0px;
      }
    </style>
  </defs>
  <path class="cls-1" d="M1584,136.3c1.7,0-.6,1.4.9,1.7.1-.5.6-.7.5-1.5-.2-.2-1.3-1.1-1.4-.2h0ZM1574.5,159.5c3.2.9,4.5-1.7,4.4-5,0-1.1,0-2.5-.8-3.6-1.8-2.6-7.9-3.4-8.6.3-.3,1.6,3.3,7.9,5,8.3ZM1572.3,152.3c-.2,0-.5,0-.7,0,0-.3,0-.5,0-.8.2,0,.5,0,.7,0,0,.3,0,.5,0,.8ZM1575.9,130.4c.4.1.6,0,.7-.3,4.6.2,4.2,6.9.7,7.9-2.1-.9-2.5-5-1.5-7.6ZM1545.2,229c-2.2-1.2-6.6-7.5-7-10.5-.3-2.5,1-4.6,1.8-8,.8-3.6.5-6.3,2.1-8,1.6-1.7,6.6-2.7,9.7.2.9.8,1.2,3.5,2.1,4.9,2.2,3.3,5.1,3.5,5.7,8.4.5,4.3-1.3,6.5-3.7,9.4-2.2,2.7-5.4,6.4-10.7,3.6h0ZM1532,141.1c.3-1.3,1.1-2,2.6-1.7.9,1.5-.4,3-1.4,3.4-.6-.4-1-1-1.3-1.7ZM1525.4,183.8c.7-.6,2.7-1,3.6,0,0,1.7-.5,2.5-1.3,3-1.5-.3-2.3-1.3-2.3-3ZM1515.3,111c4.9-1.8,4.5,4.1,2.6,6.9-2.6-.6-4-4-2.6-6.9ZM1512.8,135.3c-.2,0-.5,0-.7,0,0-.3,0-.5,0-.8.2,0,.5,0,.7,0,0,.3,0,.5,0,.8ZM1495.2,210.7c-2.3,0-2.9,2.7-4.5,2.6-2.4-.1-1.8-1.8-2.8-4.6-.6-1.6-2.5-3.3-.9-5.9,4.9-.6,9.2,1.4,8.3,7.9ZM1493.2,150.8c.4-.4,1.3-.3,2.2-.2,0,.4,0,.7.3.8,0,2.2-3.1,1.6-2.5-.6ZM1431,231v-.5s-.3-.3-.3-.3c.3-.8-.6-.6-.6-1.2,0-.9.7-1.1.6-2.3,2.5-.3,1.8,4,.3,4.3ZM1428.9,227.3c.2-.7.7-.8,1.5-.6-.1.7-.7.8-1.5.6ZM1430,106.9c.5,2.8,3.8,3.2,3.3,7-1.8.6-4.1-1.1-5.4.6-4.3-1.3-3.1-8.7,2.1-7.6ZM1419.4,208.8c.6,0,1.2.1,1.8.2.5.7.6,1.8,1.2,2.5-.4,1.4-1.1.1-2.2.2,1.3-1.7-.8-1.4-.8-2.8h0ZM1426.7,66.4c-.2.9.6.9.2,2-1.3,0-1.9-2.3-.2-2ZM1423.6,64.9c.3-2.2,2.3-1.3,1.7,1-1.4.4-.6-1.1-1.7-1ZM1416.5,76.6c-1.1-1.4-3.5-1.6-2.8-4.6,1.6-.7,5.7-1.3,5.1,3.3-.8.3-1.6.7-2.3,1.3h0ZM1404.2,227c0,.3,0,.5,0,.8-.2,0-.5,0-.7,0,0-.2,0-.5,0-.8.2,0,.5,0,.7,0h0ZM1411.8,64c0,.6-.4.6-.4,1.1-.7,0-.4-1.8.4-1.1ZM1405.6,78.6c1.1,0,1.1.9.9,2-.6-.4-1.2-.8-.9-2ZM1391.9,236.7c0-.3,0-.5,0-.8.6,0,.6.4,1,.5-.3.8-.6.8-1.1.3h0ZM1391.5,232.4c-1.1-.2-2.1-.5-2-1.8,1.5-.1,2.2.4,2,1.8ZM1398.8,114.6c-3.6,6.8-9.1,6.4-12.9.2-1-1.6-2.7-5.7-2.7-6.1.5-7.4,19.6-6.7,17,2.1-.3,1.2-.8,1.4-2.3,2.1-.2,1,1.4.5.9,1.7h0ZM1379.4,244.4c1.7-.5,4.5.9,5.2,2.1.6,1,.4,2.6.3,4.7-.2,2.4.3,2.4-.7,3.4-1.6,1.6-5,.6-6-.6-2-2.4-1-9,1.2-9.6h0ZM1392.8,151.4c.7,0,.4,1.8-.4,1.1,0-.3,0-.5,0-.8.3.1.3-.1.4-.3ZM1389.5,74.2c-2.3,0-.9-2.5-1.4-4.4-.8-2.8-2.9-5,.2-6.6,5.5-2.7,10.9,7.3,5.9,10.4-1,.6-2.8.2-4.7.7h0ZM1388,157.1c0-.3,0-.5,0-.8.2,0,.5,0,.7,0,0,.3,0,.5,0,.8-.2,0-.5,0-.7,0ZM1508,294.3c.5-1.4-1.3-.7-.9-2,1.6.4,2.4,1.7,3.4,2.7-.7,2-.9,3.8-.9,5.8-1.7,0-3.1.3-4.7.3,0-1.6-1.9-1.4-1.5-3.3,1.7.6,1.8,2,3.8,1.2-.9-1.4-1-2.4-2.6-2.6-.2-1.7.9-1.7,1.3-2.6.9.2-.5.6-.1,1.5,1.2.3,1-1.3,2.2-.9h0ZM1423.1,79.6c1,.2,1.4,1.6,2.5.6v.4s0,.4,0,.4c-.2,1.5-.7,2.5-2,2.5v-.4s-.3,0-.3,0c1.2-1.1-1-2.7,0-3.5ZM1418,208.2c-.4,1.1-.9-.5-1.4-.5.2-.9.9.5,1.4.5ZM1372.2,211.3c.6,1.8,3.2,4.7,3.8,6.2.1,0,.2,0,.3,0-.3,1.2-.3,2.7-.2,4.2,1.6,1,2.8.7,3.8-.8-.4-1.1-.7-2.2-1.3-3.1.2,0,.4,0,.6,0,.5,3.9,4.4,4.8,5.4,8.3,2.4.2,3.1,2,4.8,2.8.9-2.9,5.5-3.9,5.7.2,4.1.7,7.6,2,8.1,5.9,3.6.8,6.3,2,8.6-.3.5-1.1.6-2.7,1-3.8,3.1-.1,3.2-3.1,4.8-5.4,1.6-2.3,3.5-2.2,3.9-3.9,1.7-6.8-4.8-9.6-11-9.7-.9-.8-1.4-1.8-1.9-2.9-1-.4-1.1.6-2.2.2-2.5-4.4-6.8-4.1-11.4-4.3-6.9-.3-11.6-5.2-15.7-9-1.2,2.5-4.7,2.3-6,2.5-1.4,1.2-2.4,8.8-1.1,12.8h0ZM1414.1,223.4c1,.6-.2,1.7-1.2,1,.1-.7,1.2-.2,1.2-1ZM1395.9,226.6c-.1-1.5,1.6-1.1,1.4.2-.5,0-1-.1-1.4-.2ZM1406.8,224.6c0-.7-.9-.8-.5-2,.8.2,1.2-.2,1.2-1,.9,1.9,3.5,1.7,4.8,2.4-1.1,2.6-2.6-.3-3.7,1.6-1-.4-.3-.6-.2-1.6-.7,0-.6,1-1.5.6h0ZM1403.3,224.2c.6,0,1.2.1,1.8.2-.3,3.3.9,3.7-.8,5,0,.5.9.4,1.4.5-2.5,2.4-4.1-1-4.7-3.2,1.3-.1,2.3-.8,2.4-2.5ZM1400.6,218.9c.5.4.4,1.3.5,2-.3-.7-1.3-1.4-.5-2ZM1399.1,223.8c0-.9,1.1-.3,1.2-1,.1,1.4,0,2.1.4,3.9-1.5,0-.1-2.7-1.5-2.9h0ZM1399,220.3c-.4,1.1-.6.4-1.5.2.2-.9,1-.8,1.5-.2ZM1396.8,221.2c0,.9-.2,1.5-.5,1.9,0,1,1.2.2,1.1-.3,1.2.7-.9.5-.5,1.5-.5-.5-1.4-.6-1.7-1.3.4-.7.6-1.7,1.6-1.8ZM1395,220.6c0-.2,0-.5,0-.8.3.1.3-.1.4-.3.7,0,.4,1.8-.4,1.1h0ZM1384.9,221.6c-.8-.4-.8-2.5,0-3.1.7.5,1.1,1.4,2,1.8.2,1.6-2,0-1.9,1.4ZM1384.6,212.6c.4-.9.9-1.7,1.9-1.8,0,1.4-.5,2.2-1.9,1.8ZM1393.1,218.1c-.9-.6-1-1.4-.5-2.4,1.2.6,0,1.3.5,2.4ZM1391.8,212.6c-.9-.5.9-3.3.9-2.6h.4s0,.4,0,.4c.2,0,.4,0,.4-.3.4,0,.4.3.7.5,0,.4-.3.4-.4.7-.4,0-.4-.4-.7-.5v.4s-.4,0-.4,0c0,.8-1,.4-.8,1.5h0ZM1391,209.7c-.1,1-.2,2-1.2,1.8.6-.6-.3-1.8,1.2-1.8ZM1390.5,219c.1.9-.7.5-.8,1.1-.4-.1-.2-.8-.6-.8.1-.5.9-.2,1.5-.2ZM1389.3,220.8c-.2.5-.7.6-.8,1.1-.9-.2.1-1.5.8-1.1ZM1388.1,209.8c0,.9-.4,1.2-1.2,1,0-.9.4-1.2,1.2-1ZM1381.6,206.4c1.2-2.5,3.1.7,4.1-1.9.7.4,2.1.2,1.6,1.7-2.3-.3-2.9,1.7-4.2,2.7-.9-.1,0-1.3.4-1.1,0-.8-1,.5-1.4-.5.3-1.4.7-.9-.6-.8h0ZM1379.7,212c.7-1.2-1.5-2,.2-1.9,0,.3,0,.5,0,.8,1.5,0,1-2.4,2.7-2.1-1.1.9-1.4,2.8-2.8,3.2h0ZM1476.5,224c.6,0,1.2.1,1.8.3.2-1,.4-1.9,1-2,1.9-.2,2.8,2,2.7,4.5,1.8,2,2.8,4.8,1.6,6.8-.5.9-2.6,1.8-4.1,1.5-.9-.2-1.7-1-2.2-2-1.8-1.1-1.3-3.2-2-5.7-4.6.8-5.7-3.4-3.7-6.4,2.1.5,2.9,2.9,3.5,5.6.4-.2.7,0,.9.2,0-1.1.3-2.1.6-2.9h0ZM1486.7,156c-.2-.4-.6-.6-1-.9,0-1.5.5-2.2,1-3,3.5-.6,2.5,4.4,0,3.9h0ZM1474.1,205.8c1.7,1.8.8,5.3,0,8.2-5.8,2.1-7.6-10.9,0-8.2ZM1477,151.5c.6,0,1.2.1,1.8.2,0,.8-.3,1-.5,1.5-1.1,0-1.6-.5-1.3-1.7ZM1475.5,181.4c-3.1-1.2-7.6-2.7-6.3-6.5.8-2.3,5.1-2.1,6,1-1.7,2.8,1.7,3.2.2,5.5h0ZM1457.5,235.7c3.7,3.6,6.4-3.1,3.7-5.9l-.4.2-.3-.2c-.1.7-1.2.2-1.2,1,.6,0,.8,0,.9.2-.6-.3-1.2-.2-1.5,0,0,0,0-.2,0-.4-1.8.5-1.3-.8-2.8-.3l-.4.2-.3-.2c.2,1.7.6,3.3,1.4,4.4l.4-.2.3.2c0-.4.3-.4.4-.7.4,0,.4.4.7.5-.1.3-.3.4-.7.3v.4c.1,0,0,.4,0,.4h0ZM1459.6,233.4c.2,0,.3,0,.6,0,0-.6.6-.9.6-1.5.1,0,.2,0,.3-.2-.9,1,.5,1.9-.2,2.3-.9.2-1.1-.2-1.2-.7h0ZM1457.5,231.8c0-.5.5-.3.9-.3-.3.5-.3,1.2.2,1.6-.6,0-1.3-.7-1.1-1.3ZM1444.9,237.1c-1.2,1.2,1.2,1.3,0,0h0ZM1444.6,236.3c-.3.3-.4.8-.5,1.5-.6,0-1.2-.1-1.8-.2.3-1.7-.8-2.1-1.5-2.9.7-.4,2.9.9,3.8,1.6ZM307.6,92.1c-.9,6.8-2.5,13.4-4.5,16.8-2.8-3.6-2.2-9.7-1.7-13.7,1.1-8.6,3.1-17.8,5.5-26.3-2.8-.2-1.4-10.6,2.7-7.1,2.8,2.4-1.1,6.1-1.8,9.6-1,5.1.7,13.5-.3,20.8h0ZM278,138.4c-1.6-1.5-1.8-3-1.5-4.6,1.6,1.4,1.8,3,1.5,4.6ZM230.9,197.2c1.9-3.4,2.1.2,0,0h0ZM283,149.7c-1.9-1.6-3.3-3.2-2.7-5l.6-.2.2-.7c1.7,1.9,2.3,3.9,2,5.9h0ZM236.3,200.7c-.6-.4-1.6,0-1.3-1.2.6.4,1.6,0,1.3,1.2ZM359.5,60.6c-1-.9-2-1.9-3-2.8.9-9.4,11.6.4,3,2.8ZM297.8,131.3c1.2.9,1.7,1.9.6,3-1.1-.9-.8-1.9-.6-3ZM302.8,128.7c-.6,1.1.4,2-.2,3.1-1.1-.7-1.2-3.6.2-3.1ZM370.8,56.7c0-3.3,2.2.2,0,0h0ZM305.1,141.5c.4-.6,0-1.1.7-1.8,1.6.3,0,2.7-.7,1.8ZM300.9,156.1c0-1.6-1.3-3.1.9-4.8,2.1,1.4.9,5.9-.9,4.8ZM340,109.1c.4-1-.3-4,1.4-3.6-.5,1,.8,3.9-1.4,3.6ZM380.5,66.8c-1.4-2.9-.3-6,.6-9.1,3.7,2.6,2.1,7.5-.6,9.1ZM339.8,112.1c0-3.3,2.2.2,0,0h0ZM340.8,116.4c0-3.3,2.2.2,0,0h0ZM307,164.3c1.3,1.2.2,2.6-.9,4-1.1-1.3-.2-3.8.9-4ZM353.8,120.6c-1.2-5.2-.2-10.6,1.8-16.1,3.1.6.7,4.9.5,7.7-.2,2.8,1.2,5.9-2.3,8.4ZM333.7,134.6c-.4-.4-.8-.8-1.3-1.2.7-1.1,1.5-1.6,2.3-1-.4.7,0,1.4-1,2.2ZM310.7,166.1c.8,1.2,1.5,2.5.6,3.9-1.9-1.2-1.6-2.5-.6-3.9ZM304.6,176.6c1.1.8,1.6,1.6,1.7,2.5-1,1.1-2,1.2-3.2.2,1-1,0-1.7,1.4-2.7h0ZM327.8,161.4c-2-2.9-1-8.3,1.3-10-.6,3.4,2,6.5-1.3,10ZM338.6,147l-.6-.2c.1-3.8.6-9.7,5.6-12.5,3.3,4.8-2.9,7.9-4.7,13.3l-.2-.6ZM330.1,159.5c.7-.8-.9-3.6,1-3.1-.7.8.9,3.6-1,3.1ZM344.1,142.9c1.1,1.4,1.2,2.8.3,4.3-2.5.2-2.8-4.2-.3-4.3ZM390.3,108.3c-2.5-4,.7-12.3,6.1-16l.2.6.6.2c-.3,5.6-4.4,10.3-7,15.2ZM430,95c-1.7,3-4,8.1-7.9,7.1,6.2-14,13.6-28.1,21.9-42.2l.2.6.6.2c-.3,6-4.1,11.4-7.6,17.8-2.9,5.3-4.6,11.8-7.3,16.5h0ZM377,129.6c.1-1.7,1.1-3.5,2.8-5.4,1.3,2-.8,5.4-2.8,5.4ZM434.8,120.5c-2.7-1.5-3.2-6.6-1-9.9,3.1,1.4,4,6.5,1,9.9ZM216.7,202l-.6-.2c-.5-1.1.4-3.4,1.8-2.3-.5,1,.5,2-1,3.1l-.2-.6h0ZM223.7,209c-1,2.6.2-.6.5-1.3,0,.2-.2.6-.5,1.3ZM310.4,149.8c-.6.8-1.2,1.3-1.9,1.4l-.2-.6-.6-.2c-.7-1.8.1-3.2,1.8-3.2,1.4.7.1,1.7,1,2.5h0ZM294.7,171.3c-1.5,3.8,1.8-4.8,0,0h0ZM987,248.1c.4,1.1-.7.8-1.3,1.2-.3-1.1.7-.8,1.3-1.2ZM1052.5,297.5c-2.2-1.8-.9-3.2-.9-4.8,1.7-1,3,3.5.9,4.8ZM1055.4,190.6c2.4.8,3.6,4.7.8,6.5-.9-1.1-1.7-2.2-2.6-3.2.7-1.1.3-2.3,1.8-3.3h0ZM1021.4,150.1c1.1,1.1,1.4,2.1.2,3-1.1-1.1-2-2.2-.2-3ZM1096.3,214c0-2.9,2.5,0,0,0h0ZM1062.2,170.4c-.8-2.7,5.7-3.9,0,0h0ZM1099.6,212.5c-.2-.3-.5-.6-.7-.9.4-.4.8-.8,1.3-1.2.4.5.7.9,1.1,1.4-.6.8-1.1.3-1.6.7ZM1044.1,136.6c0,2,1.2,4.1-.4,6-2-2-2.2-3.9-.8-5.7h.7c0,0,.6-.3.6-.3h0ZM1070.9,171c-3.5,1.4-.2,2.8,0,0h0ZM1077.1,179.7c-.9-2.1,3.6-5,5-3.1-.9,2.5-3.1,3.1-5,3.1ZM1064.9,158.9c-1.9.5,1.5-2.1,2.2-2.9,1.9-.5-1.5,2.1-2.2,2.9ZM1044,125.4c.3.7-.2,1.4.3,2.2-1.2.8-1.5-1.8-.3-2.2ZM1074.7,148c.4,1.6-2.5,5.3-3.9,5.3l-.4-.5-.4.4c0-2.4,2.7-4.1,4.7-5.3ZM1097.9,182.6c-.9,0-1.9,1-2.8,1.1-1.5-1.8-1.3-3.6-.5-5.2,1.6,2.4,1.4,2.1,3.3,4.1ZM1104.2,190.4c.4.7-.7,1.4-1.3,2.1-1.6-1.8.7-1.1,1.3-2.1ZM1065.2,142.5c-2.4.2,1.3-3.2,0,0h0ZM1117.3,203c.9,1.2.8,2.4-.2,3.4-.9-1.2-.8-2.4.2-3.4ZM1105.5,182.7c.2,2.3.9,2.6-1.4,2.9-1.7-1.1.7-2,1.4-2.9ZM1101.3,179.4c.2.3.5.6.7.9-.3.3-.6.5-.9.8-.2-.3-.5-.6-.7-.9.3-.3.6-.5.9-.8ZM1101.2,171.8l-.2.6c-.6-.9-1.3-.5-1.9-1.4,1.1-1.3,2.2-1.9,3.3-1.5v.7c.1,0,.7.3.7.3-.4.4-.8.8-1.3,1.2l-.6.2h0ZM1104.3,169.2l-.2-.6-.6-.3c.1-2.9,1.3-5.6,3.7-8.3,2.5.6,5.6,1.3,6.8,4.8-1,5.3-5.6,8.5-9.8,4.4h0ZM1102.9,173.9c.7,3.4,2.8.3,0,0h0ZM1116.9,184c-1.5-2.3-1.5-6.3,1.2-6.8,1.4,2.4.2,4.6-1.2,6.8ZM1100.9,148.3c-.4-1.3.1-2.6,1.4-3.8.9,1.2.8,2.4-.2,3.4h-.7c0,0-.6.3-.6.3ZM1125.7,188.6c-1.8-1.4-.3-2.6-.9-4,5.1-4.8,3.8-14.2,9.4-16.1-.2,6.9-4.4,13.5-8.4,20.1h0ZM1139.4,178.8c-2.7,0,0-2.8,0,0h0ZM1157.5,191l-.6.4c0-4-1-8.1,1.6-12,1.6,4,.7,7.8-.3,11.6h-.7c0,0,0,0,0,0ZM1135.6,163.8c-1.7-1-3.3-2.4-5-2.5-.3-4.3,3.6-8.6,7.6-7.2,2.8,3.9,2,7.4-2.6,9.7ZM1191.5,121.4c-4,7.2-6.3,16.2-12.9,21.9-.4-.5-.7-.9-1.1-1.4,3.5-7.2,7.8-14.4,13.3-21.5l.2.7.6.2h0ZM1195.5,114.3l-.2-.7-.6-.2c.7-2.4,1.6-6.6,4.4-7.4,2,3-1.6,5.6-3.7,8.4h0ZM1251.3,191.5c-.3.3-.6.5-.8.8-.2-.3-.5-.6-.7-.9.3-.3.6-.5.9-.8.2.3.5.6.7.9h0ZM1211.7,122.5c1.6,2.3-2.3,4.1-4,6.2-1.1-2,1.8-5.9,4-6.2ZM1200.1,117.3c.2-3.7,6.9-9.3,9.5-11.4-.7,3.9-5.8,10.3-9.5,11.4ZM1278.9,195.3c-10.3-5.3-.2-19.9,7.3-20.6,7.2-.7,13,10.2,6.9,16.9-2.7,2.9-11.8,4.9-14.1,3.7h0ZM1163.4,45.4c.5,1.2-2.3,2.9-3,2.8-1.7-1.4,1.5-2.5,2.2-3.7v.6c.1,0,.7.3.7.3h0ZM1169.4,38.1l-.8-.8-1.1.2c-.2-1.6,2.8-3,3.9-4.5h.7c0,0,.6-.3.6-.3.7,1.8.6,3.5-.3,5.2l-.4-.5-.4.4c-.2-.3-.5-.6-.7-.9-.4.4-.8.8-1.3,1.2h0ZM1178.5,23l-.6-.3c-.9-.9,1.3-1.6,1.8-2.5,1.1,1.2,0,2.3-1,3.4l-.2-.6h0ZM1287,158.6l-.6-.2c1.5-1.4,3.1-3.6,4.5-1.8-2.1,1.4-1.8,3.5-3.8,2.7l-.2-.7ZM1223.3,76.7c-.5-.6-1-1.2-1.5-1.8.6-.5,1.1-1.1,1.7-1.6.9,1.2.8,2.4-.2,3.5ZM1243.9,77.4c-.6,2.2-2.2,3.3-3.8,4.5-1.6-2,1.6-3.6,3.1-5.4v.7c.1,0,.7.3.7.3h0ZM1216.8,48.1c-2.6-2.4,1-5.4,3.2-6.2,1.3,2.4-.7,5.4-3.2,6.2ZM1299.9,1.7c-.2-.3-.5-.6-.7-.9.3-.3.6-.5.9-.8.2.3.5.6.7.9-.3.3-.6.5-.9.8ZM1373.1,72.9c-.2-.3-.5-.6-.7-.9.3-.3.6-.5.9-.8.2.3.5.6.7.9-.3.3-.6.5-.9.8ZM1066.8,148.3c-.4-2.1,2.8-6.1,4.4-6.6,1.3,2.4-2.3,4.4-3.6,6.6l-.4-.5-.4.4ZM1243,201.1l-.6-.3c2.5-2.1,5.1-6,7.3-2.9-2.3,2.4-4.4,3.1-6.6,3.8l-.2-.7h0ZM1243.6,207c.2-1.6,2.8-2.6,4.1-1.4-.7,1.1-1.9,3.7-3.3,2.3l-.2-.7-.6-.3h0ZM975,241.2c0-.2-.2-.6-.5-1.4-1-2.7.3.7.5,1.4ZM1045.5,277.5c-1.5-3.8,1.8,4.8,0,0h0ZM1055.6,142.7c0,1.3-.5,2.6-1.4,3.8,0-1.3.5-2.6,1.4-3.8ZM1097.4,178.2c-1.8-3-4.5-1-1.4-3.6l.6-.2.2-.6c1,1.5,1.2,3,.5,4.4h0ZM1094.7,171.1c-.7-1.5-1.6,0-2.4-.2-3.8-4.1,1.1-7.3,4.1-8.7,1.6,1.4,1.7,2.7,1.7,4-.7,0-1.3.4-2,1.1.3.3.5.6.7.9l-.6.2-.2.6c-.8.7-.4,1.4-1.3,2.1h0ZM2077.8,319.9c-.3-2.1-1-4.3,1-4.9,2.3,1.7,2.7,6.7-1,4.9ZM2058.2,313.6c-.2-2.3,1.8-3.3,3.8-4.3,5,1.8,0,6.5-3.8,4.3ZM2075.6,305c-10.3-4.2-1.3,12.2,0,0h0ZM1924.2,334c1.7-1.2,5-1.9,6.2-.2v.2h-6.2ZM2054.3,299c-.1-2.2,2.9-2.4,5-3.2,5.1,2.8-2.6,7-5,3.2ZM2006.9,295c.7,1.5-1.9,1-2.8,1.5-.9-1.4,2.1-2.2,2.8-1.5ZM2055.3,250.9c2.8.7,3.2,5.1,4.9,7.5-2.8,3.8-5.6-1-8.8-1.5,0-2.8,3.5-3.4,3.9-6ZM2039.6,251.9c-2.4-3.3-5.6-5.4-7.5-9.5,1-.4,1.4-1,2.8-1.1,1.6,2.9,3.8,4.9,6.7,5.8-2.2,4,4.1,7.5-.4,9.5-1.2-.4-2.1-3.5-1.6-4.8h0ZM2013.4,245.7c-1.8-.4-3.4-1-5.2-1.4-.3-1.6-1.9-3-1.1-4.5,3.3-.8,3.3,3.4,6.4,2.9.3,1.2,0,2.1-.2,3h0ZM2024.2,222.3c-2.6,2.9-8.8,9.6-11.2,2.9.5-3.3,8.9-5.7,11.2-2.9ZM1939.2,222c1.5-.4,2.3,0,2.6,1.6-1,0-.7,1-2,.9-.7-.4-1-1.8-.6-2.4ZM2013.4,191.8c.7,1.8-.3,2.6-.4,3.9-1.8-.3-3.5-.9-4.2-2.9,1.1-.6,1.4-1.7,3.1-2,.4.6.9.9,1.6,1h0ZM1530,294.8c2.1-.2,3.4,4,2.2,5.5-2.3.6-3.2-4.3-2.2-5.5ZM1581.6,275.7c.7-.2,1,.3,1.8,0,1,1.2,1.6,3.5.1,4.3-1.4-.3-2.2-1.3-3.2-2.3.2-.8.6-1.5,1.3-2h0ZM1517.6,287.3c.1.5.3,1.1.4,1.6-1.5.7-2.1-1.6-.4-1.6ZM1864.9,203c0,.3.1.6.2.8-.4,0-.4.2-.3.5-.8.3-1-1.7.1-1.3ZM1867.6,177.1c2-2.1,4-2.4,6.4-2.7,2.5-.3,4.3,1,6.4,1.1,3.2.1,6.1-2,8.8-.2,2.3,3.9-2.3,6.4-2.5,10-1.5.5-2.4,0-3.5,0-2-7.6-11-4.4-15.6-8.1ZM1623.7,239c.7-1,1.4-1.7,2.8-1.5,1,2.8-1.6,2.2-2.8,1.5ZM1809.4,194.3c0-.3-.1-.6-.2-.8,1.9-.9,1.3,2,.2.8ZM1864.3,174.4c-8.4-3.1-1.9,7.6,0,0h0ZM1477.7,249.2c.8,1.9,0,2.7.6,4.6-2.7,2.4-5.5,4.8-8,7.3-.7.2-.8-.2-1.4-.1-1.8-4.7-6.6-4.6-10-6.8-.1-5,9.5-4.1,11.8-2.6,2.2-1.5,3.9-4.2,6.9-2.4h0ZM1439.6,261.9c0-.3-.1-.6-.2-.8,1.9-.9,1.3,2,.2.8ZM1457.6,246.8c.5-2.3,6.7-2.8,9.1-2.9.6,1.3.2,1.9.3,2.9-3.2-.8-7.3,2.8-9.3,0h0ZM1455.8,244.6c-.8,1.1-2.8.6-3.2-.6.9-1.3,2.9-1.8,3.2.6ZM1447.1,241.4c.1.4.2.8.3,1.2-.7.3-.8-.2-1.4-.1,0-.3.3-.5.2-.9.3,0,.6-.1.8-.2ZM1326.5,269.5c-1.5.7-1.9-1.5-1.4-2.2,1.1-.2,1.2,1.2,1.4,2.2ZM1322.1,265.8c0,.3.1.6.2.8-.4,0-.8.2-1.3.3,0-.3-.1-.5-.2-.8.4,0,.8-.2,1.3-.3ZM1709.4,167.8c-1.5-.3-5.9-3.2-6.3-4.2-1.3-3.3,3.1-7.9,8.6-6.6,3,6.8,10.5,6.8,14.1,12.7-1.3-.3-2.3.6-3.9.4-2.6-.2-5.6-2.6-8.2-2.9-1.3-.2-3.1.8-4.3.5h0ZM1985.3,110.4c-.4.7-1.3,1.1-2.3,1.4-.1-.4-.2-.8-.3-1.2,1.2-.6,1.4.4,2.6-.2h0ZM1320.4,251.6c3.4-2.8,10-3.4,14.3-3.2,0,1.8-.5,4.2-1.9,5.1-4.4,2.9-10.1.5-12.4-1.9h0ZM1973.8,108.6c.8-1.2,2.5-.6,3.5-.3.4,2.3-3.2,3.6-3.5.3ZM1354.1,248.4c0-.3-.1-.6-.2-.8,1.1-.6,1.2.3,2.2,0,0,.5-1.5,1.8-2,.9ZM1388.2,237.4c-1.7,1-6.3,6.5-6.8,1.1-1-2-4.3-.4-5.1-2.7,2-4.4,10.2-1.6,11.9,1.6ZM1432,224.3c-.8.4-1.2,0-1.8,0,0-.6.6-.8.6-1.4.7,0,1.1.5,1.2,1.4h0ZM1946.3,104.5c.6-2,4.8-2.6,6.3-1.4.3,3.1-5.5,4.5-6.3,1.4ZM1738.6,151c1.2-.6.7-.5,2.1-.5.4.9.3,1.6,0,2.1-1.2.2-2.1,0-2.2-1.7ZM2027.7,86.4c.4-.6,1.4-.9,2.1-.5.6,1-.6,1-.4,1.8-.7-.2-1.5-.3-1.6-1.3h0ZM1942,101.6c.5,1.6-.3,2.4-2,2.6-2.3-1.3,0-4,2-2.6ZM2016.5,85.5c.5-.8,2.2-1.1,2.3.3-.5.8-2.2,1.1-2.3-.3ZM1712.6,151.7c-1.3-1.7-3.2-2.4-4.5-4.1,3.4-6.2,15.7,3.6,4.5,4.1ZM1930.1,99.5c-4,3.7-11.3-4.1-6.7-5.8.9-.3,6.3,2.1,6.9,3.2.8,1.1.5,1.9-.3,2.6h0ZM1363.6,221c.3-1.2,1.1-2.1,3-2.4,1.3.6,1.2,1.6.7,2.8-1.6.5-2.4-.4-3.7-.5ZM2043.2,65.9c-.2-3,3.8-3.9,5.4-1.6.1,3-3.8,3.9-5.4,1.6ZM1356.4,218.8c-.1-1.6,2.7-2.2,3.7-1.2,0,2.2-2.3,2.2-3.7,1.2ZM1476.7,191.2c.2.6.3,1.1-.1,1.3-1.7,1.9-2.5-2.4.1-1.3ZM2099.9,53.3c.3-1.9,2.7-2.6,4.1-1.3.4,1.8-3.3,2.2-4.1,1.3ZM1417.7,194.4c-.5-.2-1-.4-1.4-.9-.5,2.2,2.5,3.1,3.4,4.8h.8c.9,1.1,1.7,2.2,2.4,3.4,1.7,0,1.5,0,3.2.3.1,3.3,3.2,4,2.1,8.4.8,1.1,2.5,1.4,2.2,3.4,1.6,1.1,3.2,0,3.4,2.3,1.9-1.6,4.9.9,6.2-1.3,1.1.4,1.7,1.3,3.1,1.5.6-2.2,1.9-3.5,3.3-4.7.8.8,2.3,1,2.7,2.2-.5,3.9,1.7,6.8,4.5,6.3,3.4-.6,4.2-8.4.5-9.7-1.1-.4-1.4.5-2.8-.3-.1-2.3,1.6-2.2,2.4-3.3-.3-10.4,7.6-5.4,9-.6,0-1,.6-1.2,1.5-1,1,.6-1.1,1.9.5,2,5.3-.7-3-6-3.1-9.7,3.1-2.4,1.5-9,3.9-11.7-2.3-2.7-1.2-6.2-2-9.6-.6-2.7-2.2-5.3-3.2-8.5-1-3.1-1.7-7.1-3.6-8.6-3.8-2.8-7.6,0-10.1.9-3.2,1.2-5.8,3.8-8.5,3.4-.9,5.1-3.5,7.7-7.6,8.6,2.1,5.5-1.9,16-8.8,14.7-2,2.1-3.9,3.9-3.9,7.7h0ZM1454.3,198.3c-.4-.2-.7-.6-.6-1.2.4.2.7.6.6,1.2ZM1439,193.6c.5-2.8,0-3.1,1.9-4.9.7.3,0,1.8.9,2l.4-.2.3.2c0-.4,0-.8.1-1.2.6,1.6,1.8.7,2.7,2.2-.4,1.1-1.1-.3-1.8-.2v.4c.1,0,0,.4,0,.4,0,.4,0,.8-.1,1.2-.6,0-1.2-.2-1.1.7,1.4-1-.2,1,.1,2.4-.7-.2-.6-1.2-1.7-1,.4-1.2.3-.7.2-1.9-.5.5-1.3.4-1.8-.2h0ZM1431.8,189.7c.3-1.7,2-.3,2.6-.9.9,1-1.6,1-2.6.9ZM1435.4,193.6c-.4,0-.7,0-1.1-.1-.2-1.3.7-1.1.9-1.9h-.4s0-.4,0-.4c-1.7,0,.6-1.5.4,0l.2-.2v.2c.6.6-.5.8,0,2.3ZM1431.2,188.1c.5-.8,1.1-1.5,1-3,.6.2.7-.3,1.1-.3,1,.4-1.1.2-.5,1.5.3-.3.8-.3,1.5-.2-1.5-1.9,2.9-1.7.9-2.6.5-.7,2.2.4,1.6,1.7-1.3.2-1.5-.9-2.1-.2.1.5.4.8,1,.9-1,1.4-3,1.5-4.5,2.3h0ZM1427.9,192.8c0,.4,0,.8-.1,1.2-1.2.2-1-.7-1.7-1,.6-.8.9.4,1.8-.2ZM1349.2,216.1c.3-.3.6-.5.6-1,1.5-.4,2.3,0,2.6,1.6-.3.4-1.1.5-1.1,1.1-.8-.4-1.8-.5-2.2-1.7ZM1402.3,205.2c-.4-2,2.3-2.4,3.6-1.7.6,2.2-2.3,2.4-3.6,1.7ZM1924.6,84.1c0-2.3,4.8-3.3,6.2-1.8,2.1,4.8-5.4,4.7-6.2,1.8ZM2024.6,61.9c.4,0,.2-.6.2-.9,2-1.2,6.8-2.5,7.2.5-.3,2.3-7.4,3.7-7.4.4ZM2007.5,58.8c3.1-5.9,9.7-.6,14.1-.1,1,2.7-.5,3.9-3.4,4.2-1-.9-2.2-1.4-2.9-2.8-3.6,1.1-6.6,1.3-7.8-1.3ZM1919.8,82.1c-4.3.9-8.2,1.3-10.4-1.1-.5-3.4,6.2-4.4,8.9-3.7,1.2,1.1,1.7,2.9,1.6,4.8h0ZM2056.9,38c-.4-.8,0-1.1,0-1.7,2.3-.5,2.3,2.9,0,1.7ZM2049,36.3c-.5-1.2.2-1.7.3-2.6,1.9,0,4.2-.5,5.1,1,.2,1.6-4.4,1.8-5.4,1.6ZM1877.7,72.6c1.1-.2,1.8.2,2.1,1.3-1.2,1.5-3.5,0-2.1-1.3ZM1242.8,211.1c0,2.6-4.5,2.8-5.6.8,0-2.5,4.7-2.1,5.6-.8ZM1899.8,61.3c.4-.7,1.9-1,2.5-.6.6,2-2.1,2.6-2.5.6ZM1648.6,92.3c-.9-4.7,7.6-1.2,3.4,1.4-1.5.9-3,.9-3.4-1.4ZM1120,163.1c0-.4-.3-.3-.5-.3,0-.3-.1-.5-.2-.8.4,0,.4-.2.3-.5.3,0,.6-.1.8-.2,0,.4.3.4.5.3,0,.3.1.6.2.8-.4,0-.4.2-.3.5-.3,0-.6.1-.8.2h0ZM1060.8,293.9c-1.7,2.5-8,0-7-2,.8-1.6,7-1,7,2ZM759,226.5c.8,0,1.3-.6,2.3-.3,1.1,2.2-2.3,2.2-2.3.3ZM807.8,240.8c1.4-2.2,4.3-.7,4,1.7-1.1.3-1.6,1.6-3,1.5-.1-1.2-.9-2-1-3.2h0ZM674.9,219.8c-.2-1.5,1-3.4,2-4.7,3.7-.3,12.9,0,14.1,4-5.2,0-10.7,4.6-16.1.7ZM755.3,244c-2.6-.8-4.2-.1-6.2,0-.3-1.9-1.3-3.4-1.4-5.4,2.8-2.1,11.4-.5,7.5,5.5h0ZM641.4,219.6c.2-3.3,4.3-1.8,3.9.4-1.6.4-2.8,1.1-3.9-.4ZM592.5,233.6c-.8.4-3.5,0-3.3-1.1,1.3-.6,3-.4,3.3,1.1ZM662.6,327.4c1.2,1.5,0,5.7-2.2,5.5-1-1.3-.1-6.1,2.2-5.5ZM1012.4,270.8c-.6,3.7-5.9,2.7-6.7.2v-.4c.1,0-.3,0-.3,0,1-1.7,5.2-1,7,.3ZM65.3,243.5c-1.7.7-3.7,2.1-4.8,1.2-1.2-2.2,4.4-3.6,4.8-1.2ZM76.5,232.1c.1,1.2-1.3,2.7-2.7,2.3-.2-.4-.4-.9-.6-1.3.5-1.4,2.2-1,3.3-1h0ZM49.1,240.4c-.6-.7,1.7-1.5,1.5-.2-.7.4-1,0-1.5.2ZM60,226c2.7-4.4,8.4-2.2,9.4.4,2.2,5.8-7.2,4.7-9.4-.4ZM4,243.2c.7-2.7,6.2-6.3,9.5-5.9,5,5.5-6.1,6-9.5,5.9ZM-83.4,234.8c3-2,5.5,1.4,7.6,4.4-5.9,4.9-11.1-2-7.6-4.4ZM-109.5,212.2c-1.9-.7-2.5-3-1.7-4.5,2-1.2,3.6-1.1,4.8,0,.4,2.1-.6,3.6-3.2,4.6h0ZM-137.6,222.4c-1.5-3,5.6-6.1,7.3-3.8,1.4,3.5-5.3,5.1-7.3,3.8ZM-115,196.4c.6.7,1.6.2,1.9,1.7-.5,1.4-2.4,1.3-3.3,1,.2-1,0-2.1,1.4-2.7h0ZM-129.3,189.3c3.1-5.6,13-4.5,16.2,0-2.1,2.7-10,9.9-14.2,7.5-2.2-1.2-3.2-5.3-2-7.5ZM2067.3,334c0-.6,0-1.2,0-1.8-.6-1.6-2.5-1.3-3.3-2.7.8-.6.9-1.5,2.2-1.8,2.6.7,4.8,3.3,7.1.1-1-2.1-2-4.3-3.9-5.1-2.4,1.4-6.5,2.8-8.6,1,.3-8-6.7-7.2-8.2-14-3.4-.5-7.6-2.9-12.1-2.4-3.5.3-7.2,4.1-9.8,1.3,1-2.7,3.2-4.9.3-8.2,5.8-6.5,14.6,3.9,19.9-3.6-.3-1.4-.6-2.7-1-4.1,2-1,5.1-3.4,7.6-3.4,2.1,0,2.6,1.9,4.4,2,1.1-1.4,1.4-3.9.5-5.2-.3-.5-6.1-3.1-6.5-3.3-4-1-9.6,1.1-9.8-4.2,5-4.2,9.5,1,13,2.7,3.4.6,11.1-.4,9.7-3.9-5.6-.9-8.7-5.4-12.4-9.2-3.8,1.3-6.2,2.2-8.5-.2-.9-1-.9-2.8-1.8-3.9-2.6-3.1-10.2-2.7-10.1-8.9-4.8-1.3-9.8-7.5-15.5-3.8,1.5,2.7,6.2,4,3.7,8.2-.9,1.1-3.8.9-4.8,1.9-.7,1.9-.1,4.9.7,6.7,1.3.9,5.1.3,4.5,2.4-5.2,3.5-11.1-1.3-12.7-7-2.1-1.6-6.2.3-9,1.1-1.4-1.9-4.9-1.5-6.6-3.7-1.2-1.6-.9-4.5-2-6.4-1-1.8-2.9-1.6-3.1-3.6,3.1-1.5,5.8-6,3.2-8.8-3.3-.2-1.6,2.7-4.1,3.1-3.8-1.8-7.3-3.9-7.8-10.7-4.8-2.4-9,2.6-12.2,4.4-5.2-3.7-4.7-9.9-3.1-15.1-1.4-.6-2.5-1.7-3.7-2.6,3.2-2,3.8-5.6,6-8.2-1.4-3.7.5-5.5,1.2-8-3-1.1-2.5-4.5-1.6-6.9-7.5-1.2-12.3-10.8-20.8-3.9-1.2.9-1.1,2.6-2.7,3.6-1,.6-2.7.3-4.2.9-4.5,2-5.1,10-10,4.4.9-1.7,3.1-2.5,4.4-4-.8-2-3.3-1.5-5.6-1.3-.9,1.1-1.1,2.6-1.8,3.8-3.5,3-5.4.2-8.8.2-.3,3-.8,5.8-1.5,8.5,4.1,1.8,11.9,7.2,11.2-1.2,6.4-4.6,9.2,3.1,15.8,1.6.6,1.4,1.6,1.9,2.1,3.4-4.5,2.7-2.1,12.8,2.9,13.9.1,1.4-2.6,1.2-4,1.7-3.8-5.2-16.4,3.1-21.6,0-1.9-4.1-3.9-8.1-6.6-10.9-3,.9-2.5,4.1-5.4,5.1-.5,1.9,1.8,5.5-.2,6.5-3.2-1.6-3.7-4.7-3.3-8.3-.8.1-1.5,0-1.9-.4-2.4,0-.7,2.6-2.4,4.8-2,2.7-6,3.1-4.8,5.8.6,1.4,2.9,1.7,5.9.8,1.6,2.7,5.5,1.8,7.9,3.4-.7,1.8,0,2.6-.9,3.6-4.1,5.2-8.9-3.2-13.6-3.4-4.5-.2-7.8,3.9-11.3.8,7.5-3.1,9.6-12.4,3.2-18.2.6-1.5,1.5-2.8.5-5.2,1.3-.9,3.2-1.3,2.8-3.2-2.3-2-3.1.8-3.8,2.6-2.7.7-1.6,3.7-4.3,4.4-2.9-.8-2.5-6.5-2-8.5,5.6-4.5,6.7-11.7,7.4-19.2-1.4-.6-2.9-1-4.7-1.1-1.6.6-1.4,2.4-2.8,3.2-2-2-4.5-3.4-7.6-3.9-2,1-1.7,2.9-3.5,3.8-4.1,1.9-5.6-.8-8.2-1.2-2.5-.3-5.4,1.3-7.2,1.2-3.3-.2-6.9-4.1-11.2-.5-1.4-1-1.8-3.4-4.5-2.4-1.3,1.5.5,3.2,1.5,4.4,3.8-.2,6.5,1.4,11.1,0,1.4,3.2,5.1,1.3,8.4,2,3.1.6,3.8,3.5,7.4,1.4,2.3,1.3,4.6,2.6,6.4,4.6-1.2,2.2,0,4.2,1.1,6.6-1.6,2.5-2.7,5.3-6.9,6.3-1.3-.5-2.4-1.4-3.6-2.2-2.3-.3-5.3,1-7.2,1.2-2.9.2-4.5-1.2-7.5-1.8-1.4-.2-3,.4-4.4.1-1.5-.3-2.7-1.8-4.5-2-2.6-.4-4.7.8-7,.3-5.7-1.3-12.3-4.7-20-2.4-2.5-3.6-6.6-.7-10-1.2-1.5-.2-2.5-1.7-4-2.1-2.2-.6-6.2-.6-8.6-1.1-4.2-.8-9.2,1.8-15,2-2.6-2.7-7.3-2.2-12-.3-1.9-1.6-4.8-1.8-5.6-5.2-.1-1.4,3-2.1,1.4-3.3-2.4-1-2.9,5-5.8,1.7.2-1.5,1.5-2.3,1.8-3.8-3.5-1.9-7-4-10-6.7-1.5.6-2.4,1.6-3.9,2.2.1,2.4,2.2,1.7,2.3,4.2-2.4,3-5.6-.2-7.6-.4-3.5-.5-7.2,2.4-9.7,0-.6-1.7.2-2.4,0-3.8-2.3-.8-5.8,0-8.5-.3-2.2-.8-5.1-6.9-8.2-6.7-2.6,0-4.7,2.8-4.2,4.8.6,2,2.8,1.2,4.2,2.9-3,2.2-5.8,6.4-3.1,11-1.3,1.5-3.4,2.6-4.3,4.4,2.2,3.9,9.5-.2,13.8.4,1.1,2.2,3.6,2.2,5.3,3.5-2.8,1.4-5.7,2.8-7.7,4.7-3.3-3.4-9.1,1-13.5.9-5.1-.2-7-5.1-11.7-6.4-.3-1.1-.5-2.2-.8-3.2-2.1-1.8-3-1.3-4.2-2.9-4.9-6.4,2.1-12.6-2.1-17.9-6.8.3-19.3,2.5-24.7,5.9,2.4,1.9.9,4.9,1.7,7.3.4,1.2,2,2.2,2.6,3.7.4,1.1.4,2.6.8,3.3,2.6,4.1,6.7,2.8,11.2,4.4-1.1,3.9-6.6,5.1-7.1,9.3-1.8.6-3.5,1.1-4.3,2.2-1.1,3.1,2.1,3.3,3.5,5.6,2,3.1,1.9,6.9,4,9.4-2.6,3-8.2,2.3-12.8,3.7-4.9-3.3-17.6-5.8-22.9.4,1.4,1.2,3.9.7,5.3,1.8.4,1.8.7,3.7,1.6,4.8,4,.3,8.7-.5,13.4-1.3,1.1.3,1.7,1.4,2.7,2,3.1,1.7,7.1,2,10.2,3.7-1.5,2.1-4.6.9-6.9,2.4-1.5,1-1.8,3.6-3.3,4.6-1.9,1.3-5,1.3-6.9,2.4-2.7,1.5-3.7,3.7-5.9,5.1-2.4-1.9-5.1-3.2-8.7-3.2-3.2-8.8-13.8-3.7-22-1.5-.8,1.5-1.5,3-3.5,3.8-1.8-.3-2.6-2.3-3.9-3.4-1.3.3-2.5.6-3.8.8-3.4-1.9-10-2.3-14.9.3-2.4,1.3-3.2,5.3-6.4,4.8-5-3.8-12-4.4-20.2-3.2-3.1-3-5.6-6.9-8.6-10.1-4,2.5-8.1,6.7-13.8,6.9,1.2-2.6,1-6.1,3.4-8-5.3-1.9-12.2.5-15.3,4.3-2.1-2.6-8.5-1.2-12.2.6-1.5,4,1.5,10,4.2,12.3-1.5-5.5,2.8-7.4,9.1-8,3.5,5.1,10.4,5.1,14.2,9.7-1,1.1-3.2.4-4.7.6-.9,1.4-1.6,3-2.5,4.4-4.5-2.4-9.6-4.1-15.9-3.7-.2-.7-.3-1.3-.5-2-2.2.4-4.4.8-4.7,2.3,3.7,5.4,9.9,6.9,15.2,9.9,7.6-2.7,9.6,3.3,15.7,2.9,1.1-1.1,1.6-2.5,3.7-3,1.5.9,1.9,3.3,2.9,4.9,8.9,1,17.1,3.2,25.5,5,.9-1.1,1.3-2.4,3.3-2.9,1.6.6,2.9,4.1,5.3,1.8,1-2.2-2.3-2.2-3.9-3.4-2.8-2.1-5.3-4.1-10.6-1.9-1-1.7-1.9-3.7-3.4-4.8-1.6-.4-4.1.8-5.7.4-2.2-3.8-6.6-4.3-9.9-6.3,1.7-2.7,8.8-3,11.4-2.1.5,1.6.4,4.2,2.2,3.8.6-1-.4-3-.6-4.6,1.6-1.1,3.8-1.9,6.5-2.3,1.3,1.2,2.2,2.9,4.2,2.9,1.1-1.1,1.7-2.4,2.7-3.6,2,1.3,4.3,2.2,7.8,1.3,1.3,2.4,4.4,2.1,6.2,3.8-.7,2.6-5.8,2.5-7.8,4.3,1.2,1.7,3,2.4,4.1,4.2,2.4-1.6,3-4.2,7.3-4.6,1.6-1.4-.3-4.8,2.2-5.6.3,3.4,5.1,3.9,6.4,6.7,1,1.9.9,5,.5,7.6-1.9-2.4-7.9-3.4-9.6.4,1.1,2,2.5,4.6,2.2,7.2,5.6,1.3,11.1,2.8,17.8,2.5.7-1.9,4-7.5,7.1-3.7-2.7,1.6-1.6,5.5-3,7.9-3.4,0-4.3,2.2-7.4,2.5-2.8.3-4.9-2.2-7.2-2.2-5.3-.2-11.6,3.3-16.1,3.1-3.1,0-4.2-2.5-6.7-4.1-3.2,2.4-8.4,6-13.4,5.1-2.7-.5-4-4.6-6.9-3.2.3-1.9,2.6-2.6,2.4-4.8-2.2,0-3.8-.8-6.6.2-.9,2.2-1.5,6.1-4.4,7.4-2.9,1.3-5,0-8.1-.4-1.1,1.8-3.2,3-5.2,4.2.2.9.4,1.9.7,2.8,6,.1,11.1,1.7,16.6,2.7-.3,1.4-.3,3,.3,5.1,1.5,1.5,5.8-1.5,7.1.1-5.1,4.4-9.2-1.9-15.7.9-1.4-2.3-4.9-1.2-7.6-2.2-1.3-.4-1.9-2-3.2-2.3-3.3-.7-6.1,1-9.3,1.6-1.4-1-2.1-3-3.6-3.9,3.3-4.7-2.5-8.7-5.2-10.8-7-.3-12.8-2.5-20.3-1.9-.7,1.1,1.1,1.6,1.2,3.1-1.8,3.5-4.7,7.9-11,7.6-1.7-2.3-2.5-6.1-2.1-8.9,1.6-1,3.7-1.7,3.5-3.8-1.2-1.8-4.3-.8-7.1-.1-.9-1.4-.7-2.8-1.3-3.6-1.8.4-3.8,1.1-4.8.2-1.4-4.5-2.3-8.8.5-10.8-.8-2-3.5-.8-3.9-3.4,1.3-1.9,2.7-3.7,4-5.6,1.9,1.1,3.3,3.1,5.4,3.9-1.2,2.7-3,4.9-4.4,7.4,1.8,1.8,4.3,2.7,6.3,4.2,1.8-1.7,2.9-3.8,4.4-5.7-.3-2.6-3.3-1.3-3.9-3.4,1.8-1.3,5.8-1.7,7.3-.8,1.5,5.9,7.8,9.3,13,4.4-2.9-2.6-6.9-3.7-10.5-5.4,4.4-1.6,4.9-5.6,5.7-9.4-2.5-1.1-3.5.6-5.7.4-3-.3-5.8-3.3-8.3-3.3-3.4,0-6.1,2.7-11.2,2.9-.7,1.2-.7,2.8-1.2,4.1-5.7,3.9-7.1-1.8-7.4-6.9-5-.6-8.3-3.8-14.7-2.3-3.5-5.6-11.6.5-18.9.4-1.7,0-3.5-1.8-5.3-1.8-4.6,0-8.7,2.7-12.3,2.3-1.8-.2-3.3-2.2-5-2.3-5.9-.4-13.1,3.1-19,3.8-4.7.6-6.9-.8-10.4-1.1-1.6.6-1.2,2.5-2.8,3.2-1.1-1.1-2.3-2-3.7-2.6-4.1.8-7.4,3.2-11.2,2.9-1.5-.1-2.5-1.7-3.9-1.7-3.1,0-5.3,1.4-7.7,3,.4,1.5,1.9,1.6,2.1,3.4-1.7,2.4-.9,6.2-1.3,9.3-2,0-4,0-5.5-.9.8-.9,2.4-2.7.8-4-3.1.4-2.4,5.9-7.3,6.3-2.2-2.4-1.7-5.5-.5-7.6-1.6-1.1-2.8-2.7-4.1-4.2-9.5,1.1-21.1,5.2-30.9,5.6-.9-1-1.9-1.8-3.2-2.3-6.1,0-12.7,4.2-17.3,3.4-2.1-.3-5.1-3.2-6.3-4.2,1.2-1.6,5.3-1.4,5.8-3.4-.9-1.2-1.6-2.4-1.8-3.6.9-1.2,1.3-2.2,2.2-4.2,3.8.2,7.7-.7,11.7-3.9.6.6,1.5,1.1,2.4,1.6-1.9.3-3.6,1.5-3.7,3.8,2.1,2.5,8.7.7,9.1-2.5-.1-.1-.3-.2-.4-.3,5.4.2,10.7-2.2,7.6-8-1.6-2.9-3.8-.5-6-4.8.9-4.9,5.2-2.7,8.3-5.4-.8-6.8,3.1-8.6,7-10.7-1.1.6-2.9-2.5-1.8-3.2,6.3-6.9,18,5,23.3-5.1.7-1.3.9-4.3-.8-6.5-3.6-5.1-7.7.5-12-4.8,1.6-4.6.6-10.1,1.8-15.4.6-2.7,2.6-5,2.9-7.5.4-4-1.8-8.4-4.8-12.4-4.6.2-9.4,2-14.3,6.3.3-13-18.1-13-16.2-.8.8,5.2,5,5.9,9.4,8-1.6,5.5-9.9,15.2-14.9,9.2.2,5.4-5.3,4.8-8.2,4.6-1.2.9-1.8,3.6-3.1,4.5-4.5,3.3-7.7-3.2-12.1-3.1-1.5,0-2.6,2-4.5,2.7-1.3.5-6.9,1.5-11.3,2.6-4.3,1.1-9.6-.9-12.7,0-3.9,1-7.2,5.1-8.6-1.5.4-.4.8-.8,1.3-1.2l-.6-.3-.2-.7c-1.6.7-3.2.6-4.6-2.1,1.4-2,3.1-3,5.1-4.1.6.6,1.2,1.2,2.5.8.3-.7.4-1.7.3-2.6.4-.3.9-.7,1.3-1.1l-.6-.3-.2-.7c-.3,0-.5,0-.8.2,0-.4,0-.7-.1-1.1-2.4-2-8.8,2.2-10.4-1.1.8-1.5,2.6-2.3,2-4.7-4.8-2.9-14.7,3.3-20,3.2-1.7,0-3.1-2-4.5-2-1.5,0-3.7,1.7-6.1,2.2-1.4.3-3,0-3.9.4-2.3,1.1-3.4,4.1-5.5,4.7.1.4.1.7.2,1-8.9,2.2-18.4-3.2-26.3,4.1-1.2-1.3-2.5-2.2-3.8-2.9-6.3,2.8-12.7,7.6-18.6,4.7,7.8-7,4.6-14.9,1.8-22.7-6-1.9-10.6,3.2-14.5,8.8-.6-1.9-1.1-2.1-2.6-2.4-4.2,5.2-2.7,14.4-10.8,14.3-1.1,1.6-2.1,3.3-3.5,4.9-.7,0-1.3-.3-2-.4.3-.5.3-1,.1-1.6-1.2-3.1-11.8-.4-12.5,3.2,1.3,1.3,6.4,1.3,9.7.2-.7,1.5,1.8,3.3,0,4.7-1.4-2.9-3.1-1.4-4.8.5-1.1,0-2-1.9-3.1-2-3.8,6.7-8.7,2.4-13.2,2,0-1.2-.2-2.5-.4-3.7,2.7,2.5,9.2,1,5.7-5.1-.9-.5-2.7-.4-4.3,0-.4-1.1-1.9-1.8-2.9,0,.3.3.6.7.8,1-.2.1-.3.3-.4.4-.2.9-.2,1.7.1,2.3-.7,1.2-1.7,3-2.9,2.5-2.4-1.5-1.8-6.1.6-8.6-1.1-.8-1-3.3.3-5.1-3,.2-2.8,2.5-4.3,4.9-1.3-1.1-2.6,0-3.8-2-.5-3.3,2.4-6.4-1.3-10-1.8,0-4.2,1.8-5,3.9-.3,1.4,2.7,3.1,1.3,4.4-4.2.4-8.6,2.3-12.7,0-.6-1,1.3-1.9-.2-3-2.3,1.4-4.4-.8-6.6-2.6,1.1-2.1,2.3-4.2.8-6.4-2.2,3-3.6,3.3-4.8,6.1-4.2,0-8.5-.4-12.6-1-.9-4.1-1.4-4-4.8-6,3.1-2.1,7.7-6.8,10.9-9.6,3.4-2.8,7.1-3.8,10-7,1.5-1.6,2.1-3.5,3.5-4.9,3.1-3,9.7-8.8,5.3-8.2-.5-3,2.6-5.8,3.3-8.8l-.4.4-.4-.5c-5.6,7.1-12.5,7.6-14.7,13.1,1.8,1.5,3.6,1.6,5.5,1.3-1.8,2.3-3.4,5-5.6,6.9-2.5,2.2-4.7,1.8-7.8,3.3-7.2,3.6-12.7,11.5-19.9,13.2-.6-.8-1.2-1.5-1.8-2.3-1.1,0-2.2,1.1-3.2.6-.8-1.7-1.8-1.3-2.6-2.4-4.5.4-9.3,4.7-13.8,4.1,1,1.4-1.1,2.5-2.2,3.7-1,1.2-1.8-1.5-2.8.2,0,3.9-4.7,5-7,9.8-.3-.2-.5-.5-.8,0l.4.5-.4.4c2.8,2.1.4,4.1-1.5,4.6-.4-.5-.7-.9-1.1-1.4,1-.9.6-2,2.2-2.9l-.4-.5.4-.4c-1.3-.6-2.6-.9-3.8-2.9,1.6-1,3.2-.5,4.8-1.4-2.1-4.4-5.1-4.4-8.5-9.7-.2-2.3,2.4-3.7,4.3-4.9-2.6.1-3.5,0-4.2-3.3-2,0-4,1-5.7,2.2-15.5,10.9-30,31.1-42.7,41.3,1.9,1.5,4-.9,6,0,.9,1.5-.3,2.9,1.3,4.4,1-1.7,1.9-.5,2.8-.2.7,1.2-.8,2.2.6,3.5,1.9-1.3,6.6,1.6,5.7,4.3-2.7.6-5.2,2.5-6.8,4.9-.6-.5-1.2-.9-1.9-.9-.5,0-1,.3-1.5.7-.7-.2-1.5-.3-2.3-.4-5.6-4.5-12.6-9.1-20.7-3.6-3.1-1.6-6.7-1.7-10.2-2.1-.1.7,0,1.4.5,2.1-1.1-.2-2.3-.5-3.6-.8-5,4-12.5,1.2-21-.8-1.6,1.4-5.7,1.8-5.8,3.9.8,2.8,7.5,1.9,8.1,4.8-1.6,1.8-4.7.8-7.9,0-9-2.3-16.4.7-15.2-8.5-.6-.5-1.3-1-2.1-1.4,1.7-.9,2.6-2.3,1.4-4-2-2.8-8.6,1-12.9-.9-1.7-.7-1.4-2.6-3.7-3-11.6-.8-24,.5-34.7-2.5-1.8.9-3.1.5-5.1,1.8-1.3-1.8-3.2-2-5.2-1.8-2.8-.9-5.7-1.5-7.8-.6-.2,0-.3.2-.5.3,0,0,0,0,0,0-2.8,1.1-4.4,2.5-5.6,4.1.9.4,1.9.8,3,1.3-.2.6-.5,1.1-.8,1.7-.7,1-2.7,2.9-3.9,3.4-1.3.6-3,0-4.2.8-1.7,1-1.1,2.7-3,3.2-1.8-.5-.3-3.1-1.2-4.1-2.6-1.9-6.7-2.5-8.7-.6-1.5-.6-2-1.8-3.9-2.2-2.5,4.9,2.3,8.3,4.8,11.3,2.7.5,3-3,5.3-3.5,4-.9,7.3,2.5,9.9,4.8-1.2,1.3-2.3,2.7-3.2,4.4-1.5-.1-2.9,0-4.2.3-6.5-1.3-13.2-2.4-20.6-1.4-1.6-1.9-4.2-1.3-6.1-2.5-1-1.2-2-2.3-2.9-3.7.6-.2,1.2-.5,1.7-1-.5-2.9-2.5-2.5-2.5-4.4,0-5,8-4.1,5.5-10.3-5-3.8-10,0-12.7,3.2-6.2-.1-8.9,5.1-16.2,3.2-1.2.9-2.6,1.5-3.7,2.6-8.2-1.3-15.4-1.2-20.4,2.3.3.2.6.4.9.6-1.7-.6-3.4-1-5.2-1.2.3-2.8.2-5.7.3-8.4-1.8-.7-3.6-1.1-5.3-1.3-2.5-2.2-5.2-4.2-9.9-.7-1.8.5-2.8-1.2-4.6-.5-.2.5,0,1.1.3,1.8-.4,0-.8,0-1.2,0-.2,1.5.5,2.5.9,3.6-2,1.3-5.2.9-7,2.4-1-2.6-1.8-5.9-3.8-7.6-2.5-1.5-4.6.9-7.2.7-2.6-.2-5.7-3.2-9.4-.4-2.1-2.6-5.6,0-9.2,0-3.3,0-7.8-2.8-10.6,1.7,1.4,7.6,7.4,7.2,12.7,7.8-1.9.7-3.3.4-4.7,2.2-1.8-.2-2.2-1.2-3.6-1.6-1.7.8-2.5,3.2-4.4,3.7-2-3.5-3.6-7.4-9.5-8.5-2.3,4.6-6.9,8.3-12.4,3.7-3.3,3-14.7,4.3-14.9-2.5-1-.5-2.3-.9-3.6-1.2h0c4.3-5.3,8.4.2,12-4.9.7-1,1-2.1,1.2-3.1.6,0,1.2-.2,1.5-.3.1-1-.6-1.8-1.7-2.3,0-.3-.2-.6-.3-.8-5.3-10.1-17.1,1.8-23.3-5.1-1.1-.7.7-3.7,1.8-3.2-3.9-2.1-7.8-3.9-7-10.7-3-2.7-7.3-.5-8.3-5.4,2.2-4.3,4.5-1.9,6-4.8,4.8-8.9-10.6-9.9-15-5.3-4-3.1-7.9-4-11.7-3.9-1.5-3.2-1.6-3.9-4.8-7-2.3,1.3-4.6,2.5-7.2-1.2,2-3.7,1.1-11.3-4.2-10.5,11.9-17.4,27.3-20.1,42-25.6-1-2.4,1.6-2.4,2.9-3.7v-.7s.3-.6.3-.6c-9.7,1.6-19.7,8.8-29.7,13-3.4,1.4-7.9,1.5-10.5,3-1.7,1-2.5,3.4-4.1,4.2-1.6.8-3.5-.6-6,0-2.5.6-5.5,4-8.3,1-1.6-2.4,3.6-3.1,3.2-5.9-5,.7-9.7,5.8-14.7,5.4-.7-1.8,2.8-1.5,2.1-3.6-3.7-3.8-6.8,1.2-10.3.8-.3-6,4.2-12.7,9.7-15.8l-.6-.2-.2-.6c-5.6,1.8-11,6.3-16.6,7.7-1.1-3.2,3.4-2.8,4.8-5.1l-.6-.2-.2-.6c-1.9,0-3.6,1.1-5.4,2.1-.4-.5.3-1.2.7-1.8-2.3.6-5.8,1.5-6.8,4.8-2.8.3-5.5,1.3-8.2,1.9,3.5-2.8,10.4-6.3,15.1-11.5l-.6-.2-.2-.6c-1-.8,1.1-1.8,1.4-2.7l-.6-.2-.2-.6c-6.6,4.4-13.3,6.8-20,10.1.5-2.7,3.9-6.1,4.7-7.7-1.3,0-2.6.9-3.9.3.9-9.3,10.3-15.3,16.8-22l-.6-.2-.2-.6c-8.4,3.6-17.9,14.1-24.8,22.6l.4.4-.4.5c2.1.3,4.1-1.7,6.2-3,0,2-3.1,4.3-4.4,6.4,1.2,0,2.3-.6,3.6,1-.1,2.3-3.6,4.9-5.1,7.3-2.9-1.9,0-4.3-1.6-6.4-1.1,1.5-2.3,1.7-3.4,2.4-2.7-2.8-3-5.8-5.7-8.6-2.6-.7-4.9,1.5-7.5.1-2.3-4.4,1.5-9.3-4-13.5-5.7,1.2-10.6,11.3-16.9,14.7-1.7-3.5-3.9-8.3-2.7-12.3.6-1.9,2.8-3.6,3.6-5.5,1.7-3.7,1.7-8.6,3.2-12.3,1.7-4.3,4.8-7.1,3.7-11.1-7.8,1.6-4.7,12.8-9.5,19.3-2.8,3.8-5.9,9.2-10.5,10.3-.2-1.4,1.9-3,1.3-4.4-3.3-1.5-8.6-.5-11.4,2.2-2,1.9-3.6,7.7-7.6,11.4-1.2,1-3.1.8-4.6,2.1-1.1.9-1.9,2.9-2.9,3.7-1.9,1.5-4.6,2.2-5.7,3.4-2.8,3.2-3.2,10.3-6,12.1-2.5,1.6-5.3-1.3-7.2-1.2-3-4.2.9-12.7-4.5-13.9,1.6,7.1-.9,14.5,3.7,21.3,1.4-1,.3-1.8,1.4-2.7,1,4.1-3.2,12.3-8,11.8-1.7-1.3.4-2.9-1.9-4.2-3.5,3.6-3.8,9.3-7.1,13.5-3.3,4.2-7.8,5-11.8,7.4-1.6-3.8,1.2-7.9,2-11.8-3.5-3.5-3.3,4.4-6,4.8-1.6-1.3-.2-2.9-1.1-4.2l-.2-.6-.2-.6c-1.5,0-1.9,2-2.6,3.2,1.6,2.8,2.5,3.8,4.8,7-1.2,1.5-2.5,3.1-3.7,4.6-.6.5-1.3-.6-2-1.1-4.8,3.2-9.9,3-15,2-.9,1.2,1,2.2,1,3.4-3.2,3.8-8.4,8.2-13.4,1,.1-4.1-2.8-6.5-2.6-10.6.1-3.9,2.7-8.7,3.5-12.8.4-1.8,0-3.9,0-5.6,2.7-3.2,3.7-6.3.6-9.1-5.1,6.1-1.6,16-6.5,23-2.1,2.9-6.6,3.4-7.3,9.2-2.4-.7-4.1-4.7-6.4-6.9h-.4s0-.4,0-.4c-.1.2-.2.3-.4.5-2.1-3.4.1-7.2-2.7-10.6-3.3,2.3-1.1,7.8-.9,11.3-3.3.8-4.3,5.5-3.8,8.5-4,1.6-2.6,5.4-3.5,8-.9,1-2-1.5-2.9-1.9-1.3,1,.1,1.7-.6,2.6-1.7,1-3.5-1.4-5.2,0-2,1.6-.8,2.9-1.3,4.4-1.9.8-.2-2.2-2.2-2.9,1.1,3.8,1.3,7.7.3,11.6-1.5.8-2.2-2.1-2.9-2.8-3.2,2.4.9,4.3-1.6,6.6-2.9,1.5-2.4-3.5-4.6-3.5,0,1.5,0,3.1,0,4.6,0,0,0,0,0,0-3,1.5-2.3,3.4-.8,5.7,0,0,0,0,0,.1-1,1.1-2,1.2-3.2.2-.2,1.1-.2,2.2-.2,3.2-1.9-1.2-4.9-.5-7.9.3-1.2-1.6-1.6-3.8,0-5.5-2-2-3.6,1.3-5.5.4-1.1-1.5,1.2-3.2,0-4.7-2.3-.8-4.6-2.3-6.8-1.6,0-.8-.1-1.6-.3-2.4,1-1.4,1.9-2.6,1-4.3-.9-1.6-3.5-1.2-5.2-1.8-2.9-1.1-6.4-3.5-9.3-3.6-.1,0-.2.1-.4.2-.1-.4-.3-.8-.5-1.2-2.7-4.6-7.2-4.8-11-4.8-5.5,4.8-4.1,10.9-.4,14.5-.8,1.6-1,3.4-.3,5.5-4.2,4.1-12,6.1-16.1,3.7-4.3,1.7-10.5,4.6-8.3,7.4,3.4,1.1,9.5-1.8,8.9,4.9-5.8,2.6-9.4,6.3-14.6,6.7-1.6,0-3.4-1.5-5-1.4-4.6.4-8.3,3.4-12.2,6.1-1.9-.7-3.3-2.9-4.9-4.6,4.8-7.5,3.5-18.1-3.3-26.8-3.9,0-10.8,2-14.3,5-1.7,1.4-1.5,3.4-3.2,3.5-1.5.2-2.8-.3-3.9-1.4-1.7-3.2,3.6-8.2,2.4-10.5-1.1-2.3-3.7-2.5-8.1,0-3.3-1.4-7-1.6-10.2-3.2-2.9,2.1-4.8,3.2-8.6,4.5-1.1,1.9,0,4.6,0,6.8-3.5,4.3-9.5.2-12.2,5,5.7,1.1,3.6,9.6,6,12.4,2.7,3.1,6.8.2,10.7,3-3.3,2.9-5.8,6-2,11.4,1,1.6,3.3-.3,4.1,1.8-7.8,2.7-8.1,8.1-10,12.9,2.1,1.9,5.6.2,8.3.4,1.8,5,8.7,6.1,8.3,10.4-2.4-3-6.6-1.3-9.1-4.2-5.7,1.2-10.5-.2-16.5,1.7-2.4-3.6-1.9-6.1-1.5-8.7-2.4-2.1-4.4-5.3-6.1-9.2-1.2.6-2.4,1.1-3.5,1.6-2.3-2.6-5.7,0-9.2,0-1.8,0-3.5-1.4-5.4-1.2-7.1.9-16.3,8.7-14.6-1.2,2.6,2.9,9.4,1.4,9.3-3.2-2-2.3-6.2,1.5-8.1-1,0-5.3,6.5-3.9,9.8-6.6,0-3.6-4.9-2.9-7.2-.4-1-.9-2.1-1.6-3.2-2.2-6.7,2.8-12.9-4-18.7,2.8.4,8,9.2,6.8,10.7,11.9-2.7,2.3-5.7-1.5-9.9,1.9-1.3,1.7,1.3,4.7.5,6.6-2.8.9-6.3,3.8-8.4,2.8,0-2.8.1-5.7-1.7-9.1-1.4-1.4-4,.2-5.5-1.2-.7-1.8-1.7-2.6-2.7-3.5-1.2-1.1-3.3.2-4.4-1.2-3.7-5.3-10-3.3-15-5.2-1.3.6-2.7,1.2-4,1.8-4.2-2.8-6,0-9,2.6-2.9,2.4-8.5,4.7-6.5,7.7,1.7,2,4.7-.4,7.5-.2,2.1,0,2.9,1.5,4.8,1,3.5-1.1,3.4-3.9,6.1-6.4,2.4,3.2,4.9,1.7,8,3.1,4.3,1.9,1.5,2.4,1.6,5.5,0,2.3,2.1,3.1,1.6,5.5-5.3,2.4-10.6,4.8-15.9,7.3-1.9-3.7-4.9-3.9-7.5-5.5-3.5-2.2-3.1-1.9-8.1,0-7.3,2.8-12.9,5.2-14.7,8.8-2.9-5.1-8.6-2.6-14-1-2.2-1.9-5.1-2.1-8.5-.8-.9-1.2-4-1.8-3.4-3.7,7.1.6,16.7-5.5,23-2.6,1.5.6,2.5,2.5,4.1,2.8,4.4-1.3,5.4-3.8,7.4-6,3,1.8,7.8-1.3,6.7-4.1-2-5.1-10,1-16.2,0-2.7-.5-4.4-4.5-7.7-4.8-3.1-.3-6.4,3-11,4-2.8.6-5.2-.7-7,0-2.2.9-2.8,3.9-5.1,3.9-2.7,0-3.3-2.8-4.9-5.6,4.8-6.9-1.2-17.5-2-26.3-5.9-1.7-5.9-12-7.5-15.4-2.8-.8-6.6,1.2-9.9,1.9,1.7,8.7-6.6,4-11.3,5.7-5,1.8-4.2,4.9-7.7,8.7.3,2.1,1.6,4.6,1.6,6.6-2.9,3.8-8.7,3.9-12.3,3.5-.8,2.1-4.5,4.4-4.8,6.9-.4,3.3,2.1,6.6,1.7,10.2-.2,2.3-2,3.6-2.5,5.9-.4,1.5.7,2.9-.6,4.4-3.1,3.7-5-.6-8.3-.4-3.1.2-4,1.5-7.5,3.4-2.3-.1-3.6-2.9-6.3-1.8.4,5.1-6.5,7.7-8.2,12.1-2.9-2.1-7.5.5-7.7,3-.6,6.6,10.6,10.6,16.9,5.9-2.6,4.7-11.7,9.2-9.5,13.8,2.1,4.4,11.6.8,11,8.1-6.2-1.4-14.7,3.4-9,9.3,1.5,1.5,2.7-.2,5.9,1,1.2.4,2.2,2.1,3.2,2.2,1.9.2,3.8-2.2,5.5-.9-2.9,1.1-5.2,2.4-7.3,3.9-1.5-.3-2.5-1.8-4.1-1.8-3.8,2.5-6,5.6-7.9,8.8H99.4c.3-.4.8-.5,1.2,0h304.6c.1-.4.2-.8.3-1.2.4,0,.8.2,1.3.3,0,.5-.3.8-.6.9h7.7c1.4-.4,2.8-.8,4.1-1.4,1.5,0,1.5,1,2.8,1.1,2.5-2.5,8.4.4,11.7-.8.3.5.6.9,1,1.2h9.1c.3-.3.6-.6.8-.9,1.6.5,3.4.7,5,.9h13.3c.2,0,.3-.1.5-.2,0,0,0,.2,0,.2h147.8c.2-.9.5-1.8.7-2.6,1-.9,3-.2,4.8.2.6-.8.4-2.2,1.3-3.6,2.8.6,5.9,1.7,7.1-.1.2-2.1-2-2.7-3.5-3.8-.3-2.8.4-6.6,2.1-8.9,6.3-.4,9.2,4.1,11,7.6-.1,1.5-1.9,2.1-1.2,3.1,7.5.6,13.3-1.6,20.3-1.9,2.7-2.1,8.5-6.1,5.2-10.8.9-.5,1.4-1.4,2-2.2.3.8.6,1.6,1.4,2.1,1.5.9,2.8-.2,5.5.1,3,.3,7.4,1.5,10.9,1.8-1.4.2-2.9.3-4.4.3-.2.9-.5,1.9-.7,2.8,2,1.2,4.1,2.4,5.2,4.2,3.1-.4,5.1-1.7,8.1-.4,2.9,1.3,3.5,5.1,4.4,7.4,2.8,1,4.3,0,6.6.2.2-2.2-2.1-2.9-2.4-4.8,2.9,1.5,4.3-2.6,6.9-3.2,5-.9,10.2,2.7,13.4,5.1,2.5-1.6,3.6-3.9,6.7-4.1,4.5-.2,10.7,3.3,16.1,3.1,2.3,0,4.3-2.5,7.2-2.2,3.1.3,3.9,2.5,7.4,2.5,1.3,2.4.3,6.3,3,7.9,0,0-.1,0-.1,0h1165c-1-1.8-2.3-3.4-3.7-4.7,3-2.1,5.6-.7,7.3.9,5.5-1.3,9.2-3.8,13-1.2.3,2.5,1.3,4.1,2.8,5h59.1c0-.1.1-.2.2-.4-.9-1.8-3.1-1.8-4.3-3.3-.5-.6-.2-2.2-.8-3.2-.9-1.6-3.6-2-4.3-3.3-.9-1.6-.6-4-1.5-6.1,2.5-3.3,6-1.4,8,.4,2.5-.2,3.7-1.2,5.3-2,.5-1.4-.2-3.6,1.1-4.5,4,1.5,2.9,10.8,5.9,13.7,4.9-.2,8.4,1.8,11.9,3.8.3,1.2.4,2.7,1.2,3.2,4.9-.5,12.4.1,14.5-4.1,5,0,6.9-3.8,10.3-1.4-5.7,0-9.9,4.2-10.2,7.5h31.1s.2,0,.2,0ZM1714.9,200.3c-2.8-.7-1.7,2,0,0h0ZM1611.7,292.5c-.2-1.4,5.1-2.6,5.1-.7-.8.7-4.5,2-5.1.7ZM471.8,135.5c-.8,1.7-3.7,3.8-3.5,1.6,1.2.7,2.2-3.2,3.5-1.6ZM-156.5,316.8c-.7-1.9-.7-3.6-1-5.3,3.8-1.2,6,1.7,9.8.2-1.8,2-6.2,6.6-8.9,5.1ZM-117.7,250c-1.1-1.6,2.2-1.6,3.1-2.5-.8.7-2.1,3-3.1,2.5ZM32.4,243.8c-.2-.6.9-.9,1.5-1.2.4,1-.7,1.5-1.5,1.2ZM81.7,276.3c-2,2.2-6.4,2.9-8.8,3,0-2.2,2.2-3.7,3.2-5.6,1.1,1.7,3,1.1,4.8,1,.3.6.5,1.1.8,1.7h0ZM189,231.7c1.2,1.2,2.3,2.4,3.5,3.6-3.3,2.2-8.2,3.4-11.5,3.6.3-4.3,3.9-6.5,8.1-7.2ZM175.5,245.6c-.9-1.2.3-1.8,1.6-2.3.3.6.6,1.1.8,1.7-1,.6-1.8.7-2.4.6h0ZM174.3,276.5c-3.7,2.3-7.4,0-6.7-3.8,1.7.3,3.2,1.3,5.5.1,1.4,1,.7,2,1.2,3.6ZM146,252.8c.8-.4-.4-1.6.7-1.9,3,.8,8.3,0,10.8-3.4,1.1-1-.1-2.7.3-3.8,3.4-3.3,5.6-.3,8.1,0,3,.4,5.4-2.2,6.8-.5-1,1.9-8.6,3.3-7.4,7,2.2,1.1,3.7,3.9,5.1,7.1-3.8,2-.5,6.5-6.5,7.7-2.6-2.3-3.5-6.5-2-8.5-.4-.5-1.1-.3-1.5-.9-2.7.8-.7,3.3-3.4,4.2-3.1-3.9-7.9-3.1-11-7h0ZM143.5,246.5c.7,1.3.4,2.3.6,3.4-2.6.3-5.4,1.4-7-1,2.2-.9,4.6-2.4,6.4-2.4ZM142,255.6c.1.3.3.6.4.9-.3.1-.6.3-.9.4-.2-.3-.3-.6-.4-.9.3-.1.6-.3.9-.4h0ZM190.8,310.3c4.5,9.9-8.4,4.4-11.1,5-2.7.6-4.5,3.3-7.3,3.8-2.9.6-4.8-1.3-9,.4-4.7,2-7.9,6.1-13.9,5.8-1.5,0-3.1-1.5-5-1.4-4.6.3-9.3,4-12.4,4.6-3.2.6-6.9-1.4-11.6,1.6-2.2-1.7-4.1-4.2-6.2-6.1-6,2.6-11.4,3.5-15.1,0,3.4-3.4,11.7-7,14.5-2.4,5.3-1.8,8.7-5.3,13.9-5.8,2-.2,3.9,1.4,6.1,1.4,1.3,0,3-1.4,4.6-1.6,3-.3,4.7.9,6.6.2,1.7-.6,3.4-1.9,4.7-3.7,4.2.8,9.7-1.7,13.3.7,6.4-3.3,11.2-2.3,15.3.3-.2-1.4,1.3-2.2,2.3-3.1,3.4,0,6.2,1.6,10.3,0h0ZM212.6,260.6c-1.9-3.3-6.1-.7-9.6.2-4-4.4-11-7-11.5-14.7,1.8-.6,3.5-.9,5.1-.7,2.1,3,3.7,7.1,6.4,8.6,2.6-.1,4.2-1,5.4-2.1,3.1,3.1,6.3,6,9.5,8.6-1.6-.4-3.2-.7-5.2,0ZM231.5,227.9c1.4-.6,2.8-1.1,4.2-1.5-.3.7-.8,1.3-1.5,2,0,1.6,1.2,3.1,1.5,4.6-.2.3-.5.6-.7.9-.8-.3-1.7-.6-2.5-.9-1.1-1.3-1.2-3.3-.9-5.2ZM235.6,259c-.9.9-3.1,2.2-5,2.8-.7-.4-1.5-.9-2.1-1.5,1.8-1.5,5.9-2.2,7.1-1.3h0ZM299.5,195.9c.6-.7,1.2-1.6,1.9-.6-.6.8-1.3.9-1.9.6ZM459.1,142c.9-1.2,1.7-2.3,2.6-2.4,1.8,1.3-1.8,3.6-2.6,2.4ZM464.6,331.3c1,0,1.9-.4,2.5.6,0,1.8-3.4,1-2.5-.6ZM519.3,165.1c.2-.3.5-.6.7-.9.4.4.8.1,1.2.3-.6.7-1.2,1.7-1.9.6h0ZM529.9,242.5c-.3,0-.6,0-.9-.2-1.9-1.8-3.8-1.2-6.1-1.9-1.7-.5-2.5-2-3.7-2-1.8,0-3.5,1.8-5.5,2-2.5.2-5.3-1.8-8.1-1-1.9.5-3.7,2-5.6,3.1-1.5-.7-2.7-2.1-4.2-2.3-.5,0-.8,0-1.2.2-.3,0-.7,0-1.1.3v.2c-.2,0-.3,0-.4.1-1.3-3.1-1.7-7-3.8-9.7,1.4.4,3.1,1.5,4.9,2,3.1.8,8.4-1.2,12.7,0,4.3,1.1,10,2.2,11.3,2.6.1,0,.3.1.4.2,0,0,.1.2.2.2,0,0,.1,0,.2,0,1.4.9,2.4,2.3,3.7,2.3,4.4,0,7.6-6.4,12.1-3.1,1.2.9,1.8,3.6,3.1,4.5,1.4-.1,3.5-.3,5.2.2-.6.3-1.1.7-1.6,1.2-1,.2-2,.4-3.1.8-1.7-3-5.1-1.5-8.5.2h0ZM535.3,318.4c1.4-1.5,8.8-.2,9.2,2.1-2,.6-9.2,1.2-9.2-2.1ZM559.2,319.8c-1.3,1.7-3.2,2.4-4.5,4.1-1.6-.5-4.1-.5-4.9-1.5-.7-1.4.6-3.2,1.1-4.5,2.5-.4,6.5.2,8.4,1.9h0ZM566.8,317.7c2.6,0,7.1-.2,8.8,2-1.1,6-10.9,4.3-8.8-2ZM588.5,312.2c-1.3.7-5-.2-5.8-1.7,1.5.3,3.9,0,5.1.9,0,0,0,0,0,0h0c.2.2.5.4.6.7h0ZM633.5,250.5c-3.2-1.1-6.5-2.2-10-2.6.4-.3.8-.7,1.2-1.2,2.9.2,7.3.7,9.1,2.5,0,.5-.2.9-.3,1.4ZM638.3,319.9c-.4,0-.6.2-.9.2,0-.4-.2-.6-.2-.9.4,0,.6-.2.9-.2,0,.4.2.6.2.9h0ZM654.6,316.6c-3.4-.6-5.4,4.6-7.7.9.5-3.1,6.4-3.5,5.9-6.4-.3-1.9-5.7-3.7-9-3.3-1.3.2-2.5,1-3.9,1.7-.2-.7-.3-1.4,0-1.9,4.7-1.9,7.4,1.4,12.1-.7,1.4.3,2.7.8,3.5,1.5,1.5,1.2.7,3,2.1,4.3-1,1.4-2.1,2.6-3.2,4ZM696.6,247.7c-3.6.3-7.7,3.6-10.5-.6.4-.5.6-1,.9-1.5.6,0,1.2,0,1.7,0,1,.2,1.7,1.6,3,1.8.9.1,2.2-.6,3.1-.4.8.2,1.6.4,2.3.7-.2,0-.4,0-.6,0h0ZM697.4,307.4c-.8,1-2.6.3-4.3,0-.3-.5-.6-1-.8-1.5,1.7-.2,3.3,0,5.1,1.5h0ZM714.8,271.4c-1.2,1.1-4.4.8-6.1-.2.4,0,.8,0,1.1-.1,1.2-.3,2.3-.9,3.4-1.5.8.5,1.4,1.1,1.6,1.9h0ZM736.8,234.4c0,1,1.3,1.1.8,2.3-.6.4-1.6.1-2.6-.2.1-1.5.8-2,1.8-2.2ZM719.4,268.2c.6.7,1.3,1.3,2,1.8-1.2.2-2.8-.4-3.3-1.6.4,0,.8-.1,1.2-.2ZM738.9,305.9c-1.7,1.3-5.5-.7-8.2-1-2.2,2.6-5.4,3.5-8.6,4.5-1.1-1.7-4-2.2-3.7-4.7.9-2,3.4-.5,5.5-.9,3.2-.6,3.4-1.8,6.8-.6,2.4.8,6.5.5,8.2,2.7h0ZM762.3,264.9c-1.1-1.3,0-4.1,1.2-5.2.5,0,1,0,1.6-.1.9.2,1.8.4,2.7.5.7.3,1.5.5,2.3.5.9.2,1.7.5,2.3,1-2.5,2.5-5.5,4.2-10.1,3.3h0ZM756.6,332c3.5-4.3,14.5-6.6,18.1.2-6.5-.7-12,0-18.1-.2ZM785.5,243.5c1-.9,3.1-.3,4.3.5-.3,1.4-4.3,1-4.3-.5ZM800.4,253.8c-.8,0-1.7-.2-2.5-.4.5-.6.9-1.3,1.2-2.2,1.7.4,2.9,1.1,3.8,2-.9.3-1.7.6-2.5.6ZM825,248.4c.7-.7,3.1-.6,3.9.4-.4,2-4,1.4-3.9-.4ZM838.3,248.4c-1.9,0-8.3,1.4-7.9-2.2,1.7-1,6.1-.4,8.2,1,0,.6.3.8-.3,1.2ZM851.8,239.9c-4.7,0-9.1.3-11.8,3.4-6-1.5-14.8-4.9-19.6-3.1-.1,1.9-1,1.8-1.2,3.2-.2,2.1,2.2,3.7,2.1,4.3-.6,1.9-4,.9-5.9,2.5-2.1-1.5-4.8-2.6-7-4.1-.3,3.2-7.8,5.1-11.1,3.9-2.8-1-2.5-4.3-5-5,2.7.4,2.4-2.8,4.9-3.6,2.4-.9,6.7,2,7.9-1.7-.7-2.6-4.1-1.4-5.6-2.5-1.9-1.4-2.1-3.1-1.6-5,2.1-.2,4.1-.4,6-.2,2,.1,3.7,1.5,5.7,1.6,1.6,0,3.1-1.2,4.8-1.2s2.4.8,3.7.9c3.4.4,5.4,0,7.4,1.9,6.1-.5,11.7.2,17,1.7,1.5-.7,2.9-1.4,4.4-2,.2.3.4.6.6.9-.3,1.2,0,2,.2,2.9.6.9,2.7.9,4.1,1.3h0ZM884.8,244.2c.9-2.2,5.6-1.7,5.6.8-1.6.6-3.8.2-5.6-.8ZM940,274c.5,0,1,0,1.4,0,.4.6.9,1.2,1.3,1.8-1.2-.6-2.1-1.2-2.7-1.8ZM1012.4,254.7c.2.4.2.9.3,1.4-.8-.1-1.5-.3-2.2-.4.7-.8,1.3-1.6,1.9-1ZM952.5,254.4c.5-.3.8-.8,1.1-1.3.4.6.6,1.4.6,2.4-.8.2-1.3-.4-1.7-1ZM990.2,282.1c-4.8-.1-14.7-.4-17.5-4.3,3-1.3,7.5-.2,11.8.5,2.5-2.8,8.9-2.6,5.7,3.8ZM1019.1,275.5c-.2,1.3-.3,2.6-.2,3.7-1.7,1.6-3.6,2.9-5.1,4.7-2.8-1.6-3.2-3.9-6.7-3.6-1.7.1-1.9,2.3-3.8,3-3.5,1.3-6.7-.2-10.4-1-.5-2.1.5-5-.2-6.9,2-1.5,5.7-.5,8.6-.7,1.4-.7,1.9-2.9,3.2-4v-.4c0,0,.5,0,.5,0-1.4-2.2-4.9-2.3-6.8-1.1-1.9-6.2,3.6-14.9-3.3-17.8-1-.4-2.6.2-4,0-2.8-.5-6.5-3.2-9-1.1-.1.4-.2.8-.2,1.2h0c0,1.4.4,2.5.8,3.6,1.9-.3,5.1-1.7,7.1-.1,1,.8,1.5,3.8.6,4.8-1.2,1.4-2.6.4-4.3.3-.1-.7-.3-1.4-.7-2.1-2.1-.7-4.8.3-7.2.7-4.9-2.2-3.5-9.5-6.7-12.6-2.3-2.2-5.5,0-8-2.1-3.8,2.4-7.3,3-10.5,2.6-.4-1.6-1-3.2-.6-5,2.3,0,5.6.7,6.9-2.5.7.9,1.5,1.8,2.2,2.8,1-.4.7-3,2.1-2-.2,1.6,1.2,1.8,2.2,2.8l.2-.6.6-.2c.5-1.3.6-2.5.6-3.8,2.2.6,4.5-.8,6.9-1.6,1.1-1.5-1.2-3.3,0-4.8,1.9-.9,3.5,2.4,5.5.4-2.8-3,.3-7.5,3.7-7.5-.8-3.2-2.5-8.8,2.2-10.2.4.5.7.9,1.1,1.4-.3,1.6-1.5,3.1-1.5,4.6,3.5,3.4,1.8,6.5,2.6,9.7,1.1-1,2.2-.9,3.2.2,1,3.5,1,7,.9,10.4,2.2,0,1.7-5,4.6-3.5,2.5,2.3-1.7,4.2,1.6,6.6.7-.7,1.5-3.6,2.9-2.8.4,1.7.6,3.4.6,5.1-5.9-2.6-15-3.7-19.8-3.1,2.1,4.1,12.4,5.9,19.5,6.3-.1,1.1-.4,2.2-.7,3.2,2-.6.2-3.7,2.2-2.9.5,1.5-.7,2.8,1.3,4.4,1.6,1.3,3.5-1,5.2,0,.4.6,0,1.1,0,1.6-.5,0-1,.1-1.4.4.7,2.2,3.2,3.1,5.7,4,.4,1.1,1.1,2.1,2.7,2.7-.2,1.3,0,3,.4,4.6-1.4.3-3,.3-3.4,3.1,3.7.7,4.7,3,6.1,5h0ZM1019.7,284.4c.6,1.4,2.8.1,0,0h0ZM1052.2,253.4c-.7,1.1-1.3.1-1.9-.6.7-.3,1.3-.2,1.9.6ZM1031.3,284.4c.1-.5.3-1.1.4-1.6,1.7,0,1.2,2.3-.4,1.6ZM1039.7,278.6c-2.7.6-7.6.7-8.3-2.3,1.5-1.5,5.1.2,7.5,0,.3.7.6,1.4.9,2.2h0ZM1040.1,268.8c.3-3.5,2.7-5.8,2.6-9.6,5.1-7.1,10.2-2.8,13.4,1,0,1.1-1.9,2.2-1,3.4,4.4-.9,8.9-1.2,13.1.9-.4,3.1,3,5.8,6.5,5.9-1.5,2.1-2.3,3.1-3.7,5.3-3.5-.7-7.2-1.8-10.6-2.8-1.7-2.6.9-5.6-1.7-7.7-1-.8-12.3-2.4-13.9-1-.9,2.9,1.9,3.5,3.8,4.7-1.3,1.8-5.4.9-8.5-.3h0ZM1070.2,280.3c1.8,3.8,7.4,5.3,6.8,10.5-.9-.2-.8,1-1.9.4-2.3-.4-.3-3.5-2.6-4-1,.3-2.3.2-2.6,1.6-.3,2,2.3,2.3,2.1,4.3-2.6.4-4.4,2.1-4.9,5.8-2,1.4-4,1.3-6.3.8,0-.2,0-.4.3-.6-.6-.8-1.2-1.3-1.9-1.4l-.2.6-.6.2c0,.2,0,.3-.1.4-1.3-.4-2.6-.8-4.1-1.2-1.7,1.6-4.3,3-7.3,1,2.5-2.7,5.2-5.8,5.2-10.8-2.4-1.7-2.9-4.5-4.6-6.6-1.9-.3-2.2,1.9-3.8,2,0-.2,0-.4,0-.6-.5-2.5-1.6-5.2-2.5-7.9,0-.2.1-.3.1-.5,4.2-.7,5.8,1.4,7.5,3.8.7-1.1,1.7-1.9,3.4-1.4.9,1.8,2.5,3,4.6,4.1-.9,1.3,0,3.7,1,3.8,1.2-1.1.3-2.4-.7-3.7,1.3.6,2.7,1.1,4.3,1.6,0,0,0,.1.1.2,0,0,0,0,0-.1.2,0,.4.2.7.2.6,5.8,8.9,2.2,5-2.3,1.2.2,1.9-.4,3.1-.2h0ZM1077.3,276.3c-.9,0-1.9,0-2.9,0,0-.9-.2-1.7.7-2.5,1,.1,1.6,1.3,2.2,2.6h0ZM1084.2,273.5c-1.1,1.2-2.4,1.9-3.9,2.3-.9-2.5-1.9-5-1.6-7.4.2-.4.3-.8.4-1.3.2,0,.4,0,.6-.1,1.1.6,2.3,1.1,3.4,1.7-.2,0-.3.1-.5.2-.9,2.4,1.3,2.9,1.6,4.6h0ZM1128.3,204.7c-.4-.5-.7-.9-1.1-1.4.4-.4.8-.8,1.3-1.2.9.9.8,1.8-.2,2.6ZM1206.6,203.8c.8-.5,1.6-.8,2.5-1.1-1,.5-2,1-3,1.4.2,0,.3-.2.4-.3ZM1200.6,202.9c-.7-1.3,0-1.8.3-2.6,1.5,0,2.9.3,4.2.8.2.8.4,1.6.6,2.4-1.1-1-3.4-.3-5-.6ZM1224,208.5c-3.6,2.5-9.4,6.8-11.2,1.8l-.6-.3-.2-.7c-1.7,1.4-3.1,2.9-3.8,4.5-1.9-1.4,0-2.6.6-3.8-1.2-2.9-2.6-.6-3.8-2,1.6-1.1,3.2-.7,5-3.1.9,1.2,1.7,2.3,2.6,2.4l.2-.6.6-.2c1.5-1.5,3.1-2.6,4.6-3.6,1.4,1.1,3.1,1.7,4.7,2.7-.3,0-.6.1-.8.2l.4.6v.7c.6,1,1.3.6,1.9,1.4h0ZM1280.5,275c.3.6-.2.8-.1,1.3-1.3.7-2.3.9-3.4.7-.2-.9-.4-1.7-.8-2.4.3-.4.6-.8.9-1.1,1,.6,2.1,1.3,3.4,1.5h0ZM1324,290.6c-1,3.7-6.7,2.8-11,4.1-1.9-3.1-8.8-3.5-11,.3-3.3-1.2-9.2,1.6-11.7-.8-1.4,0-1.3,1.1-2.8,1.1-1.7-.8-3.5-1.3-5.3-1.8,1.2-4.2,7.3-3.3,13.6-4.3,1.6-.3,3.6-1.1,4.6-1,1.5.1,3.2,2.3,4.5,2.4,3.8.3,6.6-2.8,10-2.6,3.2.2,5.8,4.3,9,2.7h0ZM1331.8,294c-.6,0-1-.3-1.1-1,1.4-.7,1.6.3,1.1,1ZM1334.2,296.4c-.9-1.6,2.6-2.3,2.5-.6-.6,1-1.5.5-2.5.6ZM1357.5,286.6c3.1-3.1,10.7-3.1,14.8-2.9-2.3,2.9-11.7,5.1-14.8,2.9ZM1378.3,286.7c1.2-2.8,9.8-4.6,12.5-3.2-1.4,3.8-9,3-12.5,3.2ZM1400.2,284.3c.8-.4,1.2,0,1.8,0,.3.7-2.2,1.2-1.8,0ZM1404.9,309.4c0-3.3,7.3-2.7,9.2-2.1-.4,2.3-7.9,3.5-9.2,2.1ZM1428.9,307.9c-1.9,1.7-5.9,2.2-8.4,1.9-.4-1.3-1.8-3.1-1.1-4.5.8-1,3.3-1,4.9-1.5,1.3,1.7,3.2,2.4,4.5,4.1h0ZM1436.4,310.1c-2.1-6.3,7.7-8,8.8-2-1.8,2.1-6.2,1.9-8.8,2ZM1448.7,289c-.3.2-.3.5-.7.6-2.5,2.6-9.2.2-11.9,0-1.8,0-3.5.7-4.7.6-1.3-.2-2.4-1.4-3.9-1.7-3.1-.6-6.8.9-9.6.4-2.5-.4-4.7-3.3-8.8-1.9,2.4-5.1,11-1,13.9-4.8,1.4.6,2.2,2.1,3.7,2.6,3.4-2.2,7.2,0,11.2.5,4.7.6,9.4-1.6,11,3.5h0ZM1452.2,317.3c.9-1.5,4.5-2.4,5.8-1.7-.7,1.8-3.9,1.4-5.8,1.7ZM1452.3,287.7c1.2-1.5,3.1-.4,3.7.9,2.4-.2,5-.7,6.7.2-1.1,5.5-8.8,1.4-10.4-1.1ZM1506.8,308.6c0-.4.3-.5.2-.9.4,0,.5.3.9.2,0,.3-.3.5-.2.9-.4,0-.5-.3-.9-.2h0ZM1483.6,321c1.2-4.4,7.3-5.5,10.8-2.8-1.1,3-8,3.5-10.8,2.8ZM1527.3,315.1c-1.4,1.2-.5,3.1-2.1,4.3-3.1,2.4-10.4,1.9-15,3.8-2.4-2.2-6.6-3.2-10.8-1-1.7-.6-3.7-3.5-4.1-4.2.5-.8,2.4-.9,3.7-1.2,1,1.1,1.8,2.4,3.3,2.7,1.9-.3,2-1.4,4-1.7,2.9-.5,4.8,2,7.2,2.2,3.3.4,8.7-1.4,8.9-3.3.4-2.9-5.5-3.2-5.9-6.4,2.3-3.7,4.3,1.4,7.7.9,1,1.4,2.1,2.6,3.2,4h0ZM1529.5,322.4c-1.2-.3-1.5-.6-1.3-1.8,1.3-.5,2,0,2.1,1.3-.5,0-.7.2-.7.6ZM1600.3,324.6c-3.4,1.1-3.6,0-6.8-.6-2.1-.4-4.7,1.1-5.5-.9-.3-2.5,2.7-3,3.8-4.7,3.2,1,6.4,1.9,8.6,4.5,2.7-.3,6.5-2.2,8.2-1-1.7,2.2-5.8,1.8-8.2,2.7ZM1626.1,295.8c6.1-.2,11.6.6,18.1-.2-3.6,6.8-14.5,4.5-18.1.2ZM1680,245.3c-1,.1-1.2-.9-.8-1.5,1-.1,1.2.9.8,1.5ZM1756.7,209c.3,0,.6-.1.8-.2,0,.3.1.6.2.8-.3,0-.6.1-.8.2,0-.3-.1-.5-.2-.8h0ZM1786.2,256.8c1-.6,2.6-1.2,3.1.2-.5.8-3.1,1.6-3.1-.2ZM1827.3,231c-.7,1.1-1.7,2-3.9,2.2-4.2,6.9-11.8.5-16.4-1.9-.2-1.8,1.7-2.2,1.2-4.1-2.2-3.6-8.2.2-9.7,2.2-2.3-2.6-5.6-3.6-9-4.4-2.1-2.5-4.2-4.9-8.2-4.6-2.1,1.2.2,3.2.4,5.5-2.5,3.1-8.3,3.2-12.8,3.7-1.5-2.7-4.9-2.4-8.4-2-1.5-3.2-4.8-3.7-8.7-3.2-1.2-.7-2-2.1-3-3.2-8.4.8-19.8,1.5-18.2-9.6,3.6-.5,6.4,3.1,9.7,3.8,1.8.4,3.7-.6,5.2-.3,3.4.7,5.7,3.9,10.7,4,5,.2,7.7-.6,11.3-2.5,3.4,2.1,7.7,8.4,11.7,3-3.1-1.9-5-5.6-10.9-3.1-.6-3-2.5-3.9-4.6-4.5,5-6.4,11.9.8,16.5.6,1,0,1.9-1.2,2.8-1.1,3.3.6,4.7,5.1,8.1,6.3,1.7.6,3.7-.3,5.3,0,1.4.3,2.2,1.8,3.6,2.2,4.1,1.2,8.6.5,12.7,1.4,3.3,3.1,7,5.4,12.3,5.4.8,1.5,2.2,2.8,1.9,4.3ZM1846.2,261.9c.6,1-.6,1-.4,1.8-1.1.4-1.3-.6-1.6-1.4.6-1,1-.3,2.1-.5h0ZM1877.6,215.5c-.4-.9-.3-1.6,0-2.1,1.3,0,2.1.4,2.6,1.6-.4.7-1.9,1-2.5.6ZM1882,197c-1.6-.2-1.5-1.1-1-2.3,1.2-.2,1.5,1.7,1,2.3ZM1916.4,239.4c.2-.8,1.2-1.4,2-.9,0,1.4-1,.8-2,.9ZM1920.8,241.4c1.4-2.6,8.8-3.4,10.7-1.5-1.8,1.3-9.4,4.3-10.7,1.5ZM1976.3,251.8c.2-2.7,5.6-4,6.4-1-1,1.3-5.3,2.6-6.4,1ZM1985.5,253.1c-.6.1-1.1.2-1.7.4-.1-.5-.3-1.1-.4-1.6,1.3-.5,2,0,2.1,1.3h0ZM2040.6,285.9c1.3,0,2.1.4,2.6,1.6-.7,1.2-1.7,1.1-2.9.6-.3-1,.4-1.4.4-2.2ZM2032.1,274.5c0,5.6,7.4,4.8,5.4,9.9-6.5.3-11.6-4.3-11.4-12.4,2,.7,3.1,3,5.9,2.5ZM1999.1,274.9c.2,1-1.3,1.3-2,.9,0-1.4,1-.8,2-.9ZM2024,294.2c-.5,1.4,1.8,2.5,2.6,3.7-4.2,5.1-16.6,5-23.4,5.6,0-1.9,1.5-2.8.5-5.2-3.8-2.6-6.4,2-7.4,4.2-1.5-2.5-3.9-3.5-4.4-7.6,1.4-1.8,6.1-1.7,7.1-3.7-.7-2.4-.9-4.5,0-6,3.8-.9,7.3-.2,10.4,1.1,6.6,2.8,12.8,12.8,13.7,1.7,2,1.2,4.8,1.1,7.1,1.8-.6,2.3-5.2,2.2-6,4.3ZM748.1,330.1c.4.9,1.3,2.7,2.4,3.8h-20.3c0-.4,0-.9,0-1.4,5.6-1.3,11.1-2.8,17.8-2.5h0Z"/>
</svg>