<svg width="236" height="249" viewBox="0 0 236 249" fill="none" xmlns="http://www.w3.org/2000/svg">
<path d="M0 238.911L53.7246 170.245L32.6101 173.123C32.1409 173.171 31.7186 173.218 31.2963 173.218C28.2465 173.218 25.6189 171.708 24.3989 169.112C23.0382 166.139 23.6482 162.363 26.0881 159.249L77.1382 94.0277L61.8419 96.1042C61.3727 96.1514 60.9504 96.1986 60.5281 96.1986C57.4782 96.1986 54.8976 94.6884 53.6776 92.0928C52.3169 89.1197 52.9269 85.297 55.3668 82.2295L115.52 5.35181C117.772 2.47303 121.197 0.679688 124.528 0.679688C127.86 0.679688 130.581 2.47303 131.613 5.35181L160.329 82.2766C161.502 85.3442 160.564 89.1668 157.983 92.14C155.402 95.066 151.555 96.6234 148.177 96.1514L133.725 94.1221L158.03 159.296C159.156 162.363 158.265 166.186 155.684 169.112C153.103 172.085 149.303 173.595 145.877 173.123L125.889 170.245L152.493 241.695C152.728 242.309 152.822 242.969 152.916 243.63V245.376L0 238.911ZM217.76 148.205L227.473 149.574C229.725 149.904 232.353 148.866 234.089 146.884C235.825 144.902 236.435 142.306 235.684 140.277L216.4 88.5061C215.696 86.5712 213.866 85.3914 211.614 85.3914C209.362 85.3914 207.062 86.5712 205.561 88.5061L172.247 131.074L181.537 155.992C183.883 162.316 182.335 169.678 177.455 175.247C172.951 180.438 165.913 183.223 159.485 182.326L154.886 181.665L176.001 238.439C176.658 240.091 177.033 244.857 177.033 244.857C177.033 244.857 177.033 244.951 177.033 244.999V246.414L230.617 248.68C230.57 248.302 230.523 247.877 230.382 247.5L212.505 199.457L225.925 201.392C228.224 201.723 230.758 200.684 232.494 198.702C234.23 196.72 234.84 194.172 234.089 192.095L217.76 148.253V148.205Z" fill="#FFC340"/>
</svg>
