<svg width="232" height="50" viewBox="0 0 232 50" fill="none" xmlns="http://www.w3.org/2000/svg">
<g clip-path="url(#clip0_2078_4146)">
<path d="M25.13 20.6202L29.07 15.6202L27.52 15.8302C27.52 15.8302 27.45 15.8302 27.42 15.8302C27.2 15.8302 27.01 15.7202 26.92 15.5302C26.82 15.3102 26.87 15.0402 27.04 14.8102L30.78 10.0602L29.66 10.2102C29.66 10.2102 29.6 10.2102 29.56 10.2102C29.34 10.2102 29.15 10.1002 29.06 9.91021C28.96 9.69021 29.01 9.42021 29.18 9.19021L33.59 3.59021C33.75 3.38021 34.01 3.25021 34.25 3.25021C34.49 3.25021 34.69 3.38021 34.77 3.59021L36.87 9.19021C36.96 9.41021 36.89 9.69021 36.7 9.91021C36.51 10.1202 36.23 10.2402 35.98 10.2002L34.92 10.0502L36.7 14.8002C36.78 15.0202 36.72 15.3002 36.53 15.5202C36.34 15.7402 36.06 15.8502 35.81 15.8102L34.35 15.6002L36.3 20.8002C36.3 20.8002 36.32 20.8902 36.33 20.9402C36.92 20.9702 37.51 21.0002 38.11 21.0402C38.11 20.8802 38.09 20.7102 38.03 20.5602L36.48 16.4202L36.82 16.4702C37.29 16.5402 37.81 16.3302 38.14 15.9602C38.5 15.5602 38.61 15.0202 38.44 14.5602L37.76 12.7402L40.2 9.64021C40.31 9.50021 40.48 9.41021 40.64 9.41021C40.8 9.41021 40.94 9.50021 40.99 9.64021L42.4 13.4102C42.46 13.5602 42.41 13.7502 42.28 13.8902C42.15 14.0302 41.96 14.1102 41.8 14.0902L41.09 13.9902L42.29 17.1802C42.35 17.3302 42.3 17.5202 42.17 17.6602C42.04 17.8102 41.85 17.8802 41.69 17.8602L40.71 17.7202L42.02 21.2202C42.02 21.2202 42.03 21.2802 42.04 21.3102C43.58 21.4302 45.13 21.5602 46.71 21.7202C48.03 19.0702 48.69 16.0602 48.69 12.7002C48.69 8.91021 47.54 5.84021 45.23 3.49021C42.92 1.15021 39.97 -0.0297852 36.37 -0.0297852C31.88 -0.0297852 28.24 1.65022 25.45 5.00022C22.66 8.35021 21.27 12.4302 21.27 17.2302C21.27 18.4302 21.38 19.5402 21.59 20.5802C22.69 20.5802 23.88 20.5802 25.15 20.5902L25.13 20.6202Z" fill="#5B3729"/>
<path d="M170.98 42.75L169.87 43.02C169.76 42.04 169.48 41.35 169.04 40.97C168.6 40.59 168.09 40.39 167.5 40.39C166.82 40.39 166.24 40.62 165.75 41.09C165.26 41.55 164.87 42.25 164.57 43.17C164.27 44.09 164.12 44.95 164.12 45.75C164.12 46.76 164.34 47.54 164.79 48.08C165.23 48.63 165.82 48.9 166.55 48.9C167.71 48.9 168.62 48.11 169.29 46.52L170.31 46.91C169.55 48.92 168.29 49.93 166.52 49.93C165.34 49.93 164.43 49.51 163.79 48.68C163.15 47.85 162.83 46.79 162.83 45.5C162.83 43.96 163.26 42.56 164.12 41.28C164.98 40 166.1 39.37 167.46 39.37C168.34 39.37 169.11 39.64 169.77 40.17C170.43 40.7 170.83 41.56 170.97 42.74L170.98 42.75Z" fill="#5B3729"/>
<path d="M177.26 46.79H173.56L172.11 49.76H170.96L175.93 39.63H177.32L179.08 49.76H177.78L177.25 46.79H177.26ZM177.12 45.77L176.34 41.12L174.06 45.77H177.12Z" fill="#5B3729"/>
<path d="M191.05 49.76H189.82L191.38 40.46L186.52 49.76H185.59L183.78 40.61L182.24 49.76H181.21L182.91 39.63H184.78L186.44 47.93L190.76 39.63H192.76L191.06 49.76H191.05Z" fill="#5B3729"/>
<path d="M196.12 45.66L195.44 49.76H194.2L195.89 39.63H198.67C199.49 39.63 200.13 39.7 200.6 39.85C201.06 40 201.46 40.32 201.78 40.81C202.11 41.3 202.27 41.84 202.27 42.43C202.27 43.21 201.99 43.94 201.42 44.63C200.85 45.32 199.77 45.66 198.16 45.66H196.12ZM196.29 44.66H197.68C198.54 44.66 199.16 44.62 199.55 44.53C199.94 44.44 200.27 44.21 200.55 43.83C200.83 43.45 200.98 42.99 200.98 42.46C200.98 42.05 200.89 41.69 200.72 41.4C200.55 41.1 200.33 40.9 200.05 40.79C199.78 40.68 199.31 40.62 198.64 40.62L196.96 40.64L196.29 44.67V44.66Z" fill="#5B3729"/>
<path d="M210.89 41.75L209.81 42.16C209.62 41.6 209.3 41.15 208.83 40.82C208.37 40.49 207.83 40.32 207.23 40.32C206.49 40.32 205.94 40.5 205.58 40.85C205.22 41.2 205.04 41.62 205.04 42.1C205.04 42.42 205.12 42.69 205.28 42.91C205.44 43.14 205.65 43.3 205.91 43.41C206.17 43.52 206.65 43.66 207.34 43.83C208.25 44.06 208.9 44.27 209.28 44.46C209.66 44.65 209.99 44.94 210.26 45.35C210.53 45.76 210.67 46.24 210.67 46.8C210.67 47.75 210.32 48.52 209.62 49.1C208.92 49.68 207.99 49.97 206.83 49.97C204.65 49.97 203.27 49.03 202.69 47.15L203.8 46.75C204.26 48.21 205.27 48.95 206.83 48.95C207.67 48.95 208.31 48.75 208.76 48.34C209.2 47.93 209.42 47.46 209.42 46.93C209.42 46.6 209.34 46.32 209.18 46.07C209.02 45.83 208.81 45.64 208.56 45.53C208.31 45.41 207.9 45.29 207.33 45.15C206.46 44.94 205.79 44.73 205.32 44.51C204.85 44.29 204.48 43.99 204.21 43.6C203.94 43.21 203.8 42.75 203.8 42.22C203.8 41.41 204.11 40.73 204.72 40.19C205.33 39.64 206.14 39.37 207.15 39.37C209.01 39.37 210.26 40.17 210.9 41.76L210.89 41.75Z" fill="#5B3729"/>
<path d="M10.08 18.54H19.26L20.31 12.29H11.14L11.99 7.25H23.82L24.91 0.809999H4.72L0 29.04C2.85 28.6 5.69 28.2 8.52 27.84L10.08 18.54Z" fill="#5B3729"/>
<path d="M57.35 18.56H60.74L62.16 24.7C64.96 24.7 67.74 24.72 70.52 24.76L68.63 17.44C72.64 15.99 74.65 13.21 74.65 9.11C74.65 6.55 73.83 4.53 72.19 3.04C70.55 1.55 68.04 0.809999 64.64 0.809999H52.13L48.11 24.89C50.85 24.82 53.58 24.77 56.31 24.74L57.35 18.57V18.56ZM59.32 6.81H62.32C64.92 6.81 66.22 7.69 66.22 9.45C66.22 11.55 64.67 12.6 61.58 12.6H58.36L59.33 6.81H59.32Z" fill="#5B3729"/>
<path d="M121.38 7.3H127.51L124.18 27.14C126.93 27.31 129.68 27.48 132.42 27.64L135.83 7.3H142.15L143.24 0.709999H122.5L121.47 6.83C121.52 6.96 121.58 7.09 121.62 7.22L121.39 7.29L121.38 7.3Z" fill="#5B3729"/>
<path d="M161.53 21.39L158.63 20.3C156.74 24.79 154.15 27.04 150.89 27.04C148.83 27.04 147.17 26.27 145.91 24.72C144.65 23.17 144.03 20.97 144.03 18.12C144.03 15.85 144.45 13.42 145.29 10.82C146.13 8.22 147.24 6.26 148.62 4.94C150 3.63 151.65 2.97 153.57 2.97C155.22 2.97 156.67 3.51 157.92 4.6C159.17 5.68 159.95 7.62 160.27 10.4L163.4 9.62C162.99 6.29 161.86 3.87 160 2.36C158.14 0.85 155.96 0.0900002 153.47 0.0900002C149.61 0.0900002 146.46 1.89 144.02 5.49C141.58 9.09 140.36 13.07 140.36 17.42C140.36 21.06 141.27 24.05 143.08 26.4C143.7 27.21 144.42 27.87 145.22 28.39C148.64 28.58 152.04 28.76 155.43 28.92C158.08 27.64 160.12 25.13 161.53 21.38V21.39Z" fill="#6BDE46"/>
<path d="M179.87 29.45L180.37 26.41H166.15L170.43 0.809999H166.94L162.19 29.23C164.29 29.31 166.39 29.39 168.49 29.45H179.87Z" fill="#6BDE46"/>
<path d="M189.87 0.809999H186.36L181.58 29.45H185.09L189.87 0.809999Z" fill="#6BDE46"/>
<path d="M193.3 29.45L195.55 15.98H207.63L208.11 13.15H196.02L197.6 3.7H211.61L212.09 0.809999H194.57L189.79 29.45H193.3Z" fill="#6BDE46"/>
<path d="M214.9 15.98H226.98L227.46 13.15H215.37L216.95 3.71H230.96L231.44 0.809999H213.92L209.2 29.06C210.39 28.99 211.57 28.91 212.75 28.82L214.89 15.99L214.9 15.98Z" fill="#6BDE46"/>
<path d="M120.53 19.89C120.53 18.79 120.31 17.75 119.86 16.78C119.41 15.81 118.68 14.91 117.65 14.1C116.63 13.28 115.52 12.66 114.33 12.24L109.78 10.62C108.55 10.18 107.8 9.82 107.54 9.53C107.27 9.24 107.14 8.89 107.14 8.48C107.14 7.22 108.08 6.59 109.97 6.59C110.98 6.59 111.9 6.83 112.74 7.32C113.57 7.81 114.1 8.47 114.31 9.32L121.37 7.31L121.45 6.85C120.69 4.94 119.35 3.41 117.4 2.26C115.25 0.99 112.66 0.35 109.64 0.35C105.68 0.35 102.74 1.26 100.82 3.07C98.9 4.88 97.93 7.09 97.93 9.71C97.93 11.22 98.28 12.53 98.99 13.65C99.7 14.77 100.58 15.61 101.64 16.18C102.7 16.75 104.54 17.51 107.17 18.48C109.11 19.2 110.2 19.61 110.43 19.73C110.66 19.85 110.88 20.04 111.08 20.31C111.28 20.58 111.38 20.88 111.38 21.23C111.38 21.78 111.12 22.26 110.59 22.69C110.07 23.12 109.22 23.33 108.04 23.33C105.23 23.33 103.47 22.32 102.76 20.3L95.66 22.87H82.86L83.7 17.79H94L95.05 11.58H84.73L85.47 7.09H97.76L98.81 0.82H78.22L74.21 24.85C88.85 25.15 103.27 25.92 117.46 26.77C119.5 24.93 120.53 22.65 120.53 19.91V19.89Z" fill="#5B3729"/>
<path d="M121.61 7.24C121.56 7.11 121.51 6.98 121.46 6.85L121.38 7.31L121.61 7.24Z" fill="#5B3729"/>
<path d="M24.3699 26.1799C31.0299 25.6699 38.0799 25.2999 44.5599 25.0499C45.0199 24.4799 45.4499 23.8799 45.8299 23.2699C42.7199 23.0399 34.9199 22.6599 22.4199 23.2899C22.9099 24.3799 23.5699 25.3399 24.3699 26.1799Z" fill="#5B3729"/>
</g>
<defs>
<clipPath id="clip0_2078_4146">
<rect width="231.45" height="49.97" fill="white"/>
</clipPath>
</defs>
</svg>
