<svg width="72" height="72" viewBox="0 0 72 72" fill="none" xmlns="http://www.w3.org/2000/svg">
<path fill-rule="evenodd" clip-rule="evenodd" d="M66.802 59.7914L66.8008 59.7938H66.8271L66.802 59.7914ZM30.0639 57.9335C15.633 57.2692 2.1826 56.6873 0.840262 56.6873C0.28884 53.8282 0 50.7766 0 47.4777C0 34.2818 3.64989 23.0653 10.9759 13.8557C18.2757 4.64605 27.8337 0.0274914 39.6499 0C49.1028 0 56.849 3.24399 62.9146 9.67698C68.9803 16.1375 72 24.5773 72 34.9966C72 44.2326 70.2673 52.5067 66.802 59.7914C65.0326 59.6205 54.2895 59.0762 41.9629 58.49C41.9633 58.4676 41.9635 58.4452 41.9635 58.4229V38.3143H51.3132C52.2149 38.3143 53.0797 37.9458 53.7173 37.29C54.3549 36.6342 54.7131 35.7446 54.7131 34.8171V29.5714C54.7131 28.6439 54.3549 27.7544 53.7173 27.0986C53.0797 26.4427 52.2149 26.0743 51.3132 26.0743H41.9635V16.4571C41.9635 15.5296 41.6053 14.6401 40.9677 13.9843C40.3301 13.3284 39.4653 12.96 38.5636 12.96H33.4638C32.5621 12.96 31.6973 13.3284 31.0597 13.9843C30.4221 14.6401 30.0639 15.5296 30.0639 16.4571V26.0743H20.7142C19.8125 26.0743 18.9477 26.4427 18.3101 27.0986C17.6725 27.7544 17.3143 28.6439 17.3143 29.5714V34.8171C17.3143 35.7446 17.6725 36.6342 18.3101 37.29C18.9477 37.9458 19.8125 38.3143 20.7142 38.3143H30.0639V57.9335ZM61.1816 68.8935C44.1663 69.5807 25.6543 70.5979 8.1663 72C6.06564 69.6907 4.3326 67.0515 3.04595 64.055C35.8687 62.323 56.3501 63.3677 64.5164 64C63.5186 65.677 62.3895 67.3265 61.1816 68.8935Z" fill="#49C637"/>
</svg>
