<svg width="48" height="49" viewBox="0 0 48 49" fill="none" xmlns="http://www.w3.org/2000/svg">
<path fill-rule="evenodd" clip-rule="evenodd" d="M44.5347 40.3609L44.5339 40.3625H44.5514L44.5347 40.3609ZM20.0426 39.1223C10.422 38.6794 1.45507 38.2915 0.560175 38.2915C0.19256 36.3855 0 34.3511 0 32.1518C0 23.3545 2.43326 15.8769 7.31728 9.73711C12.1838 3.59737 18.5558 0.518328 26.4332 0.5C32.7352 0.5 37.8993 2.66266 41.9431 6.95132C45.9868 11.2583 48 16.8849 48 23.831C48 29.9884 46.8449 35.5045 44.5347 40.3609C43.3551 40.247 36.193 39.8841 27.9753 39.4933C27.9755 39.4784 27.9757 39.4635 27.9757 39.4486V26.0429H34.2088C34.81 26.0429 35.3865 25.7972 35.8115 25.36C36.2366 24.9228 36.4754 24.3298 36.4754 23.7114V20.2143C36.4754 19.596 36.2366 19.0029 35.8115 18.5657C35.3865 18.1285 34.81 17.8829 34.2088 17.8829H27.9757V11.4714C27.9757 10.8531 27.7369 10.2601 27.3118 9.82286C26.8867 9.38563 26.3102 9.14 25.7091 9.14H22.3092C21.708 9.14 21.1315 9.38563 20.7065 9.82286C20.2814 10.2601 20.0426 10.8531 20.0426 11.4714V17.8829H13.8094C13.2083 17.8829 12.6318 18.1285 12.2067 18.5657C11.7817 19.0029 11.5429 19.596 11.5429 20.2143V23.7114C11.5429 24.3298 11.7817 24.9228 12.2067 25.36C12.6318 25.7972 13.2083 26.0429 13.8094 26.0429H20.0426V39.1223ZM40.7877 46.429C29.4442 46.8872 17.1028 47.5653 5.4442 48.5C4.04376 46.9605 2.8884 45.201 2.03063 43.2033C23.9125 42.0487 37.5667 42.7451 43.0109 43.1667C42.3457 44.2847 41.593 45.3843 40.7877 46.429Z" fill="#58616B"/>
</svg>
