<svg width="30" height="31" viewBox="0 0 30 31" fill="none" xmlns="http://www.w3.org/2000/svg">
<g clip-path="url(#clip0_2078_12828)">
<path d="M30 15.1484C30 6.86416 23.2843 0.148438 15 0.148438C6.71572 0.148438 0 6.86416 0 15.1484C0 22.6353 5.48525 28.8409 12.6562 29.9662V19.4844H8.84766V15.1484H12.6562V11.8438C12.6562 8.08438 14.8957 6.00781 18.322 6.00781C19.9626 6.00781 21.6797 6.30078 21.6797 6.30078V9.99219H19.7883C17.925 9.99219 17.3438 11.1485 17.3438 12.3359V15.1484H21.5039L20.8389 19.4844H17.3438V29.9662C24.5147 28.8409 30 22.6353 30 15.1484Z" fill="white"/>
</g>
<defs>
<clipPath id="clip0_2078_12828">
<rect width="30" height="30" fill="white" transform="translate(0 0.148438)"/>
</clipPath>
</defs>
</svg>
