<svg width="72" height="72" viewBox="0 0 72 72" fill="none" xmlns="http://www.w3.org/2000/svg">
<path fill-rule="evenodd" clip-rule="evenodd" d="M66.802 59.7914L66.8008 59.7938H66.8271L66.802 59.7914ZM31.1886 57.9853C16.3389 57.2997 2.21742 56.6873 0.840262 56.6873C0.28884 53.8282 0 50.7766 0 47.4777C0 34.2818 3.64989 23.0653 10.9759 13.8557C18.2757 4.64605 27.8337 0.0274914 39.6499 0C49.1028 0 56.849 3.24399 62.9146 9.67698C68.9803 16.1375 72 24.5773 72 34.9966C72 44.2326 70.2673 52.5067 66.802 59.7914C64.9534 59.6129 53.3096 59.0267 40.2984 58.411C46.0836 53.9032 56.7908 43.9928 56.7908 32.4407C56.7874 28.803 55.5745 25.3155 53.4183 22.7432C51.2621 20.171 48.3386 18.7241 45.2892 18.72C41.4584 18.72 38.1044 20.6852 36.0137 24.0069C33.923 20.6852 30.569 18.72 26.7382 18.72C23.6888 18.7241 20.7653 20.171 18.6091 22.7432C16.4529 25.3155 15.24 28.803 15.2366 32.4407C15.2366 43.6419 25.3031 53.2995 31.1886 57.9853ZM61.1816 68.8935C44.1663 69.5807 25.6543 70.5979 8.1663 72C6.06564 69.6907 4.3326 67.0515 3.04595 64.055C35.8687 62.323 56.3501 63.3677 64.5164 64C63.5186 65.677 62.3895 67.3265 61.1816 68.8935Z" fill="#49C637"/>
</svg>
