<svg width="48" height="49" viewBox="0 0 48 49" fill="none" xmlns="http://www.w3.org/2000/svg">
<path fill-rule="evenodd" clip-rule="evenodd" d="M44.5347 40.3609L44.5339 40.3625H44.5514L44.5347 40.3609ZM27.312 39.4618C25.2994 39.3664 23.2321 39.2697 21.1811 39.1748V34.0418C21.1811 33.7668 21.2885 33.503 21.4798 33.3086C21.671 33.1141 21.9303 33.0049 22.2007 33.0049H26.2792C26.5496 33.0049 26.809 33.1141 27.0002 33.3086C27.1914 33.503 27.2988 33.7668 27.2988 34.0418V39.2262C27.2988 39.3053 27.3033 39.384 27.312 39.4618ZM36.3641 39.9019C40.6497 40.1172 43.7887 40.2889 44.5347 40.3609C46.8449 35.5045 48 29.9884 48 23.831C48 16.8849 45.9868 11.2583 41.9431 6.95132C37.8993 2.66266 32.7352 0.5 26.4332 0.5C18.5558 0.518328 12.1838 3.59737 7.31728 9.73711C2.43326 15.8769 0 23.3545 0 32.1518C0 34.3511 0.19256 36.3855 0.560175 38.2915C1.19507 38.2915 5.89289 38.4868 12.0046 38.7584V27.2437C12.0045 26.9567 12.0631 26.6728 12.1765 26.41C12.2899 26.1471 12.4557 25.9111 12.6635 25.7169L22.8597 15.9338L22.8737 15.9196C23.2491 15.5724 23.7383 15.38 24.2457 15.38C24.7531 15.38 25.2423 15.5724 25.6177 15.9196C25.6221 15.9246 25.6268 15.9294 25.6318 15.9338L35.8279 25.7169C36.0336 25.9122 36.1973 26.1486 36.3087 26.4114C36.4201 26.6742 36.4769 26.9575 36.4754 27.2437V39.2262C36.4754 39.4584 36.4371 39.6865 36.3641 39.9019ZM40.7877 46.429C29.4442 46.8872 17.1028 47.5653 5.4442 48.5C4.04376 46.9605 2.8884 45.201 2.03063 43.2033C23.9125 42.0487 37.5667 42.7451 43.0109 43.1667C42.3457 44.2847 41.593 45.3843 40.7877 46.429Z" fill="#58616B"/>
</svg>
