<svg width="72" height="72" viewBox="0 0 72 72" fill="none" xmlns="http://www.w3.org/2000/svg">
<path fill-rule="evenodd" clip-rule="evenodd" d="M66.802 59.7914L66.8008 59.7938H66.8271L66.802 59.7914ZM40.968 58.4427C37.9491 58.2996 34.8482 58.1545 31.7717 58.0123V50.3127C31.7717 49.9002 31.9328 49.5046 32.2196 49.2129C32.5065 48.9212 32.8955 48.7573 33.3011 48.7573H39.4188C39.8244 48.7573 40.2135 48.9212 40.5003 49.2129C40.7871 49.5046 40.9482 49.9002 40.9482 50.3127V58.0893C40.9482 58.208 40.9549 58.326 40.968 58.4427ZM54.5461 59.1029C60.9745 59.4259 65.683 59.6833 66.802 59.7914C70.2673 52.5067 72 44.2326 72 34.9966C72 24.5773 68.9803 16.1375 62.9146 9.67698C56.849 3.24399 49.1028 0 39.6499 0C27.8337 0.0274914 18.2757 4.64605 10.9759 13.8557C3.64989 23.0653 0 34.2818 0 47.4777C0 50.7766 0.28884 53.8282 0.840262 56.6873C1.7926 56.6873 8.83933 56.9802 18.0068 57.3876V40.1155C18.0068 39.685 18.0946 39.2592 18.2647 38.8649C18.4349 38.4707 18.6836 38.1167 18.9952 37.8253L34.2895 23.1507L34.3105 23.1294C34.8736 22.6086 35.6074 22.32 36.3686 22.32C37.1297 22.32 37.8635 22.6086 38.4266 23.1294C38.4331 23.137 38.4401 23.1441 38.4476 23.1507L53.7419 37.8253C54.0504 38.1182 54.2959 38.4729 54.4631 38.8671C54.6302 39.2612 54.7153 39.6863 54.7131 40.1155V58.0893C54.7131 58.4376 54.6556 58.7798 54.5461 59.1029ZM61.1816 68.8935C44.1663 69.5807 25.6543 70.5979 8.1663 72C6.06564 69.6907 4.3326 67.0515 3.04595 64.055C35.8687 62.323 56.3501 63.3677 64.5164 64C63.5186 65.677 62.3895 67.3265 61.1816 68.8935Z" fill="#49C637"/>
</svg>
