<svg width="30" height="31" viewBox="0 0 30 31" fill="none" xmlns="http://www.w3.org/2000/svg">
<g clip-path="url(#clip0_2078_12830)">
<path d="M15 2.84961C19.0078 2.84961 19.4824 2.86719 21.0586 2.9375C22.5234 3.00195 23.3145 3.24805 23.8418 3.45313C24.5391 3.72266 25.043 4.05078 25.5645 4.57227C26.0918 5.09961 26.4141 5.59766 26.6836 6.29492C26.8887 6.82227 27.1348 7.61914 27.1992 9.07812C27.2695 10.6602 27.2871 11.1348 27.2871 15.1367C27.2871 19.1445 27.2695 19.6191 27.1992 21.1953C27.1348 22.6602 26.8887 23.4512 26.6836 23.9785C26.4141 24.6758 26.0859 25.1797 25.5645 25.7012C25.0371 26.2285 24.5391 26.5508 23.8418 26.8203C23.3145 27.0254 22.5176 27.2715 21.0586 27.3359C19.4766 27.4062 19.002 27.4238 15 27.4238C10.9922 27.4238 10.5176 27.4062 8.94141 27.3359C7.47656 27.2715 6.68555 27.0254 6.1582 26.8203C5.46094 26.5508 4.95703 26.2227 4.43555 25.7012C3.9082 25.1738 3.58594 24.6758 3.31641 23.9785C3.11133 23.4512 2.86523 22.6543 2.80078 21.1953C2.73047 19.6133 2.71289 19.1387 2.71289 15.1367C2.71289 11.1289 2.73047 10.6543 2.80078 9.07812C2.86523 7.61328 3.11133 6.82227 3.31641 6.29492C3.58594 5.59766 3.91406 5.09375 4.43555 4.57227C4.96289 4.04492 5.46094 3.72266 6.1582 3.45313C6.68555 3.24805 7.48242 3.00195 8.94141 2.9375C10.5176 2.86719 10.9922 2.84961 15 2.84961ZM15 0.148438C10.9277 0.148438 10.418 0.166016 8.81836 0.236328C7.22461 0.306641 6.12891 0.564453 5.17969 0.933594C4.18945 1.32031 3.35156 1.83008 2.51953 2.66797C1.68164 3.5 1.17188 4.33789 0.785156 5.32227C0.416016 6.27734 0.158203 7.36719 0.0878906 8.96094C0.0175781 10.5664 0 11.0762 0 15.1484C0 19.2207 0.0175781 19.7305 0.0878906 21.3301C0.158203 22.9238 0.416016 24.0195 0.785156 24.9688C1.17188 25.959 1.68164 26.7969 2.51953 27.6289C3.35156 28.4609 4.18945 28.9766 5.17383 29.3574C6.12891 29.7266 7.21875 29.9844 8.8125 30.0547C10.4121 30.125 10.9219 30.1426 14.9941 30.1426C19.0664 30.1426 19.5762 30.125 21.1758 30.0547C22.7695 29.9844 23.8652 29.7266 24.8145 29.3574C25.7988 28.9766 26.6367 28.4609 27.4688 27.6289C28.3008 26.7969 28.8164 25.959 29.1973 24.9746C29.5664 24.0195 29.8242 22.9297 29.8945 21.3359C29.9648 19.7363 29.9824 19.2266 29.9824 15.1543C29.9824 11.082 29.9648 10.5723 29.8945 8.97266C29.8242 7.37891 29.5664 6.2832 29.1973 5.33398C28.8281 4.33789 28.3184 3.5 27.4805 2.66797C26.6484 1.83594 25.8105 1.32031 24.8262 0.939453C23.8711 0.570312 22.7813 0.3125 21.1875 0.242188C19.582 0.166016 19.0723 0.148438 15 0.148438Z" fill="white"/>
<path d="M15 7.44336C10.7461 7.44336 7.29492 10.8945 7.29492 15.1484C7.29492 19.4023 10.7461 22.8535 15 22.8535C19.2539 22.8535 22.7051 19.4023 22.7051 15.1484C22.7051 10.8945 19.2539 7.44336 15 7.44336ZM15 20.1465C12.2402 20.1465 10.002 17.9082 10.002 15.1484C10.002 12.3887 12.2402 10.1504 15 10.1504C17.7598 10.1504 19.998 12.3887 19.998 15.1484C19.998 17.9082 17.7598 20.1465 15 20.1465Z" fill="white"/>
<path d="M24.8086 7.13867C24.8086 8.13477 24 8.9375 23.0098 8.9375C22.0137 8.9375 21.2109 8.12891 21.2109 7.13867C21.2109 6.14258 22.0195 5.33984 23.0098 5.33984C24 5.33984 24.8086 6.14844 24.8086 7.13867Z" fill="white"/>
</g>
<defs>
<clipPath id="clip0_2078_12830">
<rect width="30" height="30" fill="white" transform="translate(0 0.148438)"/>
</clipPath>
</defs>
</svg>
