<svg width="48" height="49" viewBox="0 0 48 49" fill="none" xmlns="http://www.w3.org/2000/svg">
<path fill-rule="evenodd" clip-rule="evenodd" d="M44.5347 40.3609L44.5339 40.3625H44.5514L44.5347 40.3609ZM21.9342 39.2097C11.6279 38.7318 1.51353 38.2915 0.560175 38.2915C0.19256 36.3855 0 34.3511 0 32.1518C0 23.3545 2.43326 15.8769 7.31728 9.73711C12.1838 3.59737 18.5558 0.518328 26.4332 0.5C32.7352 0.5 37.8993 2.66266 41.9431 6.95132C45.9868 11.2583 48 16.8849 48 23.831C48 29.9884 46.8449 35.5045 44.5347 40.3609C43.2762 40.2394 35.2081 39.8344 26.3135 39.4146C29.2657 36.8351 35.552 30.4081 35.552 22.4601C35.5486 19.3104 34.3557 16.2907 32.235 14.0636C30.1143 11.8364 27.2391 10.5836 24.24 10.58C21.2409 10.5836 18.3656 11.8364 16.245 14.0636C14.1243 16.2907 12.9314 19.3104 12.928 22.4601C12.928 30.2054 18.8977 36.5063 21.9342 39.2097ZM40.7877 46.429C29.4442 46.8872 17.1028 47.5653 5.4442 48.5C4.04376 46.9605 2.8884 45.201 2.03063 43.2033C23.9125 42.0487 37.5667 42.7451 43.0109 43.1667C42.3457 44.2847 41.593 45.3843 40.7877 46.429ZM26.5253 18.8681C25.8488 18.3934 25.0536 18.1401 24.24 18.1401C23.149 18.1401 22.1028 18.5952 21.3313 19.4054C20.5599 20.2156 20.1265 21.3144 20.1265 22.4601C20.1265 23.3145 20.3678 24.1498 20.8198 24.8602C21.2718 25.5706 21.9142 26.1243 22.6658 26.4513C23.4175 26.7783 24.2446 26.8638 25.0425 26.6972C25.8404 26.5305 26.5734 26.119 27.1486 25.5149C27.7239 24.9107 28.1157 24.1409 28.2744 23.3029C28.4331 22.4649 28.3517 21.5963 28.0403 20.8069C27.729 20.0175 27.2018 19.3428 26.5253 18.8681Z" fill="#58616B"/>
</svg>
