<svg width="30" height="31" viewBox="0 0 30 31" fill="none" xmlns="http://www.w3.org/2000/svg">
<path d="M29.7012 9.14844C29.7012 9.14844 29.4082 7.08008 28.5059 6.17188C27.3633 4.97656 26.0859 4.9707 25.5 4.90039C21.3047 4.5957 15.0059 4.5957 15.0059 4.5957H14.9941C14.9941 4.5957 8.69531 4.5957 4.5 4.90039C3.91406 4.9707 2.63672 4.97656 1.49414 6.17188C0.591797 7.08008 0.304688 9.14844 0.304688 9.14844C0.304688 9.14844 0 11.5801 0 14.0059V16.2793C0 18.7051 0.298828 21.1367 0.298828 21.1367C0.298828 21.1367 0.591797 23.2051 1.48828 24.1133C2.63086 25.3086 4.13086 25.2676 4.79883 25.3965C7.20117 25.625 15 25.6953 15 25.6953C15 25.6953 21.3047 25.6836 25.5 25.3848C26.0859 25.3145 27.3633 25.3086 28.5059 24.1133C29.4082 23.2051 29.7012 21.1367 29.7012 21.1367C29.7012 21.1367 30 18.7109 30 16.2793V14.0059C30 11.5801 29.7012 9.14844 29.7012 9.14844ZM11.9004 19.0391V10.6074L20.0039 14.8379L11.9004 19.0391Z" fill="white"/>
</svg>
