<svg width="48" height="49" viewBox="0 0 48 49" fill="none" xmlns="http://www.w3.org/2000/svg">
<path fill-rule="evenodd" clip-rule="evenodd" d="M44.5347 40.3609L44.5339 40.3625H44.5514L44.5347 40.3609ZM20.7924 39.1569C10.8926 38.6998 1.47828 38.2915 0.560175 38.2915C0.19256 36.3855 0 34.3511 0 32.1518C0 23.3545 2.43326 15.8769 7.31728 9.73711C12.1838 3.59737 18.5558 0.518328 26.4332 0.5C32.7352 0.5 37.8993 2.66266 41.9431 6.95132C45.9868 11.2583 48 16.8849 48 23.831C48 29.9884 46.8449 35.5045 44.5347 40.3609C43.3023 40.2419 35.5397 39.8511 26.8656 39.4407C30.7224 36.4355 37.8606 29.8285 37.8606 22.1272C37.8583 19.702 37.0497 17.377 35.6122 15.6622C34.1747 13.9473 32.2257 12.9827 30.1928 12.98C27.6389 12.98 25.4029 14.2901 24.0091 16.5046C22.6153 14.2901 20.3793 12.98 17.8255 12.98C15.7926 12.9827 13.8436 13.9473 12.4061 15.6622C10.9686 17.377 10.16 19.702 10.1577 22.1272C10.1577 29.5946 16.8687 36.033 20.7924 39.1569ZM40.7877 46.429C29.4442 46.8872 17.1028 47.5653 5.4442 48.5C4.04376 46.9605 2.8884 45.201 2.03063 43.2033C23.9125 42.0487 37.5667 42.7451 43.0109 43.1667C42.3457 44.2847 41.593 45.3843 40.7877 46.429Z" fill="white"/>
</svg>
