<svg width="20" height="21" viewBox="0 0 20 21" fill="none" xmlns="http://www.w3.org/2000/svg">
<path d="M18.1245 3C18.1245 2.83424 18.0586 2.67527 17.9414 2.55806C17.8242 2.44085 17.6652 2.375 17.4995 2.375C14.0557 2.375 10.5221 6.25859 8.55961 8.83047C7.85873 8.61582 7.11727 8.56853 6.3948 8.6924C5.67233 8.81628 4.98897 9.10786 4.39963 9.54374C3.81028 9.97961 3.33137 10.5476 3.00137 11.2022C2.67136 11.8567 2.49945 12.5795 2.49946 13.3125C2.49946 15.725 0.972895 16.807 0.900238 16.857C0.78937 16.9319 0.705449 17.0404 0.660814 17.1665C0.616179 17.2926 0.613187 17.4297 0.652277 17.5576C0.691367 17.6856 0.770477 17.7976 0.877973 17.8772C0.985469 17.9568 1.11568 17.9999 1.24946 18H7.18696C7.91997 18 8.64277 17.8281 9.2973 17.4981C9.95183 17.1681 10.5198 16.6892 10.9557 16.0998C11.3916 15.5105 11.6832 14.8271 11.8071 14.1047C11.9309 13.3822 11.8836 12.6407 11.669 11.9398C14.2416 9.97734 18.1245 6.44375 18.1245 3ZM9.71977 9.37109C9.98748 9.02422 10.2502 8.6974 10.508 8.39062C11.1391 8.81696 11.6825 9.36037 12.1088 9.99141C11.8015 10.2487 11.4747 10.5115 11.1284 10.7797C10.7642 10.2155 10.284 9.7353 9.71977 9.37109ZM13.0557 9.16172C12.5839 8.49594 12.0027 7.91481 11.337 7.44297C13.8198 4.74531 15.6924 3.92734 16.7979 3.7C16.5752 4.80625 15.7534 6.67891 13.0557 9.16172Z" fill="#58616B"/>
</svg>
