<svg width="72" height="72" viewBox="0 0 72 72" fill="none" xmlns="http://www.w3.org/2000/svg">
<path fill-rule="evenodd" clip-rule="evenodd" d="M66.802 59.7914L66.8008 59.7938H66.8271L66.802 59.7914ZM32.9013 58.0646C17.4419 57.3477 2.27029 56.6873 0.840262 56.6873C0.28884 53.8282 0 50.7766 0 47.4777C0 34.2818 3.64989 23.0653 10.9759 13.8557C18.2757 4.64605 27.8337 0.0274914 39.6499 0C49.1028 0 56.849 3.24399 62.9146 9.67698C68.9803 16.1375 72 24.5773 72 34.9966C72 44.2326 70.2673 52.5067 66.802 59.7914C64.9143 59.6091 52.8122 59.0017 39.4702 58.3719C43.8985 54.5027 53.328 44.8622 53.328 32.9402C53.3229 28.2156 51.5335 23.6861 48.3525 20.3453C45.1715 17.0046 40.8586 15.1254 36.36 15.12C31.8614 15.1254 27.5484 17.0046 24.3674 20.3453C21.1864 23.6861 19.3971 28.2156 19.392 32.9402C19.392 44.558 28.3465 54.0094 32.9013 58.0646ZM61.1816 68.8935C44.1663 69.5807 25.6543 70.5979 8.1663 72C6.06564 69.6907 4.3326 67.0515 3.04595 64.055C35.8687 62.323 56.3501 63.3677 64.5164 64C63.5186 65.677 62.3895 67.3265 61.1816 68.8935ZM39.7879 27.5522C38.7733 26.8402 37.5803 26.4601 36.36 26.4601C34.7235 26.4601 33.1541 27.1428 31.997 28.3581C30.8399 29.5733 30.1898 31.2216 30.1898 32.9402C30.1898 34.2218 30.5517 35.4747 31.2297 36.5403C31.9077 37.6059 32.8713 38.4365 33.9988 38.927C35.1262 39.4174 36.3668 39.5458 37.5637 39.2957C38.7606 39.0457 39.86 38.4285 40.723 37.5223C41.5859 36.616 42.1735 35.4614 42.4116 34.2044C42.6497 32.9474 42.5275 31.6444 42.0605 30.4604C41.5935 29.2763 40.8026 28.2642 39.7879 27.5522Z" fill="#1FD3FA"/>
</svg>
