<svg width="20" height="21" viewBox="0 0 20 21" fill="none" xmlns="http://www.w3.org/2000/svg">
<path d="M17.9112 7.56249C18.5833 9.36769 18.6175 11.3485 18.0081 13.1758C17.3986 15.0031 16.1823 16.5669 14.5612 17.6073C12.9401 18.6477 11.0118 19.1021 9.0967 18.895C7.18162 18.6879 5.39506 17.8317 4.03387 16.4687C2.50485 14.9448 1.61814 12.8927 1.55621 10.7347C1.49428 8.57681 2.26185 6.47723 3.70097 4.86806C5.14008 3.2589 7.14125 2.26256 9.29267 2.08408C11.4441 1.9056 13.5821 2.55856 15.2667 3.90858L16.837 2.33749C16.9242 2.25028 17.0277 2.18111 17.1417 2.13391C17.2556 2.08672 17.3777 2.06243 17.5011 2.06243C17.6244 2.06243 17.7465 2.08672 17.8604 2.13391C17.9744 2.18111 18.0779 2.25028 18.1651 2.33749C18.2523 2.4247 18.3215 2.52823 18.3687 2.64217C18.4159 2.75611 18.4402 2.87823 18.4402 3.00155C18.4402 3.12488 18.4159 3.247 18.3687 3.36094C18.3215 3.47488 18.2523 3.57841 18.1651 3.66562L10.6651 11.1656C10.5779 11.2528 10.4744 11.322 10.3604 11.3692C10.2465 11.4164 10.1244 11.4407 10.0011 11.4407C9.87773 11.4407 9.75561 11.4164 9.64167 11.3692C9.52773 11.322 9.42421 11.2528 9.337 11.1656C9.24979 11.0784 9.18062 10.9749 9.13342 10.8609C9.08623 10.747 9.06194 10.6249 9.06194 10.5016C9.06194 10.3782 9.08623 10.2561 9.13342 10.1422C9.18062 10.0282 9.24979 9.9247 9.337 9.83749L11.212 7.96249C10.6835 7.71001 10.0895 7.6288 9.51263 7.7302C8.9358 7.8316 8.40502 8.11054 7.99434 8.5281C7.58367 8.94566 7.31359 9.48101 7.2218 10.0594C7.13001 10.6379 7.22109 11.2305 7.48232 11.7547C7.74355 12.2789 8.16191 12.7085 8.67901 12.9834C9.19611 13.2584 9.78616 13.3651 10.3668 13.2886C10.9475 13.2122 11.4898 12.9563 11.918 12.5568C12.3463 12.1573 12.6392 11.6341 12.7557 11.0601C12.8049 10.8164 12.9488 10.6021 13.1559 10.4644C13.363 10.3268 13.6163 10.2771 13.86 10.3262C14.1038 10.3753 14.3181 10.5192 14.4557 10.7263C14.5934 10.9334 14.6431 11.1867 14.594 11.4305C14.3943 12.4142 13.8841 13.3078 13.1385 13.9799C12.3929 14.6519 11.4512 15.0668 10.4521 15.1636C9.45297 15.2603 8.44918 15.0338 7.58845 14.5174C6.72772 14.0009 6.05551 13.2218 5.67075 12.2946C5.28599 11.3675 5.20902 10.3414 5.45114 9.36722C5.69327 8.39307 6.24171 7.52237 7.01575 6.88327C7.7898 6.24417 8.74856 5.87043 9.75092 5.81704C10.7533 5.76365 11.7463 6.03344 12.5839 6.58671L13.93 5.2453C12.6655 4.30097 11.1031 3.84393 9.52906 3.95793C7.95502 4.07194 6.47478 4.74936 5.3596 5.86605C4.24443 6.98274 3.56902 8.4639 3.45715 10.0381C3.34527 11.6123 3.80444 13.1741 4.75048 14.4372C5.69653 15.7004 7.0661 16.5804 8.6082 16.9158C10.1503 17.2513 11.7616 17.0198 13.1469 16.2638C14.5322 15.5077 15.5987 14.2778 16.1508 12.7994C16.703 11.321 16.7039 9.69309 16.1534 8.21405C16.1096 8.09842 16.0891 7.97526 16.093 7.85166C16.097 7.72807 16.1254 7.60648 16.1766 7.4939C16.2277 7.38133 16.3007 7.27998 16.3912 7.19571C16.4817 7.11144 16.5879 7.04591 16.7039 7.00288C16.8198 6.95986 16.9431 6.94019 17.0667 6.94502C17.1902 6.94985 17.3116 6.97908 17.4239 7.03102C17.5361 7.08297 17.6369 7.1566 17.7206 7.24768C17.8042 7.33876 17.869 7.44548 17.9112 7.56171V7.56249Z" fill="#58616B"/>
</svg>
