<svg width="20" height="21" viewBox="0 0 20 21" fill="none" xmlns="http://www.w3.org/2000/svg">
<path d="M2.18834 6.12499C2.18825 6.00184 2.21242 5.87988 2.25947 5.76607C2.30652 5.65226 2.37553 5.54884 2.46256 5.46171C2.81413 5.13753 3.21231 4.86787 3.64381 4.66171C4.65086 4.1742 5.75706 3.92633 6.87584 3.93749C8.40944 3.93749 9.5321 4.68515 10.5212 5.34374C11.4001 5.92968 12.1618 6.43749 13.1258 6.43749C15.1649 6.43749 16.179 5.49453 16.2212 5.45468C16.3068 5.36858 16.4089 5.30056 16.5214 5.25466C16.6339 5.20877 16.7544 5.18592 16.8758 5.18749C17.0614 5.18735 17.2428 5.24225 17.3971 5.34526C17.5514 5.44826 17.6717 5.59473 17.7427 5.76613C17.8137 5.93753 17.8323 6.12614 17.796 6.30809C17.7598 6.49005 17.6704 6.65716 17.5391 6.78828C17.1876 7.11246 16.7894 7.38212 16.3579 7.58828C15.3508 8.07578 14.2446 8.32366 13.1258 8.31249C11.5923 8.31249 10.4696 7.56484 9.48053 6.90624C8.60163 6.32031 7.83991 5.81249 6.87584 5.81249C4.83678 5.81249 3.82897 6.74999 3.78913 6.78828C3.65801 6.91954 3.4909 7.00894 3.30894 7.04518C3.12699 7.08141 2.93838 7.06285 2.76698 6.99183C2.59558 6.92081 2.44911 6.80053 2.34611 6.64623C2.2431 6.49192 2.1882 6.31052 2.18834 6.12499ZM16.8758 13.9375C16.7544 13.9359 16.6339 13.9588 16.5214 14.0047C16.4089 14.0506 16.3068 14.1186 16.2212 14.2047C16.179 14.2445 15.1649 15.1875 13.1258 15.1875C12.1594 15.1875 11.4001 14.6812 10.5212 14.0937C9.53131 13.4336 8.41178 12.6875 6.87584 12.6875C5.75706 12.6763 4.65086 12.9242 3.64381 13.4117C3.21231 13.6179 2.81413 13.8875 2.46256 14.2117C2.28644 14.3878 2.1875 14.6267 2.1875 14.8758C2.1875 15.1248 2.28644 15.3637 2.46256 15.5398C2.63868 15.716 2.87755 15.8149 3.12663 15.8149C3.3757 15.8149 3.61457 15.716 3.79069 15.5398C3.82897 15.5 4.83678 14.5625 6.87584 14.5625C7.84225 14.5625 8.60163 15.0687 9.48053 15.6562C10.4704 16.3164 11.5899 17.0625 13.1258 17.0625C14.2446 17.0737 15.3508 16.8258 16.3579 16.3383C16.7894 16.1321 17.1876 15.8625 17.5391 15.5383C17.6704 15.4072 17.7598 15.24 17.796 15.0581C17.8323 14.8761 17.8137 14.6875 17.7427 14.5161C17.6717 14.3447 17.5514 14.1983 17.3971 14.0953C17.2428 13.9923 17.0614 13.9373 16.8758 13.9375ZM16.8758 9.56249C16.7544 9.56092 16.6339 9.58377 16.5214 9.62966C16.4089 9.67556 16.3068 9.74358 16.2212 9.82968C16.179 9.86953 15.1649 10.8125 13.1258 10.8125C12.1594 10.8125 11.4001 10.3062 10.5212 9.71874C9.53131 9.05859 8.41178 8.31249 6.87584 8.31249C5.75706 8.30133 4.65086 8.5492 3.64381 9.03671C3.21231 9.24287 2.81413 9.51253 2.46256 9.83671C2.28644 10.0128 2.1875 10.2517 2.1875 10.5008C2.1875 10.7498 2.28644 10.9887 2.46256 11.1648C2.63868 11.341 2.87755 11.4399 3.12663 11.4399C3.3757 11.4399 3.61457 11.341 3.79069 11.1648C3.82897 11.125 4.83678 10.1875 6.87584 10.1875C7.84225 10.1875 8.60163 10.6937 9.48053 11.2812C10.4704 11.9414 11.5899 12.6875 13.1258 12.6875C14.2446 12.6987 15.3508 12.4508 16.3579 11.9633C16.7894 11.7571 17.1876 11.4875 17.5391 11.1633C17.6704 11.0322 17.7598 10.865 17.796 10.6831C17.8323 10.5011 17.8137 10.3125 17.7427 10.1411C17.6717 9.96973 17.5514 9.82326 17.3971 9.72026C17.2428 9.61725 17.0614 9.56235 16.8758 9.56249Z" fill="#58616B"/>
</svg>
